<svg viewBox="0 0 40 40" fill="none" xmlns="http://www.w3.org/2000/svg">
<path d="M14.1812 17.3398C14.3824 17.0909 14.5189 16.7568 14.4829 16.4153C14.1884 16.4298 13.8291 16.6074 13.6211 16.8565C13.4343 17.0698 13.269 17.418 13.3121 17.7451C13.6426 17.7735 13.9728 17.5817 14.1812 17.3398Z" fill="white"/>
<path d="M14.4791 17.809C13.9992 17.7808 13.5911 18.0785 13.3618 18.0785C13.1325 18.0785 12.7815 17.8233 12.4018 17.8302C11.9077 17.8374 11.4492 18.1137 11.1984 18.5533C10.6827 19.4328 11.0623 20.7372 11.5639 21.4535C11.8074 21.8078 12.101 22.1979 12.4877 22.1839C12.8532 22.1697 12.9964 21.9498 13.4406 21.9498C13.8845 21.9498 14.0135 22.1839 14.4004 22.1768C14.8015 22.1697 15.0523 21.8223 15.2959 21.4676C15.5753 21.0637 15.6897 20.6737 15.6969 20.6523C15.6897 20.6452 14.9233 20.3543 14.9162 19.4822C14.909 18.752 15.5179 18.4047 15.5465 18.3831C15.2027 17.88 14.6654 17.8233 14.4791 17.809Z" fill="white"/>
<path d="M19.6697 16.8208C20.7129 16.8208 21.4394 17.5322 21.4394 18.568C21.4394 19.6075 20.698 20.3226 19.6435 20.3226H18.4884V22.1398H17.6539V16.8208L19.6697 16.8208ZM18.4884 19.6296H19.446C20.1726 19.6296 20.5861 19.2426 20.5861 18.5717C20.5861 17.9009 20.1726 17.5175 19.4497 17.5175H18.4884V19.6296Z" fill="white"/>
<path d="M21.6575 21.0377C21.6575 20.3594 22.1828 19.9429 23.1144 19.8913L24.1874 19.8287V19.5301C24.1874 19.0988 23.893 18.8408 23.4013 18.8408C22.9354 18.8408 22.6448 19.0619 22.5741 19.4085H21.814C21.8587 18.7081 22.4623 18.192 23.431 18.192C24.3812 18.192 24.9884 18.6896 24.9884 19.4674V22.1398H24.2171V21.5021H24.1986C23.9714 21.9334 23.4758 22.2061 22.9616 22.2061C22.194 22.2061 21.6575 21.7343 21.6575 21.0377ZM24.1874 20.6875V20.3816L23.2223 20.4405C22.7417 20.4737 22.4697 20.6838 22.4697 21.0156C22.4697 21.3547 22.7529 21.5758 23.1851 21.5758C23.7477 21.5758 24.1874 21.1925 24.1874 20.6875Z" fill="white"/>
<path d="M25.7166 23.5663V22.9212C25.7761 22.936 25.9102 22.936 25.9773 22.936C26.3499 22.936 26.5511 22.7812 26.674 22.3831C26.674 22.3757 26.7449 22.1472 26.7449 22.1435L25.329 18.262H26.2008L27.192 21.4173H27.2068L28.198 18.262H29.0475L27.5794 22.3425C27.2442 23.2825 26.8567 23.5847 26.0444 23.5847C25.9773 23.5847 25.7761 23.5773 25.7166 23.5663Z" fill="white"/>
</svg>
