<svg width="20" height="20" viewBox="0 0 20 20" fill="none" xmlns="http://www.w3.org/2000/svg">
<path d="M10.2996 6.30401C10.573 6.30401 10.8352 6.19541 11.0286 6.00209C11.2219 5.80877 11.3305 5.54657 11.3305 5.27318C11.3305 4.99978 11.2219 4.73758 11.0286 4.54427C10.8352 4.35095 10.573 4.24234 10.2996 4.24234C10.0262 4.24234 9.76405 4.35095 9.57073 4.54427C9.37741 4.73758 9.2688 4.99978 9.2688 5.27318C9.2688 5.54657 9.37741 5.80877 9.57073 6.00209C9.76405 6.19541 10.0262 6.30401 10.2996 6.30401ZM10.9113 1.69617C10.7341 1.56557 10.5198 1.49512 10.2996 1.49512C10.0795 1.49512 9.86519 1.56557 9.68801 1.69617L3.15938 6.51018C2.35945 7.10051 2.77659 8.3705 3.77101 8.3705H4.11462V13.3474C3.70749 13.517 3.35969 13.8034 3.11509 14.1704C2.87049 14.5374 2.74004 14.9687 2.74017 15.4097V16.4406C2.74017 16.7251 2.97108 16.956 3.25559 16.956H17.3437C17.4804 16.956 17.6115 16.9017 17.7081 16.805C17.8048 16.7084 17.8591 16.5773 17.8591 16.4406V15.4097C17.8591 14.9688 17.7286 14.5377 17.484 14.1708C17.2394 13.8039 16.8917 13.5177 16.4847 13.3481V8.3705H16.8276C17.8227 8.3705 18.2398 7.10051 17.4392 6.51018L10.9113 1.69617ZM5.14546 13.1763V8.3705H6.86352V13.1763H5.14546ZM15.4538 8.3705V13.1763H13.7358V8.3705H15.4538ZM12.7049 8.3705V13.1763H10.8151V8.3705H12.7049ZM9.78422 8.3705V13.1763H7.89435V8.3705H9.78422ZM3.77101 7.33966L10.2996 2.52565L16.8276 7.33966H3.77101ZM3.77101 15.4097C3.77101 14.7459 4.30979 14.2071 4.97365 14.2071H15.6256C16.2895 14.2071 16.8283 14.7459 16.8283 15.4097V15.9252H3.77101V15.4097Z" fill="#DFDFE0"/>
</svg>
