<svg xmlns="http://www.w3.org/2000/svg" width="20">
    <g xmlns="http://www.w3.org/2000/svg" clip-path="url(#clip0_1823_5481)">
      <path fill="#080808" d="M19.2996 -0.399902H0.6998C0.555399 -0.40007 0.412398 -0.33929 0.278959 -0.221031C0.14552 -0.102773 0.0242573 0.0706486 -0.0779048 0.28933C-0.180067 0.508012 -0.261128 0.767673 -0.31646 1.05349C-0.371793 1.3393 -0.400312 1.64567 -0.400391 1.9551V18.0455C-0.400312 18.3549 -0.371791 18.6613 -0.316457 18.9471C-0.261122 19.2329 -0.180057 19.4925 -0.0778926 19.7111C0.0242721 19.9298 0.145536 20.1032 0.278973 20.2214C0.412411 20.3396 0.555409 20.4003 0.6998 20.4001H19.2996C19.444 20.4003 19.587 20.3395 19.7204 20.2213C19.8538 20.103 19.975 19.9296 20.0772 19.711C20.1793 19.4923 20.2604 19.2327 20.3157 18.947C20.371 18.6612 20.3995 18.3549 20.3996 18.0455V1.9551C20.3994 1.33025 20.2835 0.731118 20.0772 0.289482C19.8709 -0.152154 19.5912 -0.400129 19.2996 -0.399902Z"/>
      <path fill="#E52F08" d="M14.5342 4.65327C14.5421 3.43319 13.5595 2.4377 12.3394 2.42978C11.1193 2.42186 10.1238 3.40451 10.1159 4.62459C10.108 5.84467 11.0906 6.84016 12.3107 6.84808C13.5308 6.85601 14.5263 5.87336 14.5342 4.65327Z"/>
      <path fill="white" d="M9.85082 7.88083C9.07779 7.87964 8.31658 8.07056 7.63562 8.43643V3.13843H5.16602V12.5608C5.16523 13.4874 5.43925 14.3933 5.95341 15.1641C6.46758 15.9349 7.1988 16.5359 8.05457 16.8911C8.91034 17.2462 9.85222 17.3396 10.7611 17.1594C11.6699 16.9792 12.5049 16.5334 13.1604 15.8786C13.8159 15.2238 14.2625 14.3893 14.4436 13.4806C14.6248 12.5719 14.5324 11.63 14.1781 10.7738C13.8238 9.91768 13.2236 9.18585 12.4533 8.67089C11.683 8.15593 10.7774 7.88098 9.85082 7.88083ZM9.85082 14.8172C9.40502 14.8172 8.96923 14.685 8.59856 14.4374C8.2279 14.1897 7.93899 13.8377 7.76839 13.4258C7.59779 13.0139 7.55316 12.5607 7.64013 12.1235C7.7271 11.6863 7.94177 11.2846 8.257 10.9694C8.57223 10.6542 8.97385 10.4395 9.41109 10.3525C9.84832 10.2656 10.3015 10.3102 10.7134 10.4808C11.1253 10.6514 11.4773 10.9403 11.7249 11.311C11.9726 11.6816 12.1048 12.1174 12.1048 12.5632C12.1048 12.8592 12.0464 13.1522 11.9331 13.4256C11.8198 13.699 11.6538 13.9474 11.4445 14.1566C11.2352 14.3659 10.9867 14.5318 10.7133 14.645C10.4398 14.7582 10.1468 14.8165 9.85082 14.8164V14.8172Z"/>
    </g>
    <defs xmlns="http://www.w3.org/2000/svg">
      <clipPath id="clip0_1823_5481">
        <rect fill="white" height="20" width="20"/>
      </clipPath>
    </defs>
</svg>