<svg width="20" height="20" viewBox="0 0 20 20" fill="none" xmlns="http://www.w3.org/2000/svg">
<path d="M17.5 3.75H2.5C2.16848 3.75 1.85054 3.8817 1.61612 4.11612C1.3817 4.35054 1.25 4.66848 1.25 5V15C1.25 15.3315 1.3817 15.6495 1.61612 15.8839C1.85054 16.1183 2.16848 16.25 2.5 16.25H17.5C17.8315 16.25 18.1495 16.1183 18.3839 15.8839C18.6183 15.6495 18.75 15.3315 18.75 15V5C18.75 4.66848 18.6183 4.35054 18.3839 4.11612C18.1495 3.8817 17.8315 3.75 17.5 3.75ZM17.5 5V6.875H2.5V5H17.5ZM17.5 15H2.5V8.125H17.5V15ZM16.25 13.125C16.25 13.2908 16.1842 13.4497 16.0669 13.5669C15.9497 13.6842 15.7908 13.75 15.625 13.75H13.125C12.9592 13.75 12.8003 13.6842 12.6831 13.5669C12.5658 13.4497 12.5 13.2908 12.5 13.125C12.5 12.9592 12.5658 12.8003 12.6831 12.6831C12.8003 12.5658 12.9592 12.5 13.125 12.5H15.625C15.7908 12.5 15.9497 12.5658 16.0669 12.6831C16.1842 12.8003 16.25 12.9592 16.25 13.125ZM11.25 13.125C11.25 13.2908 11.1842 13.4497 11.0669 13.5669C10.9497 13.6842 10.7908 13.75 10.625 13.75H9.375C9.20924 13.75 9.05027 13.6842 8.93306 13.5669C8.81585 13.4497 8.75 13.2908 8.75 13.125C8.75 12.9592 8.81585 12.8003 8.93306 12.6831C9.05027 12.5658 9.20924 12.5 9.375 12.5H10.625C10.7908 12.5 10.9497 12.5658 11.0669 12.6831C11.1842 12.8003 11.25 12.9592 11.25 13.125Z" fill="#006DF9"/>
</svg>
