<svg width="18" height="20" viewBox="0 0 18 20" fill="none" xmlns="http://www.w3.org/2000/svg">
<path d="M4 1.66675L1.5 5.00008V16.6667C1.5 17.1088 1.67559 17.5327 1.98816 17.8453C2.30072 18.1578 2.72464 18.3334 3.16667 18.3334H14.8333C15.2754 18.3334 15.6993 18.1578 16.0118 17.8453C16.3244 17.5327 16.5 17.1088 16.5 16.6667V5.00008L14 1.66675H4Z" stroke="#2D3241" stroke-width="1.5" stroke-linecap="round" stroke-linejoin="round"/>
<path d="M1.5 5H16.5" stroke="#2D3241" stroke-width="1.5" stroke-linecap="round" stroke-linejoin="round"/>
<path d="M12.3327 8.33325C12.3327 9.21731 11.9815 10.0652 11.3564 10.6903C10.7313 11.3154 9.8834 11.6666 8.99935 11.6666C8.11529 11.6666 7.26745 11.3154 6.64233 10.6903C6.0172 10.0652 5.66602 9.21731 5.66602 8.33325" stroke="#2D3241" stroke-width="1.5" stroke-linecap="square" stroke-linejoin="round"/>
</svg>