<svg width="16" height="16" viewBox="0 0 16 16" fill="none" xmlns="http://www.w3.org/2000/svg">
<rect x="1" y="1" width="14" height="14" rx="2" fill="#6CB851" stroke="#6CB851" stroke-linecap="round" stroke-linejoin="round"/>
<path d="M12.7653 5.64032L6.76528 11.6403C6.73045 11.6752 6.68909 11.7028 6.64357 11.7217C6.59804 11.7406 6.54925 11.7503 6.49996 11.7503C6.45068 11.7503 6.40189 11.7406 6.35636 11.7217C6.31084 11.7028 6.26948 11.6752 6.23465 11.6403L3.60965 9.01532C3.53929 8.94495 3.49976 8.84951 3.49976 8.75C3.49976 8.65049 3.53929 8.55506 3.60965 8.48469C3.68002 8.41432 3.77545 8.37479 3.87496 8.37479C3.97448 8.37479 4.06991 8.41432 4.14028 8.48469L6.49996 10.8448L12.2347 5.10969C12.305 5.03932 12.4005 4.99979 12.5 4.99979C12.5995 4.99979 12.6949 5.03932 12.7653 5.10969C12.8356 5.18006 12.8752 5.27549 12.8752 5.375C12.8752 5.47451 12.8356 5.56995 12.7653 5.64032Z" fill="white" stroke="white" stroke-width="0.5"/>
</svg>
