<svg xmlns="http://www.w3.org/2000/svg" xmlns:xlink="http://www.w3.org/1999/xlink" viewBox="0,0,256,256" width="128px" height="128px" fill-rule="nonzero"><g fill="#ffffff" fill-rule="nonzero" stroke="none" stroke-width="1" stroke-linecap="butt" stroke-linejoin="miter" stroke-miterlimit="10" stroke-dasharray="" stroke-dashoffset="0" style="mix-blend-mode: normal"><g transform="scale(2,2)"><path d="M64,1c-34.7,0 -63,28.3 -63,63c0,34.7 28.3,63 63,63c34.7,0 63,-28.3 63,-63c0,-34.7 -28.3,-63 -63,-63zM64,7c31.4,0 57,25.6 57,57c0,31.4 -25.6,57 -57,57c-31.4,0 -57,-25.6 -57,-57c0,-31.4 25.6,-57 57,-57zM93.77539,38c-0.775,0.05 -1.52617,0.4 -2.07617,1l-27.89844,32.59961l-12.70117,-12.69922c-1.2,-1.2 -3.09922,-1.2 -4.19922,0c-1.2,1.2 -1.2,3.09922 0,4.19922l15,15c0.6,0.6 1.29961,0.90039 2.09961,0.90039h0.09961c0.8,0 1.60117,-0.4 2.20117,-1l30,-35c1.1,-1.3 0.89922,-3.19922 -0.30078,-4.19922c-0.65,-0.6 -1.44961,-0.85078 -2.22461,-0.80078z"></path></g></g></svg>