<svg width="18" height="18" viewBox="0 0 18 18" fill="none" xmlns="http://www.w3.org/2000/svg">
<path d="M16.7606 10.9352C15.6921 15.221 11.3508 17.8292 7.06404 16.7605C2.77909 15.692 0.170568 11.351 1.23962 7.06558C2.30772 2.77935 6.64899 0.17093 10.9344 1.23939C15.2208 2.30785 17.8292 6.64936 16.7605 10.9353L16.7606 10.9352H16.7606Z" fill="#F7931A" stroke="white"/>
<path fill-rule="evenodd" clip-rule="evenodd" d="M12.528 7.86022C12.6873 6.7956 11.8767 6.22332 10.7682 5.84156L11.1278 4.39943L10.2498 4.18068L9.89976 5.58484C9.66894 5.52728 9.43191 5.47305 9.19633 5.41928L9.54892 4.00585L8.6715 3.78711L8.31171 5.22877C8.12071 5.18529 7.93311 5.14231 7.7511 5.09703L7.75212 5.09249L6.54139 4.79019L6.30783 5.7278C6.30783 5.7278 6.95921 5.8771 6.94549 5.88629C7.30101 5.97502 7.36531 6.21034 7.35463 6.39686L6.94502 8.03978C6.9695 8.046 7.00125 8.055 7.03629 8.06907L7.0108 8.06271L7.01075 8.0627C6.9891 8.05728 6.9666 8.05165 6.94349 8.04612L6.36935 10.3476C6.3259 10.4556 6.21562 10.6177 5.96705 10.5562C5.97585 10.5689 5.32893 10.3969 5.32893 10.3969L4.89304 11.4018L6.03557 11.6866C6.16069 11.718 6.28434 11.7502 6.40673 11.7821C6.49225 11.8044 6.57715 11.8265 6.66152 11.8481L6.29821 13.3068L7.17516 13.5255L7.53496 12.0823C7.77453 12.1473 8.00702 12.2073 8.23463 12.2639L7.87605 13.7003L8.75406 13.919L9.11733 12.4631C10.6145 12.7464 11.7402 12.6322 12.214 11.2782C12.5958 10.188 12.195 9.55926 11.4074 9.14922C11.981 9.01694 12.4131 8.63967 12.5283 7.86034L12.5281 7.86014L12.528 7.86022ZM10.522 10.6727C10.2731 11.6729 8.70736 11.2594 7.991 11.0702L7.99096 11.0702C7.92654 11.0532 7.86899 11.038 7.81988 11.0258L8.302 9.09329C8.36186 9.10823 8.435 9.12465 8.51786 9.14324L8.51788 9.14324C9.25887 9.30952 10.777 9.65018 10.522 10.6727H10.522ZM8.66667 8.24622C9.2639 8.40559 10.5668 8.75325 10.7937 7.84424H10.7937C11.0254 6.91455 9.75927 6.63426 9.14088 6.49736C9.07131 6.48196 9.00994 6.46837 8.95982 6.45588L8.52272 8.20853C8.56399 8.21882 8.61242 8.23174 8.66667 8.24622Z" fill="white"/>
</svg>
