<svg viewBox="0 0 24 24" fill="none" xmlns="http://www.w3.org/2000/svg">
<path opacity="0.3" fill-rule="evenodd" clip-rule="evenodd" d="M5 6C3.89543 6 3 6.89543 3 8V8.37275H21V8C21 6.89543 20.1046 6 19 6H5ZM21 11.0728H3V16.2727C3 17.3773 3.89543 18.2727 5 18.2727H19C20.1046 18.2727 21 17.3773 21 16.2727V11.0728ZM4.15385 15.4616C4.15385 15.3341 4.25717 15.2308 4.38462 15.2308H7.15385C7.2813 15.2308 7.38462 15.3341 7.38462 15.4616C7.38462 15.589 7.2813 15.6923 7.15385 15.6923H4.38462C4.25717 15.6923 4.15385 15.589 4.15385 15.4616ZM4.38462 16.1538C4.25717 16.1538 4.15385 16.2571 4.15385 16.3846C4.15385 16.512 4.25717 16.6154 4.38462 16.6154H9.92308C10.0505 16.6154 10.1538 16.512 10.1538 16.3846C10.1538 16.2571 10.0505 16.1538 9.92308 16.1538H4.38462Z" fill="#979797"/>
<circle cx="17.0769" cy="12" r="2.76923" fill="#858F97"/>
<path d="M15.6248 11.3891V12.8914H15.9278V11.1086H15.2308V11.3891H15.6248Z" fill="white"/>
<path d="M17.4904 12.8889V12.5987H16.7416L17.0667 12.3231C17.3401 12.0914 17.4781 11.9036 17.4781 11.6549C17.4781 11.294 17.2391 11.0769 16.8549 11.0769C16.4732 11.0769 16.222 11.3305 16.2195 11.7207H16.5323C16.5347 11.4915 16.6579 11.3549 16.8549 11.3549C17.0446 11.3549 17.1554 11.4695 17.1554 11.672C17.1554 11.8427 17.0741 11.9597 16.8303 12.1646L16.2417 12.6572V12.8914L17.4904 12.8889Z" fill="white"/>
<path d="M18.2335 12.0085C18.4847 12.0085 18.6029 12.1402 18.6029 12.3207C18.6029 12.5182 18.4724 12.645 18.2753 12.645C18.0832 12.645 17.9551 12.528 17.9551 12.3231H17.6448C17.6448 12.7084 17.9182 12.9231 18.2704 12.9231C18.6349 12.9231 18.9231 12.6914 18.9231 12.3256C18.9231 12.011 18.7088 11.811 18.4329 11.7573L18.8714 11.3574V11.1086H17.7285V11.3842H18.4773L18.0142 11.8061V12.0085H18.2335Z" fill="white"/>
</svg>
