<svg width="40" height="24" viewBox="0 0 40 24" fill="none" xmlns="http://www.w3.org/2000/svg">
<path d="M9.74277 16.6918C12.235 16.7034 14.5099 14.7545 14.5099 12.3837C14.5099 9.79119 12.235 7.99926 9.74277 8H7.598C5.07594 7.99926 3 9.79162 3 12.3837C3 14.7551 5.07594 16.7034 7.598 16.6918H9.74277Z" fill="#006095"/>
<path d="M8.55461 14.6922V9.98453C9.54731 10.3475 10.252 11.2637 10.2537 12.3382C10.252 13.413 9.54731 14.3286 8.55461 14.6922ZM4.96312 12.3382C4.96535 11.2643 5.66894 10.3487 6.66109 9.98464V14.6913C5.66894 14.3275 4.96535 13.4124 4.96312 12.3382ZM7.60802 8.35928C5.30345 8.36003 3.43598 10.1407 3.43542 12.3382C3.43598 14.5355 5.30345 16.3159 7.60802 16.3165C9.91337 16.3159 11.7812 14.5355 11.7815 12.3382C11.7812 10.1407 9.91337 8.36003 7.60802 8.35928Z" fill="white"/>
<path d="M15.9715 9.86997C15.9715 9.45888 15.7464 9.48585 15.5308 9.4815V9.36269C15.7177 9.3714 15.9093 9.3714 16.0966 9.3714C16.2979 9.3714 16.5713 9.36269 16.9263 9.36269C18.1679 9.36269 18.8439 10.1532 18.8439 10.9628C18.8439 11.4154 18.566 12.5535 16.8685 12.5535C16.6242 12.5535 16.3984 12.5445 16.1732 12.5445C15.9576 12.5445 15.7464 12.5489 15.5308 12.5535V12.4346C15.8182 12.4071 15.9576 12.398 15.9715 12.0871V9.86997ZM16.4414 12.0141C16.4414 12.366 16.7055 12.4071 16.9402 12.4071C17.9761 12.4071 18.3163 11.662 18.3163 10.9808C18.3163 10.1263 17.7409 9.50921 16.8156 9.50921C16.6187 9.50921 16.5282 9.52258 16.4414 9.52747V12.0141ZM19.012 12.4347H19.103C19.2371 12.4347 19.3331 12.4347 19.3331 12.2835V11.045C19.3331 10.844 19.2613 10.8161 19.0836 10.7252V10.6519C19.309 10.5876 19.5778 10.5012 19.5967 10.4875C19.6304 10.4692 19.6591 10.4643 19.6831 10.4643C19.7068 10.4643 19.7167 10.4918 19.7167 10.5287V12.2835C19.7167 12.4347 19.8222 12.4347 19.9566 12.4347H20.0379V12.5536C19.8748 12.5536 19.7068 12.5445 19.5347 12.5445C19.3619 12.5445 19.1892 12.549 19.012 12.5536V12.4347ZM19.5251 9.76051C19.4001 9.76051 19.2901 9.65084 19.2901 9.53193C19.2901 9.41748 19.4054 9.31205 19.5251 9.31205C19.6494 9.31205 19.76 9.40845 19.76 9.53193C19.76 9.65551 19.6543 9.76051 19.5251 9.76051ZM20.4935 11.0722C20.4935 10.9032 20.4405 10.8577 20.2157 10.7708V10.684C20.4216 10.6201 20.618 10.5604 20.8484 10.4643C20.8627 10.4643 20.8767 10.4737 20.8767 10.51V10.8072C21.1504 10.6201 21.3855 10.4643 21.7072 10.4643C22.1144 10.4643 22.2582 10.7478 22.2582 11.1044V12.2835C22.2582 12.4347 22.3635 12.4347 22.4979 12.4347H22.5843V12.5536C22.4161 12.5536 22.2483 12.5445 22.0761 12.5445C21.9033 12.5445 21.7305 12.549 21.558 12.5536V12.4347H21.6442C21.7788 12.4347 21.8742 12.4347 21.8742 12.2835V11.1C21.8742 10.8391 21.7072 10.7114 21.4334 10.7114C21.2801 10.7114 21.0355 10.8301 20.8767 10.9307V12.2835C20.8767 12.4347 20.9828 12.4347 21.1171 12.4347H21.2033V12.5536C21.0355 12.5536 20.8675 12.5445 20.6949 12.5445C20.5225 12.5445 20.3495 12.549 20.1771 12.5536V12.4347H20.2637C20.3978 12.4347 20.4935 12.4347 20.4935 12.2835V11.0722ZM22.9489 11.292C22.939 11.3332 22.939 11.4016 22.9489 11.5571C22.977 11.9912 23.2704 12.3477 23.6534 12.3477C23.9175 12.3477 24.124 12.2105 24.3009 12.0416L24.368 12.1056C24.1474 12.3845 23.874 12.6221 23.4812 12.6221C22.7185 12.6221 22.5652 11.918 22.5652 11.6256C22.5652 10.7295 23.1979 10.4643 23.5333 10.4643C23.9221 10.4643 24.3396 10.6974 24.3438 11.1819C24.3438 11.2097 24.3438 11.2368 24.3396 11.2645L24.296 11.292H22.9489ZM23.7977 11.1456C23.9175 11.1456 23.9314 11.086 23.9314 11.0313C23.9314 10.7982 23.783 10.6108 23.5143 10.6108C23.2219 10.6108 23.0206 10.8161 22.9631 11.1456H23.7977ZM24.4544 12.4347H24.5839C24.7177 12.4347 24.8137 12.4347 24.8137 12.2835V10.9993C24.8137 10.8577 24.6365 10.8301 24.5644 10.7935V10.7252C24.9144 10.5833 25.1063 10.4643 25.1501 10.4643C25.1783 10.4643 25.1925 10.478 25.1925 10.524V10.9353H25.2028C25.3221 10.757 25.5239 10.4643 25.8163 10.4643C25.9362 10.4643 26.0894 10.5419 26.0894 10.7066C26.0894 10.8301 25.9986 10.9401 25.8644 10.9401C25.7151 10.9401 25.7151 10.8301 25.5475 10.8301C25.4659 10.8301 25.1975 10.9353 25.1975 11.2097V12.2835C25.1975 12.4347 25.2932 12.4347 25.4276 12.4347H25.696V12.5536C25.4322 12.549 25.2315 12.5445 25.025 12.5445C24.8285 12.5445 24.627 12.549 24.4544 12.5536V12.4347ZM26.3004 11.918C26.3628 12.2196 26.5545 12.4758 26.9047 12.4758C27.1872 12.4758 27.2926 12.3112 27.2926 12.1514C27.2926 11.6118 26.2477 11.7854 26.2477 11.0496C26.2477 10.7934 26.4637 10.4643 26.9909 10.4643C27.1442 10.4643 27.3503 10.5056 27.5372 10.5971L27.571 11.063H27.4607C27.4128 10.7753 27.2451 10.6107 26.938 10.6107C26.746 10.6107 26.5641 10.7158 26.5641 10.9123C26.5641 11.4476 27.6765 11.2827 27.6765 12.0003C27.6765 12.3019 27.4224 12.6222 26.8516 12.6222C26.6599 12.6222 26.4345 12.5581 26.2668 12.4668L26.2139 11.941L26.3004 11.918ZM32.0062 10.19H31.8866C31.7953 9.65551 31.3973 9.44041 30.8605 9.44041C30.3088 9.44041 29.5079 9.79226 29.5079 10.8893C29.5079 11.8132 30.1989 12.4758 30.937 12.4758C31.4115 12.4758 31.8051 12.165 31.9011 11.6848L32.0111 11.7122L31.9011 12.3796C31.6996 12.4988 31.1577 12.6221 30.841 12.6221C29.7194 12.6221 29.0099 11.9318 29.0099 10.9032C29.0099 9.96606 29.8871 9.29389 30.8269 9.29389C31.2151 9.29389 31.5893 9.41312 31.9583 9.5366L32.0062 10.19ZM32.1792 12.4347H32.2698C32.4045 12.4347 32.5005 12.4347 32.5005 12.2835V9.73779C32.5005 9.44041 32.4285 9.43128 32.2463 9.38106V9.30791C32.438 9.24856 32.6394 9.16628 32.7401 9.11118C32.7925 9.084 32.8311 9.06075 32.8452 9.06075C32.8744 9.06075 32.8841 9.08846 32.8841 9.12508V12.2835C32.8841 12.4347 32.9895 12.4347 33.1239 12.4347H33.2048V12.5536C33.0424 12.5536 32.8744 12.5445 32.7018 12.5445C32.5293 12.5445 32.3567 12.549 32.1792 12.5536V12.4347ZM35.2578 12.3019C35.2578 12.3845 35.3104 12.3889 35.3918 12.3889C35.4495 12.3889 35.5211 12.3845 35.5837 12.3845V12.4807C35.3772 12.4988 34.9842 12.5948 34.893 12.6222L34.8688 12.6084V12.2383C34.5816 12.4622 34.3607 12.6222 34.0199 12.6222C33.7612 12.6222 33.4927 12.4622 33.4927 12.0784V10.9079C33.4927 10.789 33.4737 10.6746 33.2054 10.6519V10.565C33.3782 10.5605 33.7612 10.5331 33.8238 10.5331C33.8769 10.5331 33.8769 10.565 33.8769 10.6656V11.8447C33.8769 11.9821 33.8769 12.3752 34.2938 12.3752C34.4568 12.3752 34.6725 12.2564 34.8736 12.0967V10.8665C34.8736 10.7753 34.6437 10.7252 34.4714 10.6794V10.5971C34.9025 10.5695 35.1714 10.5331 35.2191 10.5331C35.2578 10.5331 35.2578 10.565 35.2578 10.6155V12.3019ZM36.2119 10.7935C36.4034 10.6381 36.6625 10.4643 36.9264 10.4643C37.4827 10.4643 37.8179 10.9264 37.8179 11.4244C37.8179 12.0232 37.3578 12.6222 36.6717 12.6222C36.3172 12.6222 36.1303 12.5123 36.0054 12.4622L35.8618 12.5671L35.7614 12.517C35.8038 12.2473 35.8283 11.9821 35.8283 11.7033V9.73779C35.8283 9.44041 35.7561 9.43128 35.574 9.38106V9.30791C35.7662 9.24856 35.9671 9.16628 36.068 9.11118C36.1207 9.084 36.1588 9.06075 36.1737 9.06075C36.2024 9.06075 36.2119 9.08846 36.2119 9.12508V10.7935ZM36.2119 12.0368C36.2119 12.2105 36.3844 12.5034 36.7057 12.5034C37.2188 12.5034 37.4344 12.0232 37.4344 11.6161C37.4344 11.1226 37.0417 10.7114 36.6675 10.7114C36.4896 10.7114 36.3413 10.8211 36.2119 10.9264V12.0368ZM15.5253 15.2114H15.5621C15.6558 15.2114 15.755 15.1993 15.755 15.0698V13.7667C15.755 13.637 15.6558 13.6247 15.5621 13.6247H15.5253V13.55C15.6271 13.55 15.7837 13.5598 15.9119 13.5598C16.0422 13.5598 16.1985 13.55 16.3211 13.55V13.6247H16.2845C16.191 13.6247 16.0916 13.637 16.0916 13.7667V15.0698C16.0916 15.1993 16.191 15.2114 16.2845 15.2114H16.3211V15.2863C16.196 15.2863 16.0391 15.2766 15.9091 15.2766C15.7811 15.2766 15.6271 15.2863 15.5253 15.2863V15.2114ZM18.1137 14.796L18.1189 14.7912V13.8586C18.1189 13.6545 17.97 13.6247 17.8918 13.6247H17.8344V13.55C17.9571 13.55 18.0771 13.5599 18.1996 13.5599C18.3065 13.5599 18.4139 13.55 18.5206 13.55V13.6247H18.4817C18.3718 13.6247 18.2492 13.6446 18.2492 13.9405V15.0725C18.2492 15.1595 18.2519 15.2464 18.2647 15.3235H18.1656L16.8221 13.8956V14.9206C16.8221 15.137 16.866 15.2114 17.0672 15.2114H17.1114V15.2863C16.9993 15.2863 16.8873 15.2766 16.7749 15.2766C16.6579 15.2766 16.5377 15.2863 16.4203 15.2863V15.2114H16.4568C16.6367 15.2114 16.6914 15.0947 16.6914 14.896V13.8483C16.6914 13.7092 16.5712 13.6247 16.4542 13.6247H16.4203V13.55C16.5193 13.55 16.621 13.5599 16.7199 13.5599C16.7983 13.5599 16.8742 13.55 16.9524 13.55L18.1137 14.796ZM18.9114 13.6744C18.7154 13.6744 18.708 13.7192 18.6688 13.9005H18.5906C18.6008 13.831 18.614 13.7614 18.6219 13.6891C18.6325 13.6194 18.6375 13.55 18.6375 13.4779H18.7001C18.7211 13.5527 18.7863 13.55 18.8571 13.55H20.203C20.2736 13.55 20.3386 13.5476 20.3441 13.4728L20.4063 13.4828C20.3962 13.55 20.3856 13.617 20.3777 13.6843C20.3729 13.7515 20.3729 13.8188 20.3729 13.8857L20.2945 13.9133C20.2892 13.8214 20.276 13.6744 20.1014 13.6744H19.6735V14.9977C19.6735 15.1895 19.765 15.2114 19.8899 15.2114H19.9395V15.2863C19.8378 15.2863 19.655 15.2766 19.5144 15.2766C19.3578 15.2766 19.1751 15.2863 19.0732 15.2863V15.2114H19.1227C19.2667 15.2114 19.3393 15.1992 19.3393 15.0029V13.6744H18.9114ZM20.4897 15.2114H20.5264C20.6202 15.2114 20.7195 15.1993 20.7195 15.0698V13.7667C20.7195 13.637 20.6202 13.6247 20.5264 13.6247H20.4897V13.55C20.6485 13.55 20.9205 13.5598 21.1392 13.5598C21.3587 13.5598 21.6296 13.55 21.8069 13.55C21.8025 13.6568 21.805 13.8213 21.8126 13.9307L21.734 13.9506C21.7214 13.789 21.6902 13.6597 21.416 13.6597H21.0538V14.3112H21.3638C21.5203 14.3112 21.5545 14.2269 21.57 14.0922H21.648C21.6429 14.1895 21.6402 14.2864 21.6402 14.3833C21.6402 14.4781 21.6429 14.5725 21.648 14.6669L21.57 14.6817C21.5545 14.5326 21.5466 14.4356 21.3663 14.4356H21.0538V15.0151C21.0538 15.1768 21.2045 15.1768 21.3715 15.1768C21.6848 15.1768 21.8229 15.1567 21.9013 14.8735L21.9742 14.8906C21.9401 15.0228 21.9089 15.1543 21.8858 15.2863C21.7185 15.2863 21.4185 15.2766 21.184 15.2766C20.9489 15.2766 20.6384 15.2863 20.4897 15.2863V15.2114ZM22.3263 13.8135C22.3263 13.6321 22.222 13.6247 22.1409 13.6247H22.0939V13.5499C22.1774 13.5499 22.3391 13.5599 22.4984 13.5599C22.6548 13.5599 22.7801 13.5499 22.9183 13.5499C23.2469 13.5499 23.5394 13.6344 23.5394 13.988C23.5394 14.2115 23.383 14.3483 23.1768 14.4258L23.6228 15.0621C23.696 15.1673 23.7479 15.1968 23.876 15.2113V15.2863C23.7898 15.2863 23.7063 15.2766 23.6203 15.2766C23.5394 15.2766 23.4557 15.2863 23.3752 15.2863C23.1743 15.0351 23.0017 14.7665 22.8323 14.4801H22.6604V15.0126C22.6604 15.2044 22.7541 15.2113 22.8739 15.2113H22.921V15.2863C22.772 15.2863 22.6212 15.2766 22.4723 15.2766C22.3469 15.2766 22.2243 15.2863 22.0939 15.2863V15.2113H22.1409C22.2378 15.2113 22.3263 15.1696 22.3263 15.0774V13.8135ZM22.6604 14.3905H22.7878C23.049 14.3905 23.1895 14.2962 23.1895 14.0025C23.1895 13.7815 23.041 13.6396 22.8085 13.6396C22.7301 13.6396 22.6967 13.6473 22.6604 13.6495V14.3905ZM25.6473 14.796L25.652 14.7912V13.8586C25.652 13.6545 25.5036 13.6247 25.4254 13.6247H25.3681V13.55C25.4907 13.55 25.6104 13.5599 25.7333 13.5599C25.8404 13.5599 25.9469 13.55 26.0547 13.55V13.6247H26.0153C25.9058 13.6247 25.7831 13.6446 25.7831 13.9405V15.0725C25.7831 15.1595 25.7855 15.2464 25.7984 15.3235H25.6996L24.3559 13.8956V14.9206C24.3559 15.137 24.4002 15.2114 24.6011 15.2114H24.6454V15.2863C24.5334 15.2863 24.4211 15.2766 24.3091 15.2766C24.1912 15.2766 24.0713 15.2863 23.954 15.2863V15.2114H23.9902C24.1705 15.2114 24.2253 15.0947 24.2253 14.896V13.8483C24.2253 13.7092 24.1053 13.6247 23.988 13.6247H23.954V13.55C24.0528 13.55 24.155 13.5599 24.2542 13.5599C24.3318 13.5599 24.4077 13.55 24.4862 13.55L25.6473 14.796ZM26.4742 14.9307C26.4477 15.0151 26.4163 15.0802 26.4163 15.1245C26.4163 15.1993 26.526 15.2114 26.6119 15.2114H26.641V15.2863C26.5365 15.2809 26.4299 15.2767 26.3248 15.2767C26.231 15.2767 26.1377 15.2809 26.0433 15.2863V15.2114H26.0592C26.1608 15.2114 26.2471 15.1543 26.2857 15.0496L26.7036 13.9084C26.7371 13.8163 26.7846 13.6919 26.8003 13.5995C26.8834 13.5725 26.9879 13.5229 27.0375 13.4929C27.0455 13.4903 27.0501 13.4877 27.0583 13.4877C27.0661 13.4877 27.0709 13.4877 27.0768 13.4954C27.0846 13.5152 27.0919 13.5376 27.1004 13.5575L27.5804 14.8585C27.6116 14.9454 27.6426 15.0374 27.6764 15.1123C27.708 15.182 27.7628 15.2114 27.849 15.2114H27.8646V15.2863C27.7472 15.2809 27.6296 15.2767 27.5047 15.2767C27.3769 15.2767 27.2461 15.2809 27.113 15.2863V15.2114H27.1419C27.2016 15.2114 27.3038 15.2017 27.3038 15.1394C27.3038 15.1072 27.2803 15.0401 27.2511 14.9603L27.1496 14.6718H26.5574L26.4742 14.9307ZM26.855 13.8286H26.8496L26.607 14.5326H27.0945L26.855 13.8286ZM27.9794 13.6744C27.7836 13.6744 27.7758 13.7192 27.7366 13.9005H27.6582C27.6685 13.831 27.6817 13.7614 27.6899 13.6891C27.7002 13.6194 27.7051 13.55 27.7051 13.4779H27.768C27.7887 13.5527 27.8542 13.55 27.9244 13.55H29.2709C29.3411 13.55 29.4062 13.5476 29.4115 13.4728L29.474 13.4828C29.464 13.55 29.4535 13.617 29.4457 13.6843C29.4399 13.7515 29.4399 13.8188 29.4399 13.8857L29.3619 13.9133C29.3571 13.8214 29.3439 13.6744 29.1691 13.6744H28.7411V14.9977C28.7411 15.1895 28.8327 15.2114 28.9576 15.2114H29.0073V15.2863C28.9055 15.2863 28.723 15.2766 28.582 15.2766C28.4258 15.2766 28.2427 15.2863 28.141 15.2863V15.2114H28.1906C28.3343 15.2114 28.4073 15.1992 28.4073 15.0029V13.6744H27.9794ZM29.5702 15.2114H29.6068C29.701 15.2114 29.7997 15.1993 29.7997 15.0698V13.7667C29.7997 13.637 29.701 13.6247 29.6068 13.6247H29.5702V13.55C29.6723 13.55 29.8285 13.5598 29.9561 13.5598C30.087 13.5598 30.2434 13.55 30.3663 13.55V13.6247H30.3297C30.2356 13.6247 30.1363 13.637 30.1363 13.7667V15.0698C30.1363 15.1993 30.2356 15.2114 30.3297 15.2114H30.3663V15.2863C30.2409 15.2863 30.0843 15.2766 29.954 15.2766C29.8259 15.2766 29.6723 15.2863 29.5702 15.2863V15.2114ZM31.4067 13.5129C31.963 13.5129 32.4062 13.8414 32.4062 14.3712C32.4062 14.9433 31.9757 15.3236 31.4202 15.3236C30.8666 15.3236 30.4442 14.9655 30.4442 14.4307C30.4442 13.9135 30.8642 13.5129 31.4067 13.5129ZM31.4462 15.2141C31.9524 15.2141 32.0405 14.7885 32.0405 14.4259C32.0405 14.0622 31.8351 13.6221 31.4017 13.6221C30.945 13.6221 30.8095 14.0103 30.8095 14.3432C30.8095 14.7885 31.0234 15.2141 31.4462 15.2141ZM34.1643 14.796L34.1697 14.7912V13.8586C34.1697 13.6545 34.0206 13.6247 33.9423 13.6247H33.8857V13.55C34.0079 13.55 34.128 13.5599 34.2502 13.5599C34.3577 13.5599 34.4646 13.55 34.5717 13.55V13.6247H34.5323C34.4229 13.6247 34.3001 13.6446 34.3001 13.9405V15.0725C34.3001 15.1595 34.3025 15.2464 34.3158 15.3235H34.2168L32.8729 13.8956V14.9206C32.8729 15.137 32.9173 15.2114 33.118 15.2114H33.1625V15.2863C33.0503 15.2863 32.9383 15.2766 32.8261 15.2766C32.7087 15.2766 32.5883 15.2863 32.4708 15.2863V15.2114H32.5077C32.688 15.2114 32.7422 15.0947 32.7422 14.896V13.8483C32.7422 13.7092 32.6228 13.6247 32.5049 13.6247H32.4708V13.55C32.5702 13.55 32.672 13.5599 32.771 13.5599C32.8491 13.5599 32.9246 13.55 33.0032 13.55L34.1643 14.796ZM34.9909 14.9307C34.9653 15.0151 34.9336 15.0802 34.9336 15.1245C34.9336 15.1993 35.0436 15.2114 35.1291 15.2114H35.1583V15.2863C35.0538 15.2809 34.9467 15.2767 34.8423 15.2767C34.7481 15.2767 34.6546 15.2809 34.561 15.2863V15.2114H34.5758C34.678 15.2114 34.7644 15.1543 34.8029 15.0496L35.221 13.9084C35.2547 13.8163 35.3019 13.6919 35.3171 13.5995C35.4007 13.5725 35.5049 13.5229 35.5549 13.4929C35.5624 13.4903 35.5676 13.4877 35.5756 13.4877C35.5833 13.4877 35.5884 13.4877 35.5936 13.4954C35.6015 13.5152 35.6095 13.5376 35.6174 13.5575L36.0972 14.8585C36.1285 14.9454 36.1597 15.0374 36.194 15.1123C36.2252 15.182 36.2803 15.2114 36.3661 15.2114H36.3821V15.2863C36.2645 15.2809 36.147 15.2767 36.0216 15.2767C35.8941 15.2767 35.7633 15.2809 35.6302 15.2863V15.2114H35.6591C35.7187 15.2114 35.8211 15.2017 35.8211 15.1394C35.8211 15.1072 35.7974 15.0401 35.7683 14.9603L35.667 14.6718H35.0746L34.9909 14.9307ZM35.3722 13.8286H35.367L35.124 14.5326H35.6123L35.3722 13.8286ZM37.0394 15.0425C37.0394 15.1422 37.1119 15.1718 37.1955 15.182C37.3025 15.1895 37.4199 15.1895 37.5402 15.1769C37.6496 15.1643 37.7435 15.1048 37.7904 15.0425C37.832 14.9877 37.8554 14.9181 37.8713 14.8634H37.9469C37.9183 15.0051 37.8817 15.1447 37.8502 15.2863C37.6212 15.2863 37.3908 15.2767 37.1618 15.2767C36.9319 15.2767 36.7026 15.2863 36.4729 15.2863V15.2114H36.5089C36.6032 15.2114 36.7052 15.1993 36.7052 15.0449V13.7666C36.7052 13.637 36.6032 13.6247 36.5089 13.6247H36.4729V13.55C36.6109 13.55 36.7468 13.5599 36.8849 13.5599C37.0184 13.5599 37.1486 13.55 37.2818 13.55V13.6247H37.2162C37.1173 13.6247 37.0394 13.6274 37.0394 13.759V15.0425Z" fill="#1A1918"/>
</svg>
