<svg xmlns="http://www.w3.org/2000/svg" viewBox="0 0 24 16" role="presentation" focusable="false">
  <path fill-rule="evenodd" clip-rule="evenodd" d="M0 3.512C0 1.564 1.592 0 3.535 0h16.93C22.409 0 24 1.564 24 3.512v8.976C24 14.436 22.41 16 20.465 16H3.535C1.592 16 0 14.436 0 12.488V3.512ZM3.535 1C2.135 1 1 2.125 1 3.512v8.976C1 13.875 2.136 15 3.535 15h16.93c1.4 0 2.535-1.125 2.535-2.512V3.512C23 2.125 21.866 1 20.465 1H3.535Z" fill="#fff"/>
  <path d="M1 3.512C1 2.125 2.136 1 3.535 1h16.93C21.864 1 23 2.125 23 3.512v8.976C23 13.875 21.866 15 20.465 15H3.535C2.135 15 1 13.875 1 12.488V3.512Z" fill="#04337B"/>
  <path d="M2 12.472C2 13.352 2.653 14 3.539 14h8.446V2H3.539C2.653 2 2 2.647 2 3.528v8.944Z" fill="#fff"/>
  <path d="M10.307 3.765v5.33c0 2.48-1.219 3.28-3.683 3.28a7.179 7.179 0 0 1-2.334-.383l.106-1.646c.644.313 1.184.498 2.065.498 1.219 0 1.876-.567 1.876-1.75V8.77h-.024c-.504.707-1.208 1.032-2.054 1.032-1.676 0-2.72-1.251-2.72-3.036 0-1.796.857-3.141 2.756-3.141.903 0 1.63.487 2.078 1.23h.022v-1.09h1.912ZM5.72 6.732c0 .938.564 1.47 1.197 1.47.75 0 1.35-.625 1.35-1.552 0-.672-.4-1.425-1.35-1.425-.786 0-1.197.684-1.197 1.507Z" fill="#EE3525"/>
  <path fill-rule="evenodd" clip-rule="evenodd" d="M14.538 12.375h2.083V9.042h.023c.394.73 1.182 1.001 1.91 1.001 1.794 0 2.753-1.507 2.753-3.32 0-1.484-.913-3.098-2.58-3.098-.948 0-1.827.39-2.245 1.249h-.023V3.768h-1.92v8.607Zm4.617-5.605c0 .977-.475 1.648-1.262 1.648-.694 0-1.273-.672-1.273-1.566 0-.919.509-1.602 1.273-1.602.811 0 1.262.708 1.262 1.52Z" fill="#fff"/>
</svg>