<svg viewBox="0 0 40 40" fill="none" xmlns="http://www.w3.org/2000/svg">
<g clip-path="url(#clip0_156_10)">
<path d="M19.4468 20.4164V22.8003H18.6913V16.9156H20.6951C21.1785 16.9062 21.643 17.0893 21.995 17.4271C22.3469 17.7416 22.544 18.1967 22.5347 18.666C22.544 19.14 22.3469 19.5952 21.995 19.9143C21.643 20.2475 21.2113 20.4164 20.6998 20.4164H19.4468ZM19.4468 17.6383V19.6937H20.7139C20.9954 19.7031 21.2676 19.5905 21.46 19.3887C21.8589 19.0039 21.8636 18.3704 21.4788 17.9715L21.46 17.9527C21.2676 17.7462 20.9954 17.6336 20.7139 17.643L19.4468 17.6383ZM24.2757 18.6426C24.8341 18.6426 25.2752 18.7927 25.599 19.0884C25.9228 19.3887 26.0824 19.797 26.0824 20.3179V22.7956H25.3597V22.2372H25.3268C25.0124 22.6971 24.5995 22.927 24.0786 22.927C23.6375 22.927 23.262 22.7956 22.9664 22.5328C22.6754 22.2888 22.5112 21.9275 22.5206 21.5474C22.5206 21.1297 22.6801 20.8012 22.9945 20.5525C23.309 20.3038 23.7313 20.1818 24.2569 20.1818C24.7074 20.1818 25.0734 20.2662 25.3644 20.4258V20.2522C25.3644 19.9941 25.2518 19.75 25.0547 19.5858C24.8529 19.4075 24.5948 19.3089 24.3273 19.3089C23.9049 19.3089 23.5718 19.4873 23.323 19.8439L22.6567 19.4262C23.018 18.9054 23.5577 18.6426 24.2757 18.6426ZM23.2996 21.5661C23.2996 21.7632 23.3934 21.9462 23.5483 22.0589C23.7172 22.1903 23.9237 22.2607 24.1349 22.256C24.454 22.256 24.759 22.1293 24.9843 21.904C25.233 21.6694 25.3597 21.3925 25.3597 21.0734C25.1251 20.8857 24.7966 20.7918 24.3742 20.7918C24.0692 20.7918 23.8111 20.8669 23.6046 21.0124C23.4028 21.1626 23.2996 21.3456 23.2996 21.5661ZM30.2308 18.774L27.7061 24.5742H26.9271L27.8656 22.5469L26.2044 18.7786H27.0256L28.2223 21.6694H28.241L29.4095 18.7786L30.2308 18.774Z" fill="white"/>
<path d="M16.3919 19.9002C16.3919 19.6703 16.3731 19.4403 16.3355 19.2151H13.1492V20.515H14.9746C14.8996 20.9326 14.6555 21.308 14.2989 21.5427V22.3874H15.3876C16.0258 21.8008 16.3919 20.9326 16.3919 19.9002Z" fill="#4285F4"/>
<path d="M13.1492 23.2039C14.0596 23.2039 14.8292 22.9036 15.3876 22.3874L14.2989 21.5427C13.9939 21.7492 13.6044 21.8665 13.1492 21.8665C12.2669 21.8665 11.5208 21.2705 11.2533 20.4727H10.1317V21.3456C10.7043 22.4812 11.8728 23.2039 13.1492 23.2039Z" fill="#34A852"/>
<path d="M11.2533 20.4727C11.1125 20.0551 11.1125 19.5999 11.2533 19.1775V18.3094H10.1317C9.89342 18.7791 9.76923 19.2984 9.76923 19.8251C9.76923 20.3519 9.89342 20.8712 10.1317 21.3409L11.2533 20.4727Z" fill="#F9BA05"/>
<path d="M13.1492 17.7838C13.6325 17.7744 14.0971 17.9574 14.4444 18.2906L15.4064 17.3286C14.7963 16.7514 13.9892 16.437 13.1492 16.4464C11.8728 16.4464 10.7043 17.169 10.1317 18.3094L11.2533 19.1822C11.5208 18.3798 12.2669 17.7838 13.1492 17.7838Z" fill="#E94235"/>
</g>
<defs>
<clipPath id="clip0_156_10">
<rect width="20.4615" height="8.12804" fill="white" transform="translate(9.76923 16.4461)"/>
</clipPath>
</defs>
</svg>
