<svg width="157" height="15" viewBox="0 0 157 15" fill="none" xmlns="http://www.w3.org/2000/svg">
<path opacity="0.2" d="M1.68 6.53C1.86 6.21667 2.12667 5.95667 2.48 5.75C2.84 5.53667 3.25667 5.43 3.73 5.43C4.21667 5.43 4.65667 5.54667 5.05 5.78C5.45 6.01333 5.76333 6.34333 5.99 6.77C6.21667 7.19 6.33 7.68 6.33 8.24C6.33 8.79333 6.21667 9.28667 5.99 9.72C5.76333 10.1533 5.45 10.49 5.05 10.73C4.65667 10.97 4.21667 11.09 3.73 11.09C3.26333 11.09 2.85 10.9867 2.49 10.78C2.13667 10.5667 1.86667 10.3033 1.68 9.99V13.6H0.77V5.52H1.68V6.53ZM5.4 8.24C5.4 7.82667 5.31667 7.46667 5.15 7.16C4.98333 6.85333 4.75667 6.62 4.47 6.46C4.19 6.3 3.88 6.22 3.54 6.22C3.20667 6.22 2.89667 6.30333 2.61 6.47C2.33 6.63 2.10333 6.86667 1.93 7.18C1.76333 7.48667 1.68 7.84333 1.68 8.25C1.68 8.66333 1.76333 9.02667 1.93 9.34C2.10333 9.64667 2.33 9.88333 2.61 10.05C2.89667 10.21 3.20667 10.29 3.54 10.29C3.88 10.29 4.19 10.21 4.47 10.05C4.75667 9.88333 4.98333 9.64667 5.15 9.34C5.31667 9.02667 5.4 8.66 5.4 8.24ZM9.71781 11.09C9.20448 11.09 8.73781 10.9733 8.31781 10.74C7.90448 10.5067 7.57781 10.1767 7.33781 9.75C7.10448 9.31667 6.98781 8.81667 6.98781 8.25C6.98781 7.69 7.10781 7.19667 7.34781 6.77C7.59448 6.33667 7.92781 6.00667 8.34781 5.78C8.76781 5.54667 9.23781 5.43 9.75781 5.43C10.2778 5.43 10.7478 5.54667 11.1678 5.78C11.5878 6.00667 11.9178 6.33333 12.1578 6.76C12.4045 7.18667 12.5278 7.68333 12.5278 8.25C12.5278 8.81667 12.4011 9.31667 12.1478 9.75C11.9011 10.1767 11.5645 10.5067 11.1378 10.74C10.7111 10.9733 10.2378 11.09 9.71781 11.09ZM9.71781 10.29C10.0445 10.29 10.3511 10.2133 10.6378 10.06C10.9245 9.90667 11.1545 9.67667 11.3278 9.37C11.5078 9.06333 11.5978 8.69 11.5978 8.25C11.5978 7.81 11.5111 7.43667 11.3378 7.13C11.1645 6.82333 10.9378 6.59667 10.6578 6.45C10.3778 6.29667 10.0745 6.22 9.74781 6.22C9.41448 6.22 9.10781 6.29667 8.82781 6.45C8.55448 6.59667 8.33448 6.82333 8.16781 7.13C8.00115 7.43667 7.91781 7.81 7.91781 8.25C7.91781 8.69667 7.99781 9.07333 8.15781 9.38C8.32448 9.68667 8.54448 9.91667 8.81781 10.07C9.09115 10.2167 9.39115 10.29 9.71781 10.29ZM20.8243 5.52L19.1143 11H18.1743L16.8543 6.65L15.5343 11H14.5943L12.8743 5.52H13.8043L15.0643 10.12L16.4243 5.52H17.3543L18.6843 10.13L19.9243 5.52H20.8243ZM26.5274 8.05C26.5274 8.22333 26.5174 8.40667 26.4974 8.6H22.1174C22.1508 9.14 22.3341 9.56333 22.6674 9.87C23.0074 10.17 23.4174 10.32 23.8974 10.32C24.2908 10.32 24.6174 10.23 24.8774 10.05C25.1441 9.86333 25.3308 9.61667 25.4374 9.31H26.4174C26.2708 9.83667 25.9774 10.2667 25.5374 10.6C25.0974 10.9267 24.5508 11.09 23.8974 11.09C23.3774 11.09 22.9108 10.9733 22.4974 10.74C22.0908 10.5067 21.7708 10.1767 21.5374 9.75C21.3041 9.31667 21.1874 8.81667 21.1874 8.25C21.1874 7.68333 21.3008 7.18667 21.5274 6.76C21.7541 6.33333 22.0708 6.00667 22.4774 5.78C22.8908 5.54667 23.3641 5.43 23.8974 5.43C24.4174 5.43 24.8774 5.54333 25.2774 5.77C25.6774 5.99667 25.9841 6.31 26.1974 6.71C26.4174 7.10333 26.5274 7.55 26.5274 8.05ZM25.5874 7.86C25.5874 7.51333 25.5108 7.21667 25.3574 6.97C25.2041 6.71667 24.9941 6.52667 24.7274 6.4C24.4674 6.26667 24.1774 6.2 23.8574 6.2C23.3974 6.2 23.0041 6.34667 22.6774 6.64C22.3574 6.93333 22.1741 7.34 22.1274 7.86H25.5874ZM28.4386 6.41C28.5986 6.09667 28.8253 5.85333 29.1186 5.68C29.4186 5.50667 29.7819 5.42 30.2086 5.42V6.36H29.9686C28.9486 6.36 28.4386 6.91333 28.4386 8.02V11H27.5286V5.52H28.4386V6.41ZM36.0591 8.05C36.0591 8.22333 36.0491 8.40667 36.0291 8.6H31.6491C31.6824 9.14 31.8657 9.56333 32.1991 9.87C32.5391 10.17 32.9491 10.32 33.4291 10.32C33.8224 10.32 34.1491 10.23 34.4091 10.05C34.6757 9.86333 34.8624 9.61667 34.9691 9.31H35.9491C35.8024 9.83667 35.5091 10.2667 35.0691 10.6C34.6291 10.9267 34.0824 11.09 33.4291 11.09C32.9091 11.09 32.4424 10.9733 32.0291 10.74C31.6224 10.5067 31.3024 10.1767 31.0691 9.75C30.8357 9.31667 30.7191 8.81667 30.7191 8.25C30.7191 7.68333 30.8324 7.18667 31.0591 6.76C31.2857 6.33333 31.6024 6.00667 32.0091 5.78C32.4224 5.54667 32.8957 5.43 33.4291 5.43C33.9491 5.43 34.4091 5.54333 34.8091 5.77C35.2091 5.99667 35.5157 6.31 35.7291 6.71C35.9491 7.10333 36.0591 7.55 36.0591 8.05ZM35.1191 7.86C35.1191 7.51333 35.0424 7.21667 34.8891 6.97C34.7357 6.71667 34.5257 6.52667 34.2591 6.4C33.9991 6.26667 33.7091 6.2 33.3891 6.2C32.9291 6.2 32.5357 6.34667 32.2091 6.64C31.8891 6.93333 31.7057 7.34 31.6591 7.86H35.1191ZM36.7202 8.24C36.7202 7.68 36.8336 7.19 37.0602 6.77C37.2869 6.34333 37.5969 6.01333 37.9902 5.78C38.3902 5.54667 38.8369 5.43 39.3302 5.43C39.7569 5.43 40.1536 5.53 40.5202 5.73C40.8869 5.92333 41.1669 6.18 41.3602 6.5V3.6H42.2802V11H41.3602V9.97C41.1802 10.2967 40.9136 10.5667 40.5602 10.78C40.2069 10.9867 39.7936 11.09 39.3202 11.09C38.8336 11.09 38.3902 10.97 37.9902 10.73C37.5969 10.49 37.2869 10.1533 37.0602 9.72C36.8336 9.28667 36.7202 8.79333 36.7202 8.24ZM41.3602 8.25C41.3602 7.83667 41.2769 7.47667 41.1102 7.17C40.9436 6.86333 40.7169 6.63 40.4302 6.47C40.1502 6.30333 39.8402 6.22 39.5002 6.22C39.1602 6.22 38.8502 6.3 38.5702 6.46C38.2902 6.62 38.0669 6.85333 37.9002 7.16C37.7336 7.46667 37.6502 7.82667 37.6502 8.24C37.6502 8.66 37.7336 9.02667 37.9002 9.34C38.0669 9.64667 38.2902 9.88333 38.5702 10.05C38.8502 10.21 39.1602 10.29 39.5002 10.29C39.8402 10.29 40.1502 10.21 40.4302 10.05C40.7169 9.88333 40.9436 9.64667 41.1102 9.34C41.2769 9.02667 41.3602 8.66333 41.3602 8.25ZM46.9941 6.54C47.1807 6.21333 47.4541 5.94667 47.8141 5.74C48.1741 5.53333 48.5841 5.43 49.0441 5.43C49.5374 5.43 49.9807 5.54667 50.3741 5.78C50.7674 6.01333 51.0774 6.34333 51.3041 6.77C51.5307 7.19 51.6441 7.68 51.6441 8.24C51.6441 8.79333 51.5307 9.28667 51.3041 9.72C51.0774 10.1533 50.7641 10.49 50.3641 10.73C49.9707 10.97 49.5307 11.09 49.0441 11.09C48.5707 11.09 48.1541 10.9867 47.7941 10.78C47.4407 10.5733 47.1741 10.31 46.9941 9.99V11H46.0841V3.6H46.9941V6.54ZM50.7141 8.24C50.7141 7.82667 50.6307 7.46667 50.4641 7.16C50.2974 6.85333 50.0707 6.62 49.7841 6.46C49.5041 6.3 49.1941 6.22 48.8541 6.22C48.5207 6.22 48.2107 6.30333 47.9241 6.47C47.6441 6.63 47.4174 6.86667 47.2441 7.18C47.0774 7.48667 46.9941 7.84333 46.9941 8.25C46.9941 8.66333 47.0774 9.02667 47.2441 9.34C47.4174 9.64667 47.6441 9.88333 47.9241 10.05C48.2107 10.21 48.5207 10.29 48.8541 10.29C49.1941 10.29 49.5041 10.21 49.7841 10.05C50.0707 9.88333 50.2974 9.64667 50.4641 9.34C50.6307 9.02667 50.7141 8.66 50.7141 8.24ZM57.3619 5.52L54.0619 13.58H53.1219L54.2019 10.94L51.9919 5.52H53.0019L54.7219 9.96L56.4219 5.52H57.3619Z" fill="#F4F6F9"/>
<path d="M107.045 7.98018C107.045 10.0232 105.776 11.2412 104.02 11.2412C103.049 11.2412 102.203 10.8471 101.817 10.1951V13.5789H100.46V4.81864H101.704L101.816 5.77877C102.202 5.12681 103.023 4.69586 104.019 4.69586C105.711 4.69586 107.044 5.86471 107.044 7.98141L107.045 7.98018ZM105.638 7.98018C105.638 6.68855 104.867 5.88804 103.746 5.88804C102.675 5.87576 101.854 6.68733 101.854 7.99246C101.854 9.29759 102.677 10.0478 103.746 10.0478C104.815 10.0478 105.638 9.27304 105.638 7.98018Z" fill="#F4F6F8"/>
<path d="M114.264 8.33742H109.385C109.41 9.51855 110.193 10.1337 111.189 10.1337C111.936 10.1337 112.559 9.78866 112.82 9.09988H114.202C113.865 10.3792 112.72 11.2411 111.165 11.2411C109.26 11.2411 108.003 9.93723 108.003 7.95558C108.003 5.97394 109.26 4.68231 111.152 4.68231C113.045 4.68231 114.264 5.93711 114.264 7.8328V8.33742ZM109.397 7.40185H112.882C112.807 6.30667 112.073 5.75294 111.152 5.75294C110.231 5.75294 109.497 6.30667 109.397 7.40185Z" fill="#F4F6F8"/>
<path d="M116.667 4.81836C116.033 4.81836 115.521 5.32543 115.521 5.9516V11.1193H116.89V7.76013V6.30766C116.89 6.15173 117.018 6.02404 117.177 6.02404H119.268V4.81836H116.668H116.667Z" fill="#F4F6F8"/>
<path d="M98.2704 4.80612L96.5158 10.0365L94.6233 4.8184H93.1543L95.5807 11.0334C95.6553 11.2299 95.6925 11.3907 95.6925 11.5503C95.6925 11.6375 95.6838 11.7173 95.6689 11.791L95.6652 11.8045C95.6565 11.8438 95.6466 11.8806 95.6341 11.9162L95.5422 12.2489C95.5199 12.3312 95.4441 12.3877 95.3585 12.3877H93.4275V13.5811H94.8344C95.7807 13.5811 96.5642 13.3601 97.0125 12.1286L99.6886 4.8184L98.2692 4.80612H98.2704Z" fill="#F4F6F8"/>
<path d="M86.6826 11.1183H88.0386V7.72223C88.0386 6.66388 88.6235 5.92598 89.7064 5.92598C90.6526 5.91371 91.2375 6.46744 91.2375 7.6854V11.1183H92.5947V7.47545C92.5947 5.32191 91.2636 4.68224 90.0553 4.68224C89.1339 4.68224 88.4124 5.03952 88.0386 5.63009V2.23404H86.6826V11.1183Z" fill="#F4F6F8"/>
<path d="M121.06 9.21162C121.072 9.86357 121.682 10.2454 122.516 10.2454C123.351 10.2454 123.848 9.93724 123.848 9.38351C123.848 8.90345 123.599 8.64561 122.877 8.53388L121.595 8.31288C120.351 8.10416 119.865 7.46325 119.865 6.56575C119.865 5.43373 120.998 4.69583 122.442 4.69583C123.998 4.69583 125.13 5.43373 125.143 6.68975H123.799C123.787 6.05008 123.227 5.69279 122.443 5.69279C121.66 5.69279 121.224 6.00096 121.224 6.51786C121.224 6.97337 121.548 7.18209 122.257 7.30487L123.514 7.52587C124.696 7.7346 125.243 8.31288 125.243 9.26073C125.243 10.5646 124.024 11.2424 122.543 11.2424C120.862 11.2424 119.73 10.4431 119.705 9.21162H121.062H121.06Z" fill="#F4F6F8"/>
<path d="M128.328 9.64229L129.772 4.81833H131.192L132.611 9.64229L133.818 4.81833H135.25L133.446 11.1193H131.914L130.47 6.31991L129.014 11.1193H127.47L125.653 4.81833H127.085L128.329 9.64229H128.328Z" fill="#F4F6F8"/>
<path d="M136.046 2.23398H137.552V3.63733H136.046V2.23398ZM136.12 4.81846H137.476V11.1194H136.12V4.81846Z" fill="#F4F6F8"/>
<path d="M146.102 5.85204C145.044 5.85204 144.322 6.61449 144.322 7.95646C144.322 9.37209 145.069 10.0609 146.064 10.0609C146.86 10.0609 147.447 9.61765 147.707 8.78153H149.152C148.827 10.3077 147.658 11.2432 146.089 11.2432C144.198 11.2432 142.928 9.93933 142.928 7.95769C142.928 5.97605 144.197 4.68442 146.102 4.68442C147.658 4.68442 148.815 5.5586 149.152 7.08351H147.683C147.459 6.2965 146.848 5.85327 146.102 5.85327V5.85204Z" fill="#F4F6F8"/>
<path d="M140.83 9.92461C140.751 9.92461 140.687 9.86077 140.687 9.78342V6.01167H142.169V4.81826H140.687V3.13129H139.331V4.22647C139.331 4.62059 139.207 4.81703 138.808 4.81703H138.261V6.01044H139.331V9.40649C139.331 10.5017 139.941 11.1168 141.049 11.1168H142.156V9.92338H140.831L140.83 9.92461Z" fill="#F4F6F8"/>
<path d="M153.54 4.68218C152.618 4.68218 151.897 5.03946 151.523 5.63003V2.23398H150.167V11.1182H151.523V7.72217C151.523 6.66382 152.108 5.92592 153.191 5.92592C154.137 5.91364 154.722 6.46738 154.722 7.68534V11.1182H156.079V7.47539C156.079 5.32185 154.748 4.68218 153.54 4.68218Z" fill="#F4F6F8"/>
<path d="M77.7174 1.41876H66.2784C63.3632 1.41876 61 3.75532 61 6.63761C61 9.51989 63.3632 11.8565 66.2784 11.8565H77.7174C80.6326 11.8565 82.9958 9.51989 82.9958 6.63761C82.9958 3.75532 80.6326 1.41876 77.7174 1.41876Z" fill="#006DF9"/>
<path d="M78.2672 8.2885C79.1893 8.2885 79.9368 7.54943 79.9368 6.63775C79.9368 5.72607 79.1893 4.987 78.2672 4.987C77.3452 4.987 76.5977 5.72607 76.5977 6.63775C76.5977 7.54943 77.3452 8.2885 78.2672 8.2885Z" fill="white"/>
<path d="M67.5581 7.9248L65.8119 5.24377C65.7726 5.18347 65.6835 5.18347 65.6442 5.24377L63.898 7.9248C63.855 7.99026 63.9028 8.07675 63.9818 8.07675H67.4743C67.5533 8.07675 67.6011 7.99026 67.5581 7.9248Z" fill="white"/>
<path d="M73.3783 5.11356H70.6166C70.5279 5.11356 70.4561 5.1846 70.4561 5.27224V8.00286C70.4561 8.0905 70.5279 8.16155 70.6166 8.16155H73.3783C73.4669 8.16155 73.5388 8.0905 73.5388 8.00286V5.27224C73.5388 5.1846 73.4669 5.11356 73.3783 5.11356Z" fill="white"/>
</svg>
