<svg width="40" height="24" viewBox="0 0 40 24" fill="none" xmlns="http://www.w3.org/2000/svg">
<rect width="40" height="24" rx="2" fill="white"/>
<path d="M16.1668 4H12.7526C11.0938 4 9.97943 5.23243 9.97943 7.06664V12.5521C9.97943 12.5548 9.97969 12.5575 9.98013 12.5602C10.111 13.248 10.7629 13.7665 11.4965 13.7665C12.3064 13.7665 12.9169 13.1373 12.9169 12.3027V9.56337H15.0041V12.267C15.0041 13.8087 13.2093 14.5365 11.9967 14.5428C11.2795 14.5395 10.5766 14.2959 10.0682 13.8742C10.0576 13.8654 10.0431 13.8639 10.0312 13.8705C10.0312 13.8705 10.031 13.8706 10.0309 13.8707C10.0209 13.8651 10.009 13.865 9.99897 13.8705C9.98707 13.8772 9.97949 13.8907 9.97949 13.9056V19.9607C9.97949 19.9823 9.99528 19.9999 10.0149 19.9999H13.5258C14.7636 19.9999 16.2023 18.707 16.2023 17.0401V4.03919C16.2022 4.01745 16.1865 4 16.1668 4Z" fill="#0F549D"/>
<path d="M23.0276 4H19.6456C17.961 4 16.8725 5.18978 16.8725 7.03124V10.13C16.8725 10.1452 16.8804 10.159 16.8928 10.1654C16.9053 10.1718 16.9199 10.1697 16.9305 10.16C17.2257 9.88783 17.7016 9.56344 18.2928 9.56344H21.9293V10.295C21.0463 10.0812 20.2296 9.98382 19.8388 9.98382C18.9134 9.98382 18.1605 10.8163 18.1605 11.8396L18.1608 11.8509L18.1605 11.8752C18.1605 12.8985 18.9134 13.7309 19.8388 13.7309C20.3128 13.7309 21.1382 13.6456 21.9293 13.4554V14.1156H18.2928C17.7697 14.1156 17.2741 13.899 16.9328 13.5214C16.9226 13.5101 16.9074 13.5068 16.8942 13.5129C16.8809 13.519 16.8723 13.5332 16.8723 13.5491V19.9605C16.8723 19.9821 16.8881 19.9996 16.9078 19.9996H20.3862C21.6241 19.9996 23.0629 18.7068 23.0629 17.0399V4.03919C23.063 4.01745 23.0472 4 23.0276 4Z" fill="#B41F36"/>
<path d="M24.8926 13.6563C24.8926 13.6779 24.9086 13.6955 24.9281 13.6955H26.4419C26.8483 13.6955 27.2183 13.2862 27.2183 12.837C27.2183 12.3878 26.8482 11.9786 26.4419 11.9786H24.9281C24.9086 11.9786 24.8926 11.9961 24.8926 12.0178V13.6563Z" fill="#329947"/>
<path d="M29.9851 4H26.6351C25.7434 4 25.0188 4.33347 24.5341 4.92041C24.5341 4.92041 23.8297 5.68018 23.8297 6.93329C23.8297 6.97959 23.8297 7.02357 23.8297 7.06657V9.52424C23.8297 9.54584 23.8455 9.56344 23.8652 9.56344H27.9238C28.4807 9.56344 28.9513 10.0839 28.9513 10.6998C28.9513 11.3157 28.4807 11.8361 27.9238 11.8361C27.9042 11.8361 27.8883 11.8536 27.8883 11.8753C27.8883 11.897 27.9041 11.9145 27.9238 11.9145C28.554 11.9145 29.0478 12.398 29.0478 13.0152C29.0478 13.6427 28.5645 14.116 27.9238 14.116H23.8652C23.8456 14.116 23.8297 14.1335 23.8297 14.1552V19.9608C23.8297 19.9824 23.8455 20 23.8652 20H27.3439C28.5818 20 30.0205 18.7071 30.0205 17.0402V4.03919C30.0205 4.01745 30.0046 4 29.9851 4Z" fill="#329947"/>
<path d="M24.9281 11.6651H26.4419C26.8452 11.6651 27.186 11.2883 27.186 10.8422C27.186 10.393 26.8161 9.98382 26.4099 9.98382H24.9281C24.9086 9.98382 24.8926 10.0013 24.8926 10.023V11.626C24.8926 11.6476 24.9086 11.6651 24.9281 11.6651Z" fill="#329947"/>
</svg>
