<svg width="138" height="15" viewBox="0 0 138 15" fill="none" xmlns="http://www.w3.org/2000/svg">
<g clip-path="url(#clip0_314_28898)">
<path d="M83.053 13.077C82.7632 13.0885 82.4762 13.0604 82.1904 13.0205C81.4093 12.9102 80.6729 12.6631 79.9969 12.2616C78.4885 11.3669 77.5287 10.0715 77.1331 8.37501C77.0445 7.99445 77.0028 7.60754 77.0002 7.21706C76.9881 5.65693 77.5068 4.29441 78.5632 3.13428C79.4736 2.13408 80.608 1.52574 81.9396 1.267C82.3068 1.19557 82.678 1.16026 83.053 1.16938C83.053 1.76165 83.053 2.35352 83.0524 2.94619C83.0365 2.95531 83.02 2.96444 83.0047 2.97456C82.7831 3.12714 82.5668 3.28528 82.3565 3.45333C81.8782 3.8335 81.427 4.24243 81.0459 4.7214C80.5365 5.36427 80.1939 6.07519 80.1496 6.90476C80.1284 7.3002 80.1742 7.68889 80.3025 8.06608C80.6207 8.99585 81.5911 9.9532 82.967 9.98237C83.0516 9.98455 83.0643 9.99923 83.0623 10.0824C83.053 10.4881 83.0524 11.3002 83.0524 11.3002C83.0524 11.3002 83.053 11.3465 83.053 11.3707V13.077Z" fill="#0099FF"/>
<path d="M83.0626 2.94675C83.0626 2.94675 83.0632 1.76202 83.0632 1.16965C83.3919 1.15993 83.7178 1.19327 84.0422 1.24427C84.6485 1.33893 85.2302 1.51495 85.7757 1.79536C86.9102 2.3782 87.8131 3.20036 88.414 4.32734C88.7598 4.97706 88.9878 5.66646 89.0798 6.39575C89.1863 7.24868 89.1036 8.08711 88.8417 8.9065C88.543 9.8396 88.0418 10.654 87.3391 11.3426C86.4844 12.1799 85.4649 12.7185 84.287 12.9594C83.883 13.0417 83.475 13.0842 83.0632 13.0792V11.3728C83.0632 11.3486 83.0644 11.3127 83.0644 11.3127C83.0644 11.3127 83.091 11.2944 83.099 11.2891C83.7308 10.8525 84.3273 10.3748 84.8421 9.80447C85.1787 9.43358 85.469 9.03133 85.6712 8.57271C85.9575 7.923 86.0652 7.25106 85.9231 6.54975C85.6594 5.24972 84.4885 4.28567 83.1419 4.25709C83.0569 4.25709 83.0626 4.18188 83.0626 4.18188V2.94675Z" fill="#0585DD"/>
<path opacity="0.5" fill-rule="evenodd" clip-rule="evenodd" d="M97.1888 9.79307C97.1888 10.1455 97.1303 10.4854 97.0137 10.8128C96.8968 11.1401 96.7236 11.4275 96.4946 11.675C96.2654 11.9226 95.9777 12.1199 95.6318 12.2667C95.2857 12.4135 94.8835 12.4871 94.4251 12.4871C93.6986 12.4871 93.1039 12.3233 92.6411 11.996C92.1783 11.6687 91.8734 11.1485 91.7266 10.4351L93.2574 10.0826C93.3094 10.3764 93.4327 10.6112 93.6272 10.7876C93.8219 10.9637 94.062 11.052 94.3472 11.052C94.8143 11.052 95.1324 10.8989 95.301 10.5924C95.4697 10.2862 95.554 9.86436 95.554 9.32736V3.34766H97.1888V9.79307Z" fill="#2D3241"/>
<path opacity="0.5" fill-rule="evenodd" clip-rule="evenodd" d="M106.206 8.98726C106.206 9.52447 106.111 10.009 105.92 10.4412C105.73 10.8736 105.471 11.2405 105.142 11.5427C104.813 11.8448 104.424 12.0778 103.974 12.2413C103.524 12.4051 103.036 12.4869 102.508 12.4869C101.98 12.4869 101.492 12.4051 101.042 12.2413C100.592 12.0778 100.201 11.8448 99.8678 11.5427C99.5349 11.2405 99.2753 10.8736 99.0894 10.4412C98.9033 10.009 98.8105 9.52447 98.8105 8.98726V3.34766H100.445V8.93694C100.445 9.15522 100.48 9.38377 100.549 9.62302C100.618 9.86205 100.733 10.0824 100.893 10.2839C101.053 10.4852 101.265 10.6511 101.529 10.7811C101.792 10.9113 102.119 10.9763 102.508 10.9763C102.897 10.9763 103.224 10.9113 103.488 10.7811C103.752 10.6511 103.964 10.4852 104.124 10.2839C104.284 10.0824 104.398 9.86205 104.467 9.62302C104.536 9.38377 104.571 9.15522 104.571 8.93694V3.34766H106.206V8.98726Z" fill="#2D3241"/>
<path opacity="0.5" fill-rule="evenodd" clip-rule="evenodd" d="M112.394 5.26111C112.221 5.01788 111.99 4.83944 111.7 4.726C111.41 4.61277 111.105 4.55616 110.786 4.55616C110.595 4.55616 110.411 4.57712 110.234 4.61906C110.057 4.66121 109.897 4.72831 109.754 4.82057C109.611 4.91303 109.497 5.03255 109.41 5.17933C109.324 5.32632 109.281 5.50035 109.281 5.70165C109.281 6.0038 109.389 6.23466 109.605 6.39402C109.821 6.55359 110.089 6.69198 110.409 6.8094C110.729 6.92703 111.079 7.04047 111.46 7.14929C111.841 7.25854 112.191 7.40951 112.511 7.60262C112.831 7.79574 113.099 8.05155 113.316 8.37048C113.532 8.6894 113.64 9.11317 113.64 9.64178C113.64 10.1203 113.549 10.5378 113.368 10.8944C113.186 11.2513 112.941 11.5472 112.634 11.782C112.327 12.0168 111.971 12.1932 111.564 12.3106C111.157 12.428 110.729 12.487 110.28 12.487C109.709 12.487 109.159 12.3945 108.632 12.21C108.104 12.0254 107.65 11.7149 107.27 11.2783L108.502 10.1203C108.701 10.414 108.963 10.6426 109.287 10.8064C109.611 10.9699 109.955 11.0519 110.318 11.0519C110.509 11.0519 110.699 11.0265 110.889 10.9762C111.079 10.9259 111.253 10.8504 111.408 10.7497C111.564 10.6489 111.689 10.5212 111.785 10.3656C111.88 10.2104 111.927 10.0322 111.927 9.8307C111.927 9.50339 111.819 9.25156 111.603 9.07543C111.387 8.89909 111.119 8.75021 110.798 8.6286C110.478 8.50698 110.128 8.39145 109.748 8.28241C109.367 8.17338 109.017 8.02429 108.697 7.83537C108.377 7.64666 108.108 7.39483 107.892 7.0801C107.676 6.76536 107.568 6.34369 107.568 5.81509C107.568 5.35358 107.665 4.95476 107.86 4.61906C108.054 4.28357 108.31 4.00448 108.625 3.78201C108.941 3.55975 109.302 3.39389 109.709 3.28465C110.115 3.17582 110.53 3.12109 110.954 3.12109C111.439 3.12109 111.908 3.19239 112.362 3.33497C112.816 3.47776 113.225 3.71261 113.588 4.03992L112.394 5.26111Z" fill="#2D3241"/>
<path opacity="0.5" fill-rule="evenodd" clip-rule="evenodd" d="M117.637 7.21217C117.87 7.21217 118.112 7.20399 118.363 7.18701C118.614 7.17023 118.845 7.11991 119.057 7.03583C119.269 6.95216 119.442 6.82615 119.576 6.65819C119.71 6.49044 119.777 6.25539 119.777 5.95324C119.777 5.67625 119.717 5.45608 119.596 5.29253C119.474 5.12877 119.319 5.00296 119.129 4.91469C118.938 4.82662 118.726 4.77001 118.493 4.74484C118.259 4.71968 118.034 4.7071 117.818 4.7071H116.65V7.21217H117.637ZM115.016 3.34766H118.104C118.545 3.34766 118.971 3.3898 119.381 3.47347C119.792 3.55755 120.153 3.69824 120.465 3.89535C120.776 4.09245 121.025 4.35686 121.211 4.68836C121.397 5.01987 121.49 5.43315 121.49 5.92821C121.49 6.49058 121.39 6.94391 121.192 7.28779C120.992 7.63209 120.725 7.89838 120.387 8.08709C120.05 8.27602 119.658 8.40413 119.213 8.47123C118.767 8.53833 118.302 8.57188 117.818 8.57188H116.65V12.2602H115.016V3.34766Z" fill="#2D3241"/>
<path opacity="0.5" fill-rule="evenodd" clip-rule="evenodd" d="M126.705 8.86164L125.291 5.23624L123.85 8.86164H126.705ZM124.629 3.34766H126.043L130 12.2604H128.132L127.276 10.221H123.293L122.462 12.2604H120.633L124.629 3.34766Z" fill="#2D3241"/>
<path opacity="0.5" fill-rule="evenodd" clip-rule="evenodd" d="M131.986 8.44607L128.535 3.34766H130.585L132.843 6.89778L135.126 3.34766H137.072L133.621 8.44607V12.2604H131.986V8.44607Z" fill="#2D3241"/>
</g>
<path opacity="0.5" d="M4.69238 12.096C4.06038 12.096 3.44838 12 2.85638 11.808C2.27238 11.608 1.81238 11.352 1.47638 11.04L1.92038 10.104C2.24038 10.392 2.64838 10.628 3.14438 10.812C3.64838 10.988 4.16438 11.076 4.69238 11.076C5.38838 11.076 5.90838 10.96 6.25238 10.728C6.59638 10.488 6.76838 10.172 6.76838 9.78C6.76838 9.492 6.67238 9.26 6.48038 9.084C6.29638 8.9 6.06438 8.76 5.78438 8.664C5.51238 8.568 5.12438 8.46 4.62038 8.34C3.98838 8.188 3.47638 8.036 3.08438 7.884C2.70038 7.732 2.36838 7.5 2.08838 7.188C1.81638 6.868 1.68038 6.44 1.68038 5.904C1.68038 5.456 1.79638 5.052 2.02838 4.692C2.26838 4.332 2.62838 4.044 3.10838 3.828C3.58838 3.612 4.18438 3.504 4.89638 3.504C5.39238 3.504 5.88038 3.568 6.36038 3.696C6.84038 3.824 7.25238 4.008 7.59637 4.248L7.20038 5.208C6.84838 4.984 6.47238 4.816 6.07238 4.704C5.67238 4.584 5.28038 4.524 4.89638 4.524C4.21638 4.524 3.70438 4.648 3.36038 4.896C3.02438 5.144 2.85638 5.464 2.85638 5.856C2.85638 6.144 2.95238 6.38 3.14438 6.564C3.33638 6.74 3.57238 6.88 3.85238 6.984C4.14038 7.08 4.52838 7.184 5.01638 7.296C5.64838 7.448 6.15638 7.6 6.54038 7.752C6.92438 7.904 7.25238 8.136 7.52438 8.448C7.80438 8.76 7.94438 9.18 7.94438 9.708C7.94438 10.148 7.82438 10.552 7.58438 10.92C7.34438 11.28 6.98038 11.568 6.49238 11.784C6.00438 11.992 5.40438 12.096 4.69238 12.096ZM15.2775 8.856C15.2775 8.944 15.2695 9.06 15.2535 9.204H10.0935C10.1655 9.764 10.4095 10.216 10.8255 10.56C11.2495 10.896 11.7735 11.064 12.3975 11.064C13.1575 11.064 13.7695 10.808 14.2335 10.296L14.8695 11.04C14.5815 11.376 14.2215 11.632 13.7895 11.808C13.3655 11.984 12.8895 12.072 12.3615 12.072C11.6895 12.072 11.0935 11.936 10.5735 11.664C10.0535 11.384 9.6495 10.996 9.3615 10.5C9.0815 10.004 8.9415 9.444 8.9415 8.82C8.9415 8.204 9.0775 7.648 9.3495 7.152C9.6295 6.656 10.0095 6.272 10.4895 6C10.9775 5.72 11.5255 5.58 12.1335 5.58C12.7415 5.58 13.2815 5.72 13.7535 6C14.2335 6.272 14.6055 6.656 14.8695 7.152C15.1415 7.648 15.2775 8.216 15.2775 8.856ZM12.1335 6.552C11.5815 6.552 11.1175 6.72 10.7415 7.056C10.3735 7.392 10.1575 7.832 10.0935 8.376H14.1735C14.1095 7.84 13.8895 7.404 13.5135 7.068C13.1455 6.724 12.6855 6.552 12.1335 6.552ZM19.6492 12.072C19.0012 12.072 18.4212 11.932 17.9092 11.652C17.4052 11.372 17.0092 10.988 16.7212 10.5C16.4332 10.004 16.2892 9.444 16.2892 8.82C16.2892 8.196 16.4332 7.64 16.7212 7.152C17.0092 6.656 17.4052 6.272 17.9092 6C18.4212 5.72 19.0012 5.58 19.6492 5.58C20.2252 5.58 20.7372 5.696 21.1852 5.928C21.6412 6.16 21.9932 6.496 22.2412 6.936L21.3652 7.5C21.1652 7.196 20.9172 6.968 20.6212 6.816C20.3252 6.664 19.9972 6.588 19.6372 6.588C19.2212 6.588 18.8452 6.68 18.5092 6.864C18.1812 7.048 17.9212 7.312 17.7292 7.656C17.5452 7.992 17.4532 8.38 17.4532 8.82C17.4532 9.268 17.5452 9.664 17.7292 10.008C17.9212 10.344 18.1812 10.604 18.5092 10.788C18.8452 10.972 19.2212 11.064 19.6372 11.064C19.9972 11.064 20.3252 10.988 20.6212 10.836C20.9172 10.684 21.1652 10.456 21.3652 10.152L22.2412 10.704C21.9932 11.144 21.6412 11.484 21.1852 11.724C20.7372 11.956 20.2252 12.072 19.6492 12.072ZM29.6606 5.64V12H28.5686V11.04C28.3366 11.368 28.0286 11.624 27.6446 11.808C27.2686 11.984 26.8566 12.072 26.4086 12.072C25.5606 12.072 24.8926 11.84 24.4046 11.376C23.9166 10.904 23.6726 10.212 23.6726 9.3V5.64H24.8246V9.168C24.8246 9.784 24.9726 10.252 25.2686 10.572C25.5646 10.884 25.9886 11.04 26.5406 11.04C27.1486 11.04 27.6286 10.856 27.9806 10.488C28.3326 10.12 28.5086 9.6 28.5086 8.928V5.64H29.6606ZM32.9577 6.708C33.1577 6.34 33.4537 6.06 33.8457 5.868C34.2377 5.676 34.7137 5.58 35.2737 5.58V6.696C35.2097 6.688 35.1217 6.684 35.0097 6.684C34.3857 6.684 33.8937 6.872 33.5337 7.248C33.1817 7.616 33.0057 8.144 33.0057 8.832V12H31.8537V5.64H32.9577V6.708ZM42.383 8.856C42.383 8.944 42.375 9.06 42.359 9.204H37.199C37.271 9.764 37.515 10.216 37.931 10.56C38.355 10.896 38.879 11.064 39.503 11.064C40.263 11.064 40.875 10.808 41.339 10.296L41.975 11.04C41.687 11.376 41.327 11.632 40.895 11.808C40.471 11.984 39.995 12.072 39.467 12.072C38.795 12.072 38.199 11.936 37.679 11.664C37.159 11.384 36.755 10.996 36.467 10.5C36.187 10.004 36.047 9.444 36.047 8.82C36.047 8.204 36.183 7.648 36.455 7.152C36.735 6.656 37.115 6.272 37.595 6C38.083 5.72 38.631 5.58 39.239 5.58C39.847 5.58 40.387 5.72 40.859 6C41.339 6.272 41.711 6.656 41.975 7.152C42.247 7.648 42.383 8.216 42.383 8.856ZM39.239 6.552C38.687 6.552 38.223 6.72 37.847 7.056C37.479 7.392 37.263 7.832 37.199 8.376H41.279C41.215 7.84 40.995 7.404 40.619 7.068C40.251 6.724 39.791 6.552 39.239 6.552ZM49.9826 3.096V12H48.8786V10.992C48.6226 11.344 48.2986 11.612 47.9066 11.796C47.5146 11.98 47.0826 12.072 46.6106 12.072C45.9946 12.072 45.4426 11.936 44.9546 11.664C44.4666 11.392 44.0826 11.012 43.8026 10.524C43.5306 10.028 43.3946 9.46 43.3946 8.82C43.3946 8.18 43.5306 7.616 43.8026 7.128C44.0826 6.64 44.4666 6.26 44.9546 5.988C45.4426 5.716 45.9946 5.58 46.6106 5.58C47.0666 5.58 47.4866 5.668 47.8706 5.844C48.2546 6.012 48.5746 6.264 48.8306 6.6V3.096H49.9826ZM46.7066 11.064C47.1066 11.064 47.4706 10.972 47.7986 10.788C48.1266 10.596 48.3826 10.332 48.5666 9.996C48.7506 9.652 48.8426 9.26 48.8426 8.82C48.8426 8.38 48.7506 7.992 48.5666 7.656C48.3826 7.312 48.1266 7.048 47.7986 6.864C47.4706 6.68 47.1066 6.588 46.7066 6.588C46.2986 6.588 45.9306 6.68 45.6026 6.864C45.2826 7.048 45.0266 7.312 44.8346 7.656C44.6506 7.992 44.5586 8.38 44.5586 8.82C44.5586 9.26 44.6506 9.652 44.8346 9.996C45.0266 10.332 45.2826 10.596 45.6026 10.788C45.9306 10.972 46.2986 11.064 46.7066 11.064ZM58.757 5.58C59.373 5.58 59.925 5.716 60.413 5.988C60.901 6.26 61.281 6.64 61.553 7.128C61.833 7.616 61.973 8.18 61.973 8.82C61.973 9.46 61.833 10.028 61.553 10.524C61.281 11.012 60.901 11.392 60.413 11.664C59.925 11.936 59.373 12.072 58.757 12.072C58.285 12.072 57.853 11.98 57.461 11.796C57.069 11.612 56.745 11.344 56.489 10.992V12H55.385V3.096H56.537V6.6C56.793 6.264 57.113 6.012 57.497 5.844C57.881 5.668 58.301 5.58 58.757 5.58ZM58.661 11.064C59.069 11.064 59.433 10.972 59.753 10.788C60.081 10.596 60.337 10.332 60.521 9.996C60.713 9.652 60.809 9.26 60.809 8.82C60.809 8.38 60.713 7.992 60.521 7.656C60.337 7.312 60.081 7.048 59.753 6.864C59.433 6.68 59.069 6.588 58.661 6.588C58.261 6.588 57.897 6.68 57.569 6.864C57.241 7.048 56.985 7.312 56.801 7.656C56.617 7.992 56.525 8.38 56.525 8.82C56.525 9.26 56.617 9.652 56.801 9.996C56.985 10.332 57.241 10.596 57.569 10.788C57.897 10.972 58.261 11.064 58.661 11.064ZM69.0169 5.64L65.9329 12.636C65.6609 13.284 65.3409 13.74 64.9729 14.004C64.6129 14.268 64.1769 14.4 63.6649 14.4C63.3529 14.4 63.0489 14.348 62.7529 14.244C62.4649 14.148 62.2249 14.004 62.0329 13.812L62.5249 12.948C62.8529 13.26 63.2329 13.416 63.6649 13.416C63.9449 13.416 64.1769 13.34 64.3609 13.188C64.5529 13.044 64.7249 12.792 64.8769 12.432L65.0809 11.988L62.2729 5.64H63.4729L65.6929 10.728L67.8889 5.64H69.0169Z" fill="#2D3241"/>
<defs>
<clipPath id="clip0_314_28898">
<rect width="60.6667" height="14" fill="white" transform="translate(77)"/>
</clipPath>
</defs>
</svg>
