<?xml version="1.0" encoding="UTF-8"?>
<!--
Font Awesome Free 5.15.1 by @fontawesome - https://fontawesome.com
License - https://fontawesome.com/license/free (Icons: CC BY 4.0, Fonts: SIL OFL 1.1, Code: MIT License)
-->
<svg xmlns="http://www.w3.org/2000/svg" style="display: none;">

    <symbol id="visa" viewBox="0 0 780 500">
        <path
            d="m40 0h700c22.092 0 40 17.909 40 40v420c0 22.092-17.908 40-40 40h-700c-22.091 0-40-17.908-40-40v-420c0-22.091 17.909-40 40-40z"
            fill="#0e4595" />
        <path
            d="m293.2 348.73 33.361-195.76h53.36l-33.385 195.76zm246.11-191.54c-10.57-3.966-27.137-8.222-47.822-8.222-52.725 0-89.865 26.55-90.18 64.603-.299 28.13 26.514 43.822 46.752 53.186 20.771 9.595 27.752 15.714 27.654 24.283-.131 13.121-16.586 19.116-31.922 19.116-21.357 0-32.703-2.967-50.227-10.276l-6.876-3.11-7.489 43.823c12.463 5.464 35.51 10.198 59.438 10.443 56.09 0 92.5-26.246 92.916-66.882.199-22.269-14.016-39.216-44.801-53.188-18.65-9.055-30.072-15.099-29.951-24.268 0-8.137 9.668-16.839 30.557-16.839 17.449-.27 30.09 3.535 39.938 7.5l4.781 2.26zm137.31-4.223h-41.232c-12.773 0-22.332 3.487-27.941 16.234l-79.244 179.4h56.031s9.16-24.123 11.232-29.418c6.125 0 60.555.084 68.338.084 1.596 6.853 6.49 29.334 6.49 29.334h49.514l-43.188-195.64zm-65.418 126.41c4.412-11.279 21.26-54.723 21.26-54.723-.316.522 4.379-11.334 7.074-18.684l3.605 16.879s10.219 46.729 12.354 56.528zm-363.3-126.41-52.24 133.5-5.567-27.13c-9.725-31.273-40.025-65.155-73.898-82.118l47.766 171.2 56.456-.064 84.004-195.39h-56.521"
            fill="#fff" />
        <path
            d="m146.92 152.96h-86.041l-.681 4.073c66.938 16.204 111.23 55.363 129.62 102.41l-18.71-89.96c-3.23-12.395-12.597-16.094-24.186-16.527"
            fill="#f2ae14" />
    </symbol>


    <symbol id="mastercard" viewBox="0 0 780 500">
        <path
            d="m449.01 250c0 99.143-80.371 179.5-179.51 179.5s-179.5-80.361-179.5-179.5c0-99.133 80.362-179.5 179.5-179.5 99.137 0 179.51 80.371 179.51 179.5"
            fill="#d9222a" />
        <path
            d="m510.49 70.496c-46.379 0-88.643 17.596-120.5 46.467-6.49 5.889-12.548 12.237-18.125 18.996h36.267c4.965 6.037 9.536 12.387 13.685 19.012h-63.635c-3.827 6.122-7.281 12.469-10.342 19.008h84.313c2.894 6.185 5.431 12.53 7.601 19.004h-99.513c-2.09 6.234-3.832 12.58-5.217 19.008h109.94c2.689 12.49 4.045 25.231 4.042 38.008 0 19.935-3.254 39.112-9.254 57.021h-99.513c2.164 6.477 4.7 12.824 7.596 19.008h84.316c-3.063 6.541-6.519 12.889-10.347 19.013h-63.625c4.147 6.62 8.719 12.966 13.685 18.996h36.259c-5.57 6.772-11.63 13.127-18.13 19.013 31.857 28.866 74.117 46.454 120.5 46.454 99.139 0 179.51-80.361 179.51-179.5 0-99.129-80.371-179.5-179.51-179.5"
            fill="#ee9f2d" />
        <path
            d="m666.07 350.06c0-3.199 2.592-5.801 5.796-5.801s5.796 2.602 5.796 5.801-2.592 5.801-5.796 5.801-5.796-2.602-5.796-5.801zm5.796 4.408c2.434-.001 4.407-1.974 4.408-4.408 0-2.432-1.971-4.402-4.402-4.404h-.006c-2.429-.003-4.4 1.963-4.404 4.391v.014c-.002 2.433 1.968 4.406 4.4 4.408.001-.001.003-.001.004-.001zm-.783-1.86h-1.187v-5.096h2.149c.45 0 .908 0 1.305.254.413.279.646.771.646 1.279 0 .571-.338 1.104-.884 1.312l.938 2.25h-1.315l-.779-2.017h-.871zm0-2.89h.658c.246 0 .505.021.726-.1.195-.125.296-.359.296-.584-.005-.209-.112-.402-.288-.518-.207-.129-.536-.101-.758-.101h-.634zm-443.5-80.063c-2.046-.238-2.945-.301-4.35-.301-11.046 0-16.638 3.787-16.638 11.268 0 4.611 2.729 7.545 6.987 7.545 7.939 0 13.659-7.559 14.001-18.512zm14.171 32.996h-16.146l.371-7.676c-4.926 6.065-11.496 8.949-20.426 8.949-10.563 0-17.804-8.25-17.804-20.229 0-18.024 12.596-28.541 34.217-28.541 2.208 0 5.042.199 7.941.57.604-2.441.763-3.488.763-4.801 0-4.908-3.396-6.737-12.5-6.737-9.533-.108-17.396 2.271-20.625 3.333.204-1.229 2.7-16.659 2.7-16.659 9.712-2.846 16.116-3.917 23.325-3.917 16.732 0 25.596 7.513 25.579 21.712.033 3.805-.597 8.5-1.579 14.671-1.691 10.734-5.32 33.721-5.816 39.325zm-62.158 0h-19.487l11.162-69.997-24.925 69.997h-13.279l-1.642-69.597-11.733 69.597h-18.242l15.237-91.056h28.021l1.7 50.968 17.092-50.968h31.167zm354.97-32.996c-2.037-.238-2.941-.301-4.342-.301-11.041 0-16.634 3.787-16.634 11.268 0 4.611 2.726 7.545 6.983 7.545 7.94 0 13.664-7.559 13.993-18.512zm14.184 32.996h-16.146l.366-7.676c-4.926 6.065-11.5 8.949-20.422 8.949-10.565 0-17.8-8.25-17.8-20.229 0-18.024 12.588-28.541 34.213-28.541 2.208 0 5.037.199 7.934.57.604-2.441.763-3.488.763-4.801 0-4.908-3.392-6.737-12.496-6.737-9.533-.108-17.387 2.271-20.629 3.333.204-1.229 2.709-16.659 2.709-16.659 9.712-2.846 16.112-3.917 23.313-3.917 16.74 0 25.604 7.513 25.587 21.712.032 3.805-.597 8.5-1.579 14.671-1.684 10.734-5.321 33.721-5.813 39.325zm-220.39-1.125c-5.333 1.679-9.491 2.398-14 2.398-9.962 0-15.399-5.725-15.399-16.267-.142-3.271 1.433-11.88 2.671-19.737 1.125-6.917 8.449-50.529 8.449-50.529h19.371l-2.263 11.208h11.699l-2.642 17.796h-11.742c-2.25 14.083-5.454 31.625-5.491 33.95 0 3.816 2.037 5.483 6.671 5.483 2.221 0 3.94-.227 5.254-.7zm59.392-.6c-6.654 2.034-13.075 3.017-19.879 3-21.684-.021-32.987-11.346-32.987-33.032 0-25.313 14.38-43.947 33.899-43.947 15.971 0 26.171 10.433 26.171 26.796 0 5.429-.7 10.729-2.388 18.212h-38.574c-1.305 10.741 5.57 15.217 16.837 15.217 6.935 0 13.188-1.429 20.142-4.663zm-10.888-43.9c.107-1.543 2.055-13.217-9.013-13.217-6.171 0-10.583 4.704-12.38 13.217zm-123.42-5.017c0 9.367 4.542 15.826 14.842 20.676 7.892 3.709 9.112 4.81 9.112 8.17 0 4.617-3.479 6.701-11.191 6.701-5.813 0-11.221-.908-17.458-2.922 0 0-2.563 16.321-2.68 17.102 4.43.967 8.38 1.861 20.279 2.19 20.563 0 30.059-7.829 30.059-24.75 0-10.175-3.976-16.146-13.737-20.634-8.171-3.75-9.108-4.587-9.108-8.045 0-4.004 3.237-6.046 9.537-6.046 3.825 0 9.05.408 14 1.112l2.775-17.175c-5.046-.8-12.696-1.442-17.15-1.442-21.801.001-29.347 11.388-29.28 25.063m229.09-23.116c5.412 0 10.458 1.421 17.412 4.921l3.188-19.763c-2.854-1.121-12.904-7.7-21.417-7.7-13.041 0-24.065 6.471-31.82 17.15-11.309-3.746-15.958 3.825-21.657 11.367l-5.063 1.179c.383-2.483.729-4.95.612-7.446h-17.896c-2.445 22.917-6.778 46.128-10.171 69.075l-.884 4.976h19.496c3.254-21.143 5.037-34.68 6.121-43.842l7.341-4.084c1.097-4.078 4.529-5.458 11.417-5.291-.926 5.008-1.389 10.091-1.383 15.184 0 24.225 13.07 39.308 34.05 39.308 5.404 0 10.041-.712 17.221-2.658l3.43-20.759c-6.458 3.181-11.759 4.677-16.559 4.677-11.329 0-18.184-8.363-18.184-22.185 0-20.051 10.196-34.109 24.746-34.109" />
        <path
            d="m185.21 297.24h-19.491l11.171-69.988-24.926 69.988h-13.283l-1.642-69.588-11.733 69.588h-18.241l15.237-91.042h28.021l.788 56.362 18.904-56.362h30.267z"
            fill="#fff" />
        <path
            d="m647.52 211.6-4.321 26.309c-5.329-7.013-11.054-12.088-18.612-12.088-9.833 0-18.783 7.455-24.642 18.425-8.158-1.692-16.597-4.563-16.597-4.563l-.004.067c.658-6.134.921-9.875.862-11.146h-17.9c-2.438 22.917-6.771 46.128-10.157 69.075l-.893 4.976h19.492c2.633-17.096 4.648-31.291 6.133-42.551 6.658-6.016 9.992-11.266 16.721-10.916-2.979 7.205-4.725 15.503-4.725 24.017 0 18.513 9.366 30.725 23.533 30.725 7.142 0 12.621-2.462 17.967-8.171l-.913 6.884h18.435l14.842-91.042zm-24.371 73.941c-6.634 0-9.983-4.908-9.983-14.596 0-14.555 6.271-24.875 15.112-24.875 6.695 0 10.32 5.104 10.32 14.509.001 14.679-6.37 24.962-15.449 24.962z" />
        <path
            d="m233.19 264.26c-2.042-.236-2.946-.299-4.346-.299-11.046 0-16.634 3.787-16.634 11.266 0 4.604 2.729 7.547 6.979 7.547 7.947-.001 13.668-7.559 14.001-18.514zm14.178 32.984h-16.146l.367-7.663c-4.921 6.054-11.5 8.95-20.421 8.95-10.567 0-17.805-8.25-17.805-20.229 0-18.032 12.592-28.542 34.217-28.542 2.208 0 5.042.2 7.938.571.604-2.441.763-3.487.763-4.808 0-4.909-3.392-6.729-12.496-6.729-9.537-.108-17.396 2.271-20.629 3.321.204-1.225 2.7-16.637 2.7-16.637 9.708-2.858 16.12-3.929 23.32-3.929 16.737 0 25.604 7.517 25.588 21.704.029 3.821-.604 8.513-1.584 14.675-1.687 10.724-5.319 33.724-5.812 39.316zm261.38-88.592-3.191 19.767c-6.95-3.496-12-4.92-17.407-4.92-14.551 0-24.75 14.058-24.75 34.106 0 13.821 6.857 22.181 18.184 22.181 4.8 0 10.096-1.492 16.554-4.675l-3.421 20.75c-7.184 1.957-11.816 2.67-17.225 2.67-20.977 0-34.051-15.084-34.051-39.309 0-32.55 18.059-55.3 43.888-55.3 8.507.001 18.561 3.609 21.419 4.73m31.443 55.608c-2.041-.236-2.941-.299-4.347-.299-11.041 0-16.633 3.787-16.633 11.266 0 4.604 2.729 7.547 6.983 7.547 7.938-.001 13.663-7.559 13.997-18.514zm14.178 32.984h-16.15l.371-7.663c-4.925 6.054-11.5 8.95-20.421 8.95-10.563 0-17.804-8.25-17.804-20.229 0-18.032 12.596-28.542 34.212-28.542 2.213 0 5.042.2 7.941.571.601-2.441.763-3.487.763-4.808 0-4.909-3.393-6.729-12.495-6.729-9.533-.108-17.396 2.271-20.63 3.321.204-1.225 2.704-16.637 2.704-16.637 9.709-2.858 16.116-3.929 23.316-3.929 16.741 0 25.604 7.517 25.583 21.704.033 3.821-.596 8.513-1.579 14.675-1.682 10.724-5.323 33.724-5.811 39.316zm-220.39-1.121c-5.338 1.679-9.496 2.408-14 2.408-9.962 0-15.399-5.726-15.399-16.268-.138-3.279 1.438-11.88 2.675-19.736 1.12-6.926 8.445-50.534 8.445-50.534h19.368l-2.26 11.212h9.941l-2.646 17.788h-9.975c-2.25 14.092-5.463 31.62-5.496 33.95 0 3.83 2.041 5.482 6.671 5.482 2.221 0 3.938-.216 5.254-.691zm59.391-.592c-6.65 2.033-13.079 3.012-19.879 3-21.685-.021-32.987-11.346-32.987-33.033 0-25.321 14.379-43.95 33.899-43.95 15.971 0 26.171 10.429 26.171 26.8 0 5.434-.7 10.733-2.384 18.212h-38.574c-1.306 10.741 5.569 15.222 16.837 15.222 6.93 0 13.188-1.435 20.138-4.677zm-10.891-43.912c.116-1.538 2.06-13.217-9.013-13.217-6.167 0-10.579 4.717-12.375 13.217zm-123.42-5.005c0 9.367 4.542 15.818 14.842 20.675 7.892 3.709 9.112 4.812 9.112 8.172 0 4.616-3.483 6.699-11.188 6.699-5.816 0-11.225-.908-17.467-2.921 0 0-2.554 16.321-2.671 17.101 4.421.967 8.375 1.85 20.275 2.191 20.566 0 30.059-7.829 30.059-24.746 0-10.18-3.971-16.15-13.737-20.637-8.167-3.759-9.113-4.584-9.113-8.046 0-4 3.246-6.059 9.542-6.059 3.821 0 9.046.421 14.004 1.125l2.771-17.179c-5.042-.8-12.692-1.441-17.146-1.441-21.804 0-29.346 11.379-29.283 25.066m398.45 50.63h-18.438l.917-6.893c-5.347 5.717-10.825 8.18-17.968 8.18-14.166 0-23.528-12.213-23.528-30.726 0-24.63 14.521-45.392 31.708-45.392 7.559 0 13.279 3.087 18.604 10.096l4.325-26.308h19.221zm-28.746-17.109c9.075 0 15.45-10.283 15.45-24.953 0-9.405-3.629-14.509-10.325-14.509-8.837 0-15.115 10.315-15.115 24.875-.001 9.686 3.357 14.587 9.99 14.587zm-56.842-56.929c-2.441 22.917-6.773 46.13-10.162 69.063l-.892 4.976h19.491c6.972-45.275 8.658-54.117 19.588-53.009 1.742-9.267 4.982-17.383 7.399-21.479-8.163-1.7-12.721 2.913-18.688 11.675.471-3.788 1.333-7.467 1.162-11.225zm-160.42 0c-2.446 22.917-6.779 46.13-10.167 69.063l-.888 4.976h19.5c6.963-45.275 8.646-54.117 19.57-53.009 1.75-9.267 4.991-17.383 7.399-21.479-8.154-1.7-12.717 2.913-18.679 11.675.471-3.788 1.324-7.467 1.162-11.225zm254.57 68.241c-.004-3.199 2.586-5.795 5.784-5.799h.012c3.197-.004 5.793 2.586 5.796 5.783v.016c-.001 3.201-2.595 5.795-5.796 5.797-3.201-.002-5.795-2.596-5.796-5.797zm5.796 4.405c2.431.002 4.402-1.969 4.403-4.399v-.004c.003-2.433-1.968-4.406-4.399-4.408h-.004c-2.435.001-4.407 1.974-4.408 4.408.002 2.432 1.975 4.403 4.408 4.403zm-.784-1.871h-1.188v-5.082h2.153c.446 0 .909.009 1.296.254.417.283.654.767.654 1.274 0 .575-.337 1.112-.888 1.317l.941 2.236h-1.32l-.779-2.009h-.87zm0-2.879h.653c.246 0 .513.019.729-.1.196-.125.296-.361.296-.588-.009-.21-.114-.404-.287-.523-.204-.117-.542-.084-.763-.084h-.629z"
            fill="#fff" />
    </symbol>
    <symbol id="amex" viewBox="0 0 780 500">

        <path
            d="m40 .001h700c22.092 0 40 17.909 40 40v420c0 22.092-17.908 40-40 40h-700c-22.091 0-40-17.908-40-40v-420c0-22.091 17.909-40 40-40z"
            fill="#2557d6" />
        <path
            d="m.253 235.69h37.441l8.442-19.51h18.9l8.42 19.51h73.668v-14.915l6.576 14.98h38.243l6.576-15.202v15.138h183.08l-.085-32.026h3.542c2.479.083 3.204.302 3.204 4.226v27.8h94.689v-7.455c7.639 3.92 19.518 7.455 35.148 7.455h39.836l8.525-19.51h18.9l8.337 19.51h76.765v-18.532l11.626 18.532h61.515v-122.51h-60.88v14.468l-8.522-14.468h-62.471v14.468l-7.828-14.468h-84.38c-14.123 0-26.539 1.889-36.569 7.153v-7.153h-58.229v7.153c-6.383-5.426-15.079-7.153-24.75-7.153h-212.74l-14.274 31.641-14.659-31.641h-67.005v14.468l-7.362-14.468h-57.145l-26.539 58.246v64.261h.003zm236.34-17.67h-22.464l-.083-68.794-31.775 68.793h-19.24l-31.858-68.854v68.854h-44.57l-8.42-19.592h-45.627l-8.505 19.592h-23.801l39.241-87.837h32.559l37.269 83.164v-83.164h35.766l28.678 59.587 26.344-59.587h36.485zm-165.9-37.823-14.998-35.017-14.915 35.017zm255.3 37.821h-73.203v-87.837h73.203v18.291h-51.289v15.833h50.06v18.005h-50.061v17.542h51.289zm103.16-64.18c0 14.004-9.755 21.24-15.439 23.412 4.794 1.748 8.891 4.838 10.84 7.397 3.094 4.369 3.628 8.271 3.628 16.116v17.255h-22.104l-.083-11.077c0-5.285.528-12.886-3.458-17.112-3.202-3.09-8.083-3.76-15.973-3.76h-23.523v31.95h-21.914v-87.838h50.401c11.199 0 19.451.283 26.535 4.207 6.933 3.924 11.09 9.652 11.09 19.45zm-27.699 13.042c-3.013 1.752-6.573 1.81-10.841 1.81h-26.62v-19.51h26.982c3.818 0 7.804.164 10.393 1.584 2.842 1.28 4.601 4.003 4.601 7.765 0 3.84-1.674 6.929-4.515 8.351zm62.844 51.138h-22.358v-87.837h22.358zm259.56 0h-31.053l-41.535-65.927v65.927h-44.628l-8.527-19.592h-45.521l-8.271 19.592h-25.648c-10.649 0-24.138-2.257-31.773-9.715-7.701-7.458-11.708-17.56-11.708-33.533 0-13.027 2.395-24.936 11.812-34.347 7.085-7.01 18.18-10.242 33.28-10.242h21.215v18.821h-20.771c-7.997 0-12.514 1.14-16.862 5.203-3.735 3.699-6.298 10.69-6.298 19.897 0 9.41 1.951 16.196 6.023 20.628 3.373 3.476 9.506 4.53 15.272 4.53h9.842l30.884-69.076h32.835l37.102 83.081v-83.08h33.366l38.519 61.174v-61.174h22.445zm-133.2-37.82-15.165-35.017-15.081 35.017zm189.04 178.08c-5.322 7.457-15.694 11.238-29.736 11.238h-42.319v-18.84h42.147c4.181 0 7.106-.527 8.868-2.175 1.665-1.474 2.605-3.554 2.591-5.729 0-2.561-1.064-4.593-2.677-5.811-1.59-1.342-3.904-1.95-7.722-1.95-20.574-.67-46.244.608-46.244-27.194 0-12.742 8.443-26.156 31.439-26.156h43.649v-17.479h-40.557c-12.237 0-21.129 2.81-27.425 7.174v-7.175h-59.985c-9.595 0-20.854 2.279-26.179 7.175v-7.175h-107.12v7.175c-8.524-5.892-22.908-7.175-29.549-7.175h-70.656v7.175c-6.745-6.258-21.742-7.175-30.886-7.175h-79.077l-18.094 18.764-16.949-18.764h-118.13v122.59h115.9l18.646-19.062 17.565 19.062 71.442.061v-28.838h7.021c9.479.14 20.66-.228 30.523-4.312v33.085h58.928v-31.952h2.842c3.628 0 3.985.144 3.985 3.615v28.333h179.01c11.364 0 23.244-2.786 29.824-7.845v7.845h56.78c11.815 0 23.354-1.587 32.134-5.649l.002-22.84zm-354.94-47.155c0 24.406-19.005 29.445-38.159 29.445h-27.343v29.469h-42.591l-26.984-29.086-28.042 29.086h-86.802v-87.859h88.135l26.961 28.799 27.875-28.799h70.021c17.389 0 36.929 4.613 36.929 28.945zm-174.22 40.434h-53.878v-17.48h48.11v-17.926h-48.11v-15.974h54.939l23.969 25.604zm86.81 10.06-33.644-35.789 33.644-34.65zm49.757-39.066h-28.318v-22.374h28.572c7.912 0 13.404 3.09 13.404 10.772 0 7.599-5.238 11.602-13.658 11.602zm148.36-40.373h73.138v18.17h-51.315v15.973h50.062v17.926h-50.062v17.48l51.314.08v18.23h-73.139zm-28.119 47.029c4.878 1.725 8.865 4.816 10.734 7.375 3.095 4.291 3.542 8.294 3.631 16.037v17.418h-22.002v-10.992c0-5.286.531-13.112-3.542-17.198-3.201-3.147-8.083-3.899-16.076-3.899h-23.42v32.09h-22.02v-87.859h50.594c11.093 0 19.173.47 26.366 4.146 6.915 4.004 11.266 9.487 11.266 19.511-.001 14.022-9.764 21.178-15.531 23.371zm-12.385-11.107c-2.932 1.667-6.556 1.811-10.818 1.811h-26.622v-19.732h26.982c3.902 0 7.807.08 10.458 1.587 2.84 1.423 4.538 4.146 4.538 7.903 0 3.758-1.699 6.786-4.538 8.431zm197.82 5.597c4.27 4.229 6.554 9.571 6.554 18.613 0 18.9-12.322 27.723-34.425 27.723h-42.68v-18.84h42.51c4.157 0 7.104-.525 8.95-2.175 1.508-1.358 2.589-3.333 2.589-5.729 0-2.561-1.17-4.592-2.675-5.811-1.675-1.34-3.986-1.949-7.803-1.949-20.493-.67-46.157.609-46.157-27.192 0-12.744 8.355-26.158 31.33-26.158h43.932v18.7h-40.198c-3.984 0-6.575.145-8.779 1.587-2.4 1.422-3.29 3.534-3.29 6.319 0 3.314 2.037 5.57 4.795 6.546 2.311.77 4.795.995 8.526.995l11.797.306c11.895.276 20.061 2.248 25.024 7.065zm86.955-23.52h-39.938c-3.986 0-6.638.144-8.867 1.587-2.312 1.423-3.202 3.534-3.202 6.322 0 3.314 1.951 5.568 4.791 6.544 2.312.771 4.795.996 8.444.996l11.878.304c11.983.284 19.982 2.258 24.86 7.072.891.67 1.422 1.422 2.033 2.175v-25z"
            fill="#fff" />

    </symbol>

    <symbol id="maestro" viewBox="0 0 780 500">


        <path
            d="m690 250.01c0 99.133-80.351 179.5-179.48 179.5-99.12 0-179.48-80.361-179.48-179.5 0-99.142 80.358-179.51 179.48-179.51 99.133 0 179.48 80.367 179.48 179.51"
            fill="#d9222a" />
        <path
            d="m371.87 363.99c-4.97-6.029-9.538-12.38-13.675-19.01h63.611c3.829-6.122 7.282-12.472 10.343-19.013h-84.292c-2.894-6.183-5.43-12.526-7.597-19h99.477c5.986-17.903 9.229-37.05 9.229-56.962 0-13.046-1.392-25.763-4.028-38.013h-109.86c1.385-6.427 3.123-12.773 5.209-19.008h99.44c-2.171-6.472-4.706-12.817-7.592-19.004h-84.254c3.063-6.537 6.516-12.884 10.337-19.009h63.571c-4.144-6.618-8.71-12.962-13.671-18.991h-36.224c5.569-6.763 11.623-13.113 18.112-19-31.854-28.884-74.138-46.483-120.52-46.483-99.126.001-179.48 80.368-179.48 179.51 0 99.133 80.358 179.5 179.49 179.5 46.388 0 88.667-17.596 120.52-46.475 6.499-5.896 12.56-12.26 18.133-19.037h-36.267"
            fill="#0097d0" />
        <path
            d="m666.07 350.04c0-3.2 2.596-5.796 5.801-5.796 3.199.002 5.792 2.596 5.791 5.796 0 3.204-2.592 5.8-5.791 5.8-3.203.001-5.801-2.596-5.801-5.8zm5.801 4.408c2.43.001 4.401-1.968 4.403-4.397v-.011c0-2.427-1.967-4.396-4.395-4.396h-.009c-2.43-.006-4.404 1.961-4.409 4.391v.005c-.001 2.434 1.971 4.407 4.404 4.408zm-.788-1.862h-1.184v-5.092h2.149c.446 0 .904.004 1.3.258.417.283.646.775.646 1.271 0 .582-.338 1.111-.88 1.315l.934 2.246h-1.315l-.775-2.009h-.875zm0-2.879h.658c.246 0 .505.016.726-.102.191-.136.304-.357.301-.592-.01-.207-.116-.397-.288-.513-.212-.125-.541-.101-.763-.101h-.634zm-283.64-51.205c-7.671 2.033-15.088 3.025-22.93 3.01-25.017-.024-38.046-11.418-38.046-33.201 0-25.458 16.587-44.183 39.101-44.183 18.417 0 30.175 10.5 30.175 26.946 0 5.458-.796 10.771-2.745 18.296h-44.488c-1.583 10.633 6.188 15.306 19.413 15.306 7.925 0 15.092-1.427 23.024-4.613zm-11.963-44.151c0-1.607 2.476-13.033-10.399-13.283-7.108 0-12.208 4.725-14.271 13.283zm27.034-4.99c0 9.404 5.296 15.9 17.329 20.736 9.199 3.771 10.649 4.859 10.649 8.222 0 4.663-4.066 6.805-13.092 6.745-6.778-.049-12.962-.87-20.263-2.896l-3.229 17.154c6.487 1.504 15.588 2 23.649 2.188 24.024 0 35.116-7.867 35.116-24.867 0-10.217-4.625-16.233-16.033-20.713-9.537-3.809-10.657-4.638-10.657-8.083 0-4.05 3.778-6.1 11.148-6.1 4.463 0 10.579.413 16.38 1.108l3.259-17.242c-5.912-.825-14.884-1.483-20.075-1.483-25.448.001-34.256 11.46-34.181 25.231m-88.242 50.92h-18.662l.445-7.82c-5.691 6.17-13.271 9.041-23.558 9.041-12.175 0-20.517-8.324-20.517-20.295 0-18.195 14.5-28.691 39.429-28.691 2.563 0 5.821.191 9.167.562.691-2.434.879-3.479.879-4.808 0-4.979-3.921-6.813-14.412-6.813-10.342.042-17.321 1.571-23.796 3.313l3.188-16.7c11.195-2.846 18.529-3.941 26.825-3.941 19.304 0 29.499 7.566 29.499 21.796.167 3.795-1.158 11.413-1.82 14.746-.759 4.852-6.109 32.973-6.667 39.61zm-16.379-33.191c-2.366-.242-3.396-.312-5.013-.312-12.729 0-19.183 3.787-19.183 11.267 0 4.692 3.149 7.634 8.058 7.634 9.147-.001 15.75-7.652 16.138-18.589zm194.11 32.011c-6.125 1.68-10.896 2.408-16.059 2.408-11.435 0-17.676-5.842-17.676-16.25-.357-2.857 2.435-16.059 3.066-19.736.634-3.691 10.538-57.492 10.538-57.492h22.212l-3.362 17.8h11.393l-3.097 18.171h-11.44s-6.279 31.529-6.279 33.934c0 3.824 2.316 5.487 7.633 5.487 2.546 0 4.51-.237 6.029-.692zm99.246-74.974c-16.279 0-29 6.7-36.388 17.892l6.412-16.596c-11.816-4.337-19.435 1.85-26.325 10.65 0 0-1.154 1.462-2.3 2.8v-13.05h-20.858c-2.825 23.029-7.82 46.379-11.729 69.446l-.941 5.021h22.438c2.125-11.708 3.875-21.213 5.617-28.788 4.768-20.787 12.787-27.141 24.829-24.333-2.779 5.979-4.305 12.892-4.305 20.554 0 18.58 10.092 33.789 35.149 33.789 25.287 0 43.597-13.51 43.597-44.31 0-18.579-12.201-33.075-35.196-33.075zm-6.529 59.316c-7.926.125-12.729-6.524-12.729-16.471 0-11.791 7.013-25.112 18.274-25.112 9.087 0 12.199 7.204 12.199 14.879.001 16.78-6.874 26.704-17.744 26.704zm-343.19 16.847h-22.342l13.279-69.954-30.571 69.954h-20.366l-3.726-69.55-13.32 69.55h-20.271l17.267-90.996h34.913l2.912 50.726 22.117-50.726h37.721z" />
        <path
            d="m628.15 288.88c.002-3.199 2.596-5.793 5.796-5.795 3.204 0 5.796 2.6 5.796 5.795.06 3.201-2.487 5.845-5.688 5.904-3.201.061-5.845-2.486-5.904-5.688-.002-.072-.002-.144 0-.216zm5.796 4.413c2.435-.003 4.408-1.978 4.408-4.413 0-2.433-1.976-4.402-4.408-4.402-2.434 0-4.408 1.971-4.408 4.402 0 2.435 1.973 4.41 4.408 4.413zm-.784-1.866h-1.188v-5.084h2.15c.449 0 .908 0 1.304.25.408.279.646.769.646 1.271 0 .578-.337 1.115-.883 1.316l.934 2.246h-1.316l-.771-2.01h-.875v2.011zm0-2.888h.658c.242 0 .504.017.725-.097.19-.135.301-.354.296-.588-.005-.206-.11-.397-.283-.512-.212-.13-.541-.097-.763-.097h-.633zm-240.11 4.354c-7.667 2.033-15.088 3.028-22.925 3.012-25.017-.025-38.046-11.42-38.046-33.208 0-25.45 16.579-44.179 39.096-44.179 18.421 0 30.175 10.496 30.175 26.942 0 5.467-.8 10.771-2.74 18.301h-44.487c-1.584 10.629 6.179 15.308 19.408 15.308 7.925 0 15.087-1.425 23.028-4.616zm-11.963-44.15c0-1.604 2.472-13.033-10.398-13.279-7.108 0-12.204 4.729-14.271 13.279zm27.038-4.996c0 9.408 5.287 15.9 17.325 20.746 9.204 3.768 10.648 4.857 10.648 8.213 0 4.666-4.065 6.809-13.087 6.75-6.783-.047-12.967-.871-20.263-2.896l-3.237 17.146c6.491 1.516 15.597 2.012 23.653 2.199 24.025 0 35.121-7.871 35.121-24.871 0-10.217-4.629-16.236-16.041-20.712-9.538-3.809-10.654-4.638-10.654-8.083 0-4.05 3.783-6.1 11.146-6.1 4.471 0 10.583.417 16.388 1.113l3.25-17.246c-5.913-.825-14.879-1.483-20.065-1.483-25.459-.001-34.263 11.453-34.184 25.224m-88.242 50.93h-18.666l.45-7.82c-5.696 6.158-13.275 9.033-23.559 9.033-12.175 0-20.521-8.326-20.521-20.287 0-18.205 14.495-28.696 39.429-28.696 2.563 0 5.816.192 9.171.563.691-2.433.875-3.475.875-4.808 0-4.983-3.917-6.813-14.408-6.813-10.342.042-17.321 1.575-23.796 3.313l3.184-16.696c11.199-2.85 18.529-3.946 26.829-3.946 19.304 0 29.495 7.567 29.495 21.792.167 3.8-1.158 11.413-1.816 14.754-.763 4.848-6.112 32.968-6.667 39.611zm-16.387-33.198c-2.358-.244-3.392-.312-5.013-.312-12.721 0-19.18 3.788-19.18 11.268 0 4.694 3.154 7.633 8.055 7.633 9.155-.001 15.758-7.654 16.138-18.589zm194.11 32.018c-6.12 1.676-10.896 2.408-16.055 2.408-11.434 0-17.671-5.846-17.671-16.254-.361-2.854 2.435-16.059 3.063-19.737.634-3.692 10.537-57.492 10.537-57.492h22.209l-3.354 17.8h11.393l-3.097 18.171h-11.44s-6.283 31.53-6.283 33.933c0 3.825 2.32 5.479 7.633 5.479 2.542 0 4.509-.229 6.029-.691zm110.47-42.367c0 16.775-6.88 26.709-17.755 26.709-7.921.112-12.726-6.525-12.726-16.475 0-11.792 7.009-25.113 18.271-25.113 9.093 0 12.21 7.213 12.21 14.879zm23.979.467c0-18.579-12.208-33.079-35.194-33.079-26.45 0-43.551 17.625-43.551 43.596 0 18.578 10.084 33.791 35.149 33.791 25.288 0 43.596-13.512 43.596-44.308zm-114.66-31.383c-2.821 23.029-7.816 46.375-11.722 69.45l-.946 5.021h22.435c8.088-44.558 10.8-57.253 27.741-52.782l8.149-21.087c-11.815-4.337-19.425 1.854-26.309 10.658.621-3.962 1.792-7.783 1.509-11.258zm-270.26 74.47h-22.338l13.275-69.958-30.575 69.958h-20.362l-3.726-69.555-13.32 69.555h-20.271l17.263-91h34.921l1.846 56.334 24.575-56.334h36.325z"
            fill="#fff" />


    </symbol>


    <symbol id="discover" viewBox="0 0 780 500">

        <path
            d="m409.41 197.26c30.938 0 56.02 23.58 56.02 52.709v.033c0 29.129-25.082 52.742-56.02 52.742-30.941 0-56.022-23.613-56.022-52.742v-.033c0-29.129 25.081-52.709 56.022-52.709z"
            fill="#f47216" />
        <path
            d="m321.43 197.94c8.836 0 16.247 1.785 25.27 6.09v22.753c-8.544-7.863-15.955-11.154-25.757-11.154-19.265 0-34.413 15.015-34.413 34.051 0 20.074 14.681 34.195 35.368 34.195 9.312 0 16.586-3.12 24.802-10.856v22.764c-9.343 4.142-16.912 5.775-25.757 5.775-31.277 0-55.581-22.597-55.581-51.736-.002-28.83 24.949-51.882 56.068-51.882zm-97.113.626c11.546 0 22.109 3.721 30.942 10.994l-10.748 13.248c-5.351-5.646-10.411-8.027-16.563-8.027-8.854 0-15.301 4.744-15.301 10.988 0 5.354 3.618 8.188 15.944 12.481 23.364 8.043 30.289 15.176 30.289 30.926 0 19.193-14.976 32.554-36.319 32.554-15.631 0-26.993-5.795-36.457-18.871l13.268-12.03c4.73 8.608 12.622 13.223 22.42 13.223 9.163 0 15.947-5.95 15.947-13.983 0-4.164-2.056-7.733-6.158-10.258-2.066-1.195-6.158-2.978-14.199-5.646-19.292-6.538-25.91-13.527-25.91-27.186-.001-16.227 14.213-28.413 32.845-28.413zm234.72 1.729h22.436l28.084 66.592 28.447-66.592h22.267l-45.493 101.69h-11.054zm-301.21.152h20.541v99.143h-20.541zm411.73 0h58.253v16.799h-37.726v22.006h36.336v16.791h-36.336v26.762h37.726v16.785h-58.253zm115.59 57.377c15.471-2.965 23.983-12.926 23.983-28.105 0-18.562-13.575-29.271-37.266-29.271h-30.454v99.144h20.516v-39.83h2.681l28.43 39.828h25.26zm-17.218-11.736h-6.002v-30.025h6.326c12.791 0 19.744 5.049 19.744 14.697.002 9.967-6.951 15.328-20.068 15.328zm-576.09-45.641h-30.149v99.143h29.992c15.946 0 27.465-3.543 37.573-11.445 12.014-9.359 19.117-23.467 19.117-38.057.001-29.259-23.221-49.641-56.533-49.641zm23.997 74.479c-6.454 5.484-14.837 7.879-28.108 7.879h-5.514v-65.559h5.513c13.271 0 21.323 2.238 28.108 8.018 7.104 5.956 11.377 15.184 11.377 24.682.001 9.513-4.273 19.024-11.376 24.98z" />

    </symbol>

    <symbol id="diners" viewBox="0 0 780 500">
        <path d="m0 0h780v500h-780z" fill="#0079be" />
        <path
            d="m599.93 251.45c0-99.415-82.98-168.13-173.9-168.1h-78.242c-92.003-.033-167.73 68.705-167.73 168.1 0 90.93 75.727 165.64 167.73 165.2h78.242c90.914.436 173.9-74.294 173.9-165.2z"
            fill="#fff" />
        <path
            d="m348.28 97.43c-84.07.027-152.19 68.308-152.21 152.58.02 84.258 68.144 152.53 152.21 152.56 84.09-.027 152.23-68.303 152.24-152.56-.011-84.272-68.149-152.55-152.24-152.58z"
            fill="#0079be" />
        <path
            d="m252.07 249.6c.08-41.181 25.746-76.297 61.94-90.25v180.48c-36.194-13.948-61.861-49.045-61.94-90.23zm131 90.274v-180.53c36.207 13.92 61.914 49.057 61.979 90.257-.065 41.212-25.772 76.322-61.979 90.269z"
            fill="#fff" />

    </symbol>

    <symbol id="card" viewBox="0 0 780 500">
        <g transform="translate(15 -254)">
            <path
                d="m38.488 269h673.526c21.255 0 38.486 16.798 38.486 37.52v393.959c0 20.723-17.231 37.521-38.486 37.521h-673.526c-21.257 0-38.488-16.798-38.488-37.521v-393.959c0-20.722 17.231-37.52 38.488-37.52z"
                fill="none" stroke="#393939" stroke-width="30" />
            <path
                d="m66.423 413.05h67.042c10.799 0 19.554 8.535 19.554 19.063v55.373c0 10.528-8.755 19.062-19.554 19.062h-67.042c-10.8 0-19.555-8.534-19.555-19.062v-55.373c0-10.528 8.755-19.063 19.555-19.063z"
                fill-opacity=".196" />
            <g fill-opacity=".784">
                <path
                    d="m70.225 546h-4.039l-.387 10.571h-11.01l10.18-23.516-3.817-1.618-11.232 25.458v3.236h15.823v9.062h4.481v-9.062h4.924v-3.56h-4.924v-10.571zm23.768-14.562c-3.872 0-7.58 1.294-10.789 4.314l2.49 2.751c2.545-2.319 4.813-3.451 8.078-3.451 4.038 0 7.248 2.211 7.248 6.31 0 4.478-3.597 6.527-7.248 6.527h-2.269l-.553 3.56h3.208c4.482 0 7.912 1.726 7.912 7.064 0 4.639-3.153 7.605-8.52 7.605-3.098 0-6.308-1.241-8.465-3.722l-3.099 2.48c2.877 3.452 7.414 4.909 11.674 4.909 7.856 0 13.222-4.854 13.222-11.273 0-5.771-4.205-8.79-8.686-9.114 4.038-.755 7.468-4.153 7.468-8.63.003-5.07-4.534-9.33-11.671-9.33zm33.174 0c-5.145 0-8.575 1.78-11.618 5.34l3.208 2.373c2.435-2.751 4.482-3.938 8.245-3.938 4.259 0 6.804 2.589 6.804 6.742 0 6.095-3.098 10.14-17.483 23.569v3.668h22.628l.554-3.829h-17.925c12.558-11.165 17.04-16.72 17.04-23.516-.001-5.933-4.261-10.409-11.453-10.409zm34.888.646-11.287 6.796 1.992 3.183 8.741-5.124v28.586h-9.405v3.667h21.963v-3.667h-7.966v-33.44h-4.038zm74.038 13.916h-4.04l-.386 10.571h-11.01l10.179-23.516-3.817-1.618-11.231 25.457v3.236h15.822v9.062h4.483v-9.062h4.923v-3.56h-4.923zm23.767-14.562c-3.873 0-7.579 1.294-10.788 4.314l2.489 2.751c2.545-2.319 4.814-3.451 8.078-3.451 4.04 0 7.249 2.211 7.249 6.31 0 4.478-3.597 6.527-7.249 6.527h-2.268l-.552 3.56h3.208c4.481 0 7.911 1.726 7.911 7.064 0 4.639-3.153 7.605-8.52 7.605-3.098 0-6.307-1.241-8.464-3.722l-3.098 2.48c2.876 3.452 7.413 4.909 11.673 4.909 7.856 0 13.223-4.854 13.223-11.273 0-5.771-4.205-8.79-8.687-9.114 4.039-.755 7.469-4.153 7.469-8.63.001-5.07-4.536-9.33-11.674-9.33zm33.174 0c-5.145 0-8.576 1.78-11.618 5.34l3.208 2.373c2.435-2.751 4.481-3.938 8.243-3.938 4.261 0 6.806 2.589 6.806 6.742 0 6.095-3.098 10.14-17.483 23.569v3.668h22.627l.554-3.829h-17.925c12.559-11.165 17.04-16.72 17.04-23.516.001-5.933-4.258-10.409-11.452-10.409zm34.889.646-11.286 6.796 1.992 3.183 8.741-5.124v28.586h-9.406v3.667h21.964v-3.667h-7.967v-33.44h-4.038zm74.037 13.916h-4.038l-.388 10.571h-11.01l10.181-23.516-3.818-1.618-11.23 25.457v3.236h15.824v9.062h4.479v-9.062h4.925v-3.56h-4.925zm23.769-14.562c-3.872 0-7.58 1.294-10.788 4.314l2.489 2.751c2.546-2.319 4.813-3.451 8.079-3.451 4.036 0 7.245 2.211 7.245 6.31 0 4.478-3.595 6.527-7.245 6.527h-2.27l-.555 3.56h3.21c4.482 0 7.912 1.726 7.912 7.064 0 4.639-3.154 7.605-8.521 7.605-3.098 0-6.307-1.241-8.466-3.722l-3.098 2.48c2.877 3.452 7.413 4.909 11.675 4.909 7.855 0 13.222-4.854 13.222-11.273 0-5.771-4.205-8.79-8.686-9.114 4.039-.755 7.469-4.153 7.469-8.63.001-5.07-4.536-9.33-11.672-9.33zm33.173 0c-5.146 0-8.575 1.78-11.619 5.34l3.209 2.373c2.436-2.751 4.482-3.938 8.244-3.938 4.26 0 6.804 2.589 6.804 6.742 0 6.095-3.098 10.14-17.482 23.569v3.668h22.629l.553-3.829h-17.925c12.558-11.165 17.04-16.72 17.04-23.516-.001-5.933-4.26-10.409-11.453-10.409zm34.889.646-11.287 6.796 1.992 3.183 8.741-5.124v28.586h-9.405v3.667h21.964v-3.667h-7.965v-33.44h-4.04zm74.037 13.916h-4.038l-.388 10.571h-11.01l10.181-23.516-3.818-1.618-11.23 25.457v3.236h15.823v9.062h4.48v-9.062h4.925v-3.56h-4.925zm23.767-14.562c-3.87 0-7.577 1.294-10.787 4.314l2.49 2.751c2.545-2.319 4.813-3.451 8.078-3.451 4.039 0 7.248 2.211 7.248 6.31 0 4.478-3.597 6.527-7.248 6.527h-2.27l-.552 3.56h3.208c4.481 0 7.911 1.726 7.911 7.064 0 4.639-3.153 7.605-8.52 7.605-3.098 0-6.308-1.241-8.465-3.722l-3.098 2.48c2.877 3.452 7.412 4.909 11.673 4.909 7.857 0 13.223-4.854 13.223-11.273 0-5.771-4.204-8.79-8.686-9.114 4.039-.755 7.469-4.153 7.469-8.63 0-5.07-4.537-9.331-11.673-9.331h-.001zm33.175 0c-5.145 0-8.574 1.78-11.618 5.34l3.209 2.373c2.435-2.751 4.481-3.938 8.244-3.938 4.26 0 6.806 2.589 6.806 6.742 0 6.095-3.1 10.14-17.484 23.569v3.668h22.63l.553-3.829h-17.926c12.559-11.165 17.04-16.72 17.04-23.516-.001-5.933-4.262-10.409-11.454-10.409zm34.889.646-11.286 6.796 1.99 3.183 8.742-5.124v28.586h-9.405v3.667h21.966v-3.667h-7.968v-33.44h-4.039z" />
                <path
                    d="m52.958 639.12v-3.372l6.709-1.318h3.795v24.238h6.202v3.114h-16.16v-3.114h6.201v-20.867zm24.506 0v-3.372l6.709-1.318h3.796v24.238h6.201v3.114h-16.161v-3.114h6.202v-20.867zm39.915 19.547h13.25v3.115h-17.816v-3.114c1.949-1.958 3.91-3.907 5.883-5.844 2.492-2.456 4.059-4.037 4.697-4.747 1.215-1.33 2.061-2.454 2.538-3.37.489-.929.733-1.838.733-2.729 0-1.453-.526-2.638-1.578-3.555-1.041-.915-2.399-1.373-4.079-1.373-1.19 0-2.449.202-3.777.605-1.315.402-2.725 1.012-4.228 1.831v-3.738c1.527-.599 2.957-1.05 4.284-1.354 1.328-.307 2.543-.458 3.646-.458 2.906 0 5.225.707 6.953 2.125 1.729 1.415 2.594 3.31 2.594 5.68.005 1.101-.219 2.191-.658 3.206-.426 1.002-1.208 2.186-2.349 3.554-.314.354-1.31 1.38-2.988 3.077-2.363 2.368-4.732 4.731-7.105 7.089zm32.737-11.632c1.817.378 3.233 1.165 4.248 2.363 1.027 1.196 1.541 2.673 1.541 4.433 0 2.698-.953 4.788-2.856 6.267-1.905 1.476-4.61 2.215-8.119 2.215-1.178 0-2.393-.115-3.646-.348-1.308-.237-2.597-.574-3.852-1.007v-3.572c1.081.609 2.245 1.065 3.458 1.354 1.285.31 2.604.464 3.927.458 2.381 0 4.191-.458 5.432-1.374 1.252-.916 1.879-2.246 1.879-3.993 0-1.613-.583-2.87-1.748-3.773-1.153-.916-2.761-1.374-4.83-1.374h-3.27v-3.042h3.42c1.867 0 3.295-.36 4.286-1.08.99-.732 1.484-1.784 1.484-3.153 0-1.402-.514-2.479-1.541-3.223-1.014-.756-2.474-1.136-4.378-1.136-1.04 0-2.155.11-3.345.329-1.19.221-2.499.562-3.928 1.026v-3.298c1.329-.366 2.678-.661 4.042-.879 1.18-.188 2.374-.286 3.569-.293 2.882 0 5.162.642 6.841 1.923 1.678 1.271 2.518 2.991 2.518 5.167 0 1.515-.444 2.797-1.335 3.847-.89 1.039-2.156 1.759-3.797 2.163zm25.295-12.605h14.902v3.114h-11.425v6.705c.539-.181 1.092-.314 1.654-.402.546-.097 1.1-.146 1.654-.146 3.132 0 5.612.837 7.442 2.51 1.829 1.673 2.744 3.939 2.744 6.797 0 2.944-.94 5.234-2.819 6.87-1.879 1.624-4.529 2.436-7.95 2.436-1.178 0-2.38-.098-3.608-.292-1.277-.209-2.539-.504-3.776-.879v-3.72c1.102.59 2.275 1.039 3.494 1.338 1.204.293 2.476.438 3.815.438 2.168 0 3.885-.556 5.15-1.667 1.265-1.11 1.897-2.619 1.897-4.524s-.632-3.414-1.897-4.525c-1.266-1.111-2.983-1.667-5.15-1.667-1.015 0-2.03.109-3.043.33-1.06.238-2.093.582-3.082 1.025zm32.586 14.363c-1.804 0-3.226.469-4.266 1.409-1.027.941-1.54 2.237-1.54 3.886s.513 2.943 1.54 3.883c1.04.94 2.463 1.411 4.266 1.411 1.805 0 3.227-.471 4.267-1.41 1.039-.952 1.559-2.248 1.559-3.884 0-1.648-.52-2.944-1.559-3.886-1.028-.939-2.451-1.409-4.267-1.409zm-3.795-1.575c-1.628-.392-2.901-1.131-3.815-2.218-.903-1.086-1.354-2.411-1.354-3.975 0-2.186.795-3.914 2.387-5.186 1.604-1.27 3.795-1.904 6.577-1.904 2.795 0 4.986.635 6.578 1.904 1.592 1.271 2.386 3 2.386 5.186 0 1.563-.456 2.889-1.371 3.977-.902 1.085-2.161 1.824-3.777 2.216 1.829.416 3.251 1.228 4.266 2.435 1.027 1.21 1.541 2.688 1.541 4.436 0 2.65-.833 4.685-2.499 6.101-1.654 1.416-4.028 2.124-7.123 2.124-3.094 0-5.474-.708-7.14-2.124-1.655-1.416-2.481-3.45-2.481-6.101 0-1.747.513-3.226 1.541-4.436 1.025-1.208 2.454-2.019 4.284-2.435zm-1.391-5.843c0 1.415.452 2.52 1.353 3.314.915.795 2.192 1.192 3.833 1.192 1.63 0 2.901-.397 3.816-1.192.926-.795 1.39-1.899 1.39-3.315 0-1.418-.464-2.522-1.39-3.316-.914-.795-2.186-1.191-3.816-1.191-1.641 0-2.918.396-3.833 1.191-.903.794-1.353 1.898-1.353 3.317z" />
                <path
                    d="m296.61 638.21v-3.371l6.709-1.32h3.796v24.238h6.201v3.114h-16.162v-3.114h6.201v-20.867zm35.894 7.912c1.816.38 3.232 1.168 4.248 2.365 1.027 1.196 1.54 2.675 1.54 4.433 0 2.699-.952 4.788-2.856 6.267-1.904 1.478-4.609 2.217-8.118 2.217-1.177 0-2.392-.116-3.647-.349-1.308-.237-2.596-.574-3.852-1.008v-3.573c1.083.61 2.246 1.066 3.459 1.356 1.285.311 2.604.464 3.928.459 2.38 0 4.19-.459 5.431-1.375 1.252-.916 1.879-2.247 1.879-3.994 0-1.611-.583-2.869-1.748-3.773-1.152-.916-2.763-1.374-4.83-1.374h-3.27v-3.041h3.42c1.867 0 3.295-.361 4.286-1.081.988-.732 1.484-1.783 1.484-3.152 0-1.404-.515-2.478-1.542-3.224-1.015-.756-2.475-1.134-4.378-1.134-1.04 0-2.155.108-3.346.327-1.19.221-2.5.564-3.926 1.027v-3.298c1.328-.366 2.677-.66 4.039-.88 1.18-.188 2.375-.286 3.57-.293 2.883 0 5.164.642 6.841 1.923 1.679 1.271 2.518 2.993 2.518 5.167 0 1.515-.444 2.797-1.333 3.847-.89 1.039-2.156 1.76-3.797 2.163zm16.275 11.635h13.25v3.114h-17.816v-3.114c1.95-1.96 3.91-3.906 5.882-5.845 2.493-2.455 4.059-4.036 4.698-4.745 1.216-1.331 2.06-2.453 2.536-3.369.489-.93.733-1.839.733-2.73 0-1.454-.525-2.639-1.577-3.555-1.04-.916-2.4-1.374-4.079-1.374-1.191 0-2.45.201-3.778.605-1.315.404-2.725 1.013-4.229 1.832v-3.737c1.529-.599 2.957-1.051 4.285-1.356s2.544-.458 3.646-.458c2.906 0 5.225.708 6.954 2.125 1.728 1.418 2.593 3.31 2.593 5.68.005 1.102-.219 2.191-.657 3.206-.426 1.002-1.208 2.186-2.349 3.556-.313.354-1.308 1.378-2.989 3.077-2.362 2.367-4.729 4.73-7.103 7.091zm21.348-19.547v-3.371l6.709-1.32h3.795v24.238h6.202v3.114h-16.162v-3.114h6.203v-20.867zm48.146 7.912c1.816.38 3.233 1.168 4.247 2.365 1.028 1.196 1.543 2.675 1.543 4.433 0 2.699-.953 4.788-2.858 6.267-1.904 1.478-4.61 2.217-8.118 2.217-1.178 0-2.393-.116-3.646-.349-1.309-.237-2.598-.574-3.853-1.008v-3.573c1.08.61 2.244 1.066 3.458 1.356 1.285.311 2.604.464 3.928.459 2.379 0 4.19-.459 5.431-1.375 1.254-.916 1.88-2.247 1.88-3.994 0-1.611-.583-2.869-1.747-3.773-1.153-.916-2.764-1.374-4.831-1.374h-3.269v-3.041h3.419c1.867 0 3.295-.361 4.284-1.081.99-.732 1.485-1.783 1.485-3.152 0-1.404-.515-2.478-1.541-3.224-1.015-.756-2.474-1.134-4.379-1.134-1.039 0-2.155.108-3.345.327-1.191.221-2.5.564-3.929 1.027v-3.298c1.33-.366 2.679-.66 4.042-.88 1.181-.188 2.374-.286 3.569-.293 2.883 0 5.162.642 6.841 1.923 1.68 1.271 2.519 2.993 2.519 5.167 0 1.515-.444 2.797-1.334 3.847-.89 1.039-2.156 1.76-3.797 2.163v-.002zm23.435-9.379-9.583 14.602h9.583zm-.996-3.224h4.773v17.826h4.003v3.078h-4.003v6.448h-3.776v-6.448h-12.667v-3.572zm15.11 0h14.901v3.114h-11.426v6.707c.539-.181 1.092-.316 1.654-.404.546-.097 1.099-.146 1.653-.146 3.133 0 5.613.836 7.442 2.509 1.827 1.674 2.743 3.94 2.743 6.797 0 2.943-.938 5.234-2.818 6.87-1.88 1.624-4.528 2.438-7.949 2.438-1.178 0-2.381-.097-3.608-.293-1.278-.211-2.54-.505-3.778-.88v-3.72c1.103.59 2.277 1.04 3.496 1.338 1.202.293 2.474.44 3.815.44 2.167 0 3.883-.557 5.148-1.667 1.267-1.112 1.898-2.621 1.898-4.526s-.632-3.414-1.898-4.524c-1.266-1.111-2.981-1.667-5.148-1.667-1.016 0-2.03.109-3.044.329-1.062.24-2.094.583-3.082 1.025v-13.74zm24.504 0h14.904v3.114h-11.427v6.707c.537-.181 1.09-.316 1.652-.404.546-.097 1.1-.146 1.655-.146 3.131 0 5.61.836 7.44 2.509 1.829 1.674 2.743 3.94 2.743 6.797 0 2.943-.938 5.234-2.818 6.87-1.879 1.624-4.529 2.438-7.948 2.438-1.179 0-2.381-.097-3.608-.293-1.278-.211-2.54-.505-3.778-.88v-3.72c1.103.59 2.277 1.04 3.496 1.338 1.203.293 2.475.44 3.814.44 2.168 0 3.885-.557 5.148-1.667 1.267-1.112 1.899-2.621 1.899-4.526s-.633-3.414-1.899-4.524c-1.264-1.111-2.98-1.667-5.148-1.667-1.015 0-2.03.109-3.044.329-1.061.24-2.094.583-3.083 1.025z" />
            </g>
        </g>
    </symbol>

    <symbol id="line-card" viewBox="0 0 780 500">
        <path
            d="M0 8v-2c0-1.104.896-2 2-2h20c1.104 0 2 .896 2 2v2h-24zm24 3v7c0 1.104-.896 2-2 2h-20c-1.104 0-2-.896-2-2v-7h24zm-15 5h-6v1h6v-1zm3-2h-9v1h9v-1zm9 0h-3v1h3v-1z" />
    </symbol>

    <symbol id="juspay" viewBox="0 0 98 20">
<path d="M9.98992 19.997C9.50977 20.0103 9.04296 19.9703 8.56281 19.9037C7.26907 19.717 6.05536 19.3038 4.93502 18.624C2.45425 17.1311 0.867089 14.9583 0.213553 12.1057C0.0668412 11.4659 0.000153888 10.8127 0.000153888 10.1596C-0.0131836 7.54693 0.840414 5.25421 2.57429 3.30806C4.08142 1.62851 5.94866 0.602112 8.14935 0.175558C8.76287 0.0555901 9.37639 -0.0110589 9.98992 0.0156007C9.98992 1.01534 9.98992 2.00174 9.98992 3.00147C9.96324 3.0148 9.93657 3.02813 9.90989 3.05479C9.54978 3.30806 9.18967 3.57466 8.84289 3.85458C8.05598 4.49441 7.30909 5.17423 6.68222 5.98735C5.84196 7.06706 5.28179 8.25341 5.20177 9.65304C5.16175 10.3195 5.24178 10.9727 5.45518 11.5992C5.97534 13.1588 7.58917 14.7717 9.85654 14.8117C9.98992 14.8117 10.0166 14.8383 10.0166 14.985C10.0033 15.6648 10.0033 17.0244 10.0033 17.0244C10.0033 17.0244 10.0033 17.1044 10.0033 17.1444C9.98992 18.0908 9.98992 19.0372 9.98992 19.997Z" fill="#0099FF"/>
<path d="M9.98982 2.98792C9.98982 2.98792 9.98982 1.00178 9.98982 0.00204137C10.5367 -0.0112884 11.0702 0.0420308 11.6037 0.12201C12.604 0.281967 13.5643 0.575223 14.4712 1.04177C16.3518 2.01484 17.8322 3.40114 18.8326 5.29397C19.4061 6.38701 19.7795 7.54671 19.9262 8.75972C20.0996 10.186 19.9662 11.599 19.5394 12.9719C19.046 14.5315 18.219 15.9045 17.0587 17.0642C15.6449 18.4638 13.9644 19.3702 12.0171 19.7835C11.3502 19.9168 10.67 19.9967 9.98982 19.9834C9.98982 19.0237 9.98982 18.0772 9.98982 17.1175C9.98982 17.0775 9.98982 17.0109 9.98982 17.0109C9.98982 17.0109 10.0298 16.9842 10.0432 16.9709C11.0835 16.2377 12.0705 15.4379 12.9241 14.4782C13.4842 13.8517 13.9644 13.1852 14.2978 12.4121C14.7646 11.319 14.9514 10.1993 14.7113 9.01298C14.2845 6.85356 12.3505 5.24065 10.1232 5.18733C9.97648 5.18733 9.98982 5.06736 9.98982 5.06736V2.98792Z" fill="#1585D8"/>
<g clip-path="url(#clip0_14258_62260)">
<path d="M39.9202 12.6117C39.9202 13.1318 39.8324 13.6271 39.6692 14.11C39.506 14.593 39.2424 15.014 38.9161 15.3855C38.5772 15.757 38.163 16.0418 37.6609 16.2647C37.1588 16.4752 36.5689 16.5866 35.9162 16.5866C34.8618 16.5866 33.9957 16.339 33.3305 15.856C32.6527 15.3731 32.2134 14.6054 32 13.5528L34.2217 13.0327C34.297 13.4661 34.4727 13.8129 34.7614 14.0729C35.0375 14.3329 35.389 14.4568 35.8032 14.4568C36.481 14.4568 36.9454 14.2339 37.1839 13.7757C37.4224 13.3299 37.5479 12.6984 37.5479 11.9059V3.10156H39.9202V12.6117Z" fill="#354052"/>
<path d="M52.9994 11.4229C52.9994 12.2154 52.8613 12.9337 52.5852 13.5652C52.3091 14.2091 51.9325 14.7416 51.4555 15.1874C50.9786 15.6332 50.4137 15.9799 49.761 16.2152C49.1083 16.4628 48.3929 16.5743 47.6272 16.5743C46.8616 16.5743 46.1461 16.4504 45.506 16.2152C44.8533 15.9799 44.2884 15.6332 43.7989 15.1874C43.3094 14.7416 42.9328 14.1967 42.6692 13.5652C42.3931 12.9337 42.2676 12.2154 42.2676 11.4229V3.10156H44.6399V11.3486C44.6399 11.6706 44.6901 12.0049 44.7905 12.364C44.8909 12.7108 45.0541 13.0451 45.2926 13.3423C45.5185 13.6395 45.8323 13.8872 46.2214 14.0729C46.598 14.271 47.0749 14.3577 47.6398 14.3577C48.2046 14.3577 48.6816 14.2586 49.0581 14.0729C49.4347 13.8872 49.7485 13.6395 49.987 13.3423C50.2129 13.0451 50.3886 12.7231 50.489 12.364C50.5895 12.0049 50.6397 11.6706 50.6397 11.3486V3.10156H53.012L52.9994 11.4229Z" fill="#354052"/>
<path d="M61.9865 5.92524C61.7355 5.56613 61.3966 5.30609 60.9824 5.13273C60.5556 4.95937 60.1163 4.88507 59.6519 4.88507C59.3757 4.88507 59.1121 4.92222 58.8485 4.98413C58.585 5.04605 58.359 5.14511 58.1582 5.28133C57.9448 5.41754 57.7816 5.5909 57.6561 5.81379C57.5306 6.03669 57.4678 6.28435 57.4678 6.58154C57.4678 7.02733 57.6185 7.37405 57.9448 7.59695C58.2586 7.83222 58.6477 8.04273 59.1121 8.20371C59.5765 8.37707 60.0786 8.55044 60.6309 8.71141C61.1832 8.87239 61.6853 9.09529 62.1622 9.3801C62.6266 9.66491 63.0158 10.0488 63.3296 10.5069C63.6433 10.9775 63.8065 11.609 63.8065 12.3768C63.8065 13.0826 63.681 13.7018 63.4174 14.2218C63.1538 14.7543 62.8024 15.1877 62.3505 15.5344C61.8986 15.8812 61.384 16.1412 60.7941 16.3146C60.2041 16.4879 59.5765 16.5746 58.9364 16.5746C58.108 16.5746 57.3047 16.4384 56.5516 16.166C55.7859 15.8936 55.1206 15.4354 54.5684 14.7915L56.3633 13.0826C56.652 13.516 57.0285 13.8504 57.5055 14.098C57.9825 14.3457 58.472 14.4571 58.9992 14.4571C59.2753 14.4571 59.5514 14.42 59.8276 14.3457C60.1037 14.2714 60.3548 14.1599 60.5807 14.0113C60.8066 13.8627 60.9824 13.677 61.1204 13.4417C61.2585 13.2188 61.3338 12.9464 61.3338 12.6492C61.3338 12.1663 61.1706 11.7948 60.8568 11.5347C60.543 11.2747 60.1539 11.0518 59.6895 10.8784C59.2251 10.7051 58.7105 10.5317 58.1582 10.3707C57.6059 10.2098 57.0913 9.98686 56.6394 9.71444C56.175 9.44201 55.7859 9.07052 55.4721 8.59997C55.1583 8.12941 54.9951 7.51026 54.9951 6.73014C54.9951 6.04907 55.1332 5.46707 55.4219 4.97175C55.698 4.47643 56.0746 4.06779 56.539 3.73345C56.9909 3.41149 57.518 3.16383 58.108 3.00285C58.6979 2.84188 59.3004 2.76758 59.9154 2.76758C60.6184 2.76758 61.2962 2.87903 61.9614 3.07715C62.6141 3.28766 63.2166 3.63439 63.7438 4.11732L61.9865 5.92524Z" fill="#354052"/>
<path fill-rule="evenodd" clip-rule="evenodd" d="M70.2704 3.10156H65.7894L65.7769 16.2523H68.1492V10.8038H69.8437C70.5466 10.8038 71.2118 10.7543 71.8645 10.6552C72.5172 10.5561 73.082 10.358 73.5716 10.0856C74.0611 9.81315 74.4502 9.41689 74.7389 8.90919C75.0276 8.40148 75.1782 7.7328 75.1782 6.90314C75.1782 6.17254 75.0401 5.56578 74.7765 5.07046C74.5129 4.58752 74.1489 4.20365 73.6971 3.90646C73.2452 3.62165 72.718 3.41114 72.1281 3.28731C71.5256 3.16348 70.9106 3.10156 70.2704 3.10156ZM70.6473 8.77296C70.2833 8.79773 69.9318 8.81011 69.5929 8.81011H68.1495V5.10759H69.844C70.1578 5.10759 70.4841 5.13236 70.823 5.16951C71.1619 5.20666 71.4757 5.28096 71.7519 5.41717C72.028 5.541 72.2539 5.72674 72.4297 5.9744C72.6054 6.22206 72.6932 6.54402 72.6932 6.95266C72.6932 7.39845 72.5928 7.74517 72.4046 7.99283C72.2037 8.24049 71.9527 8.42624 71.6514 8.55007C71.3502 8.6739 71.0113 8.74819 70.6473 8.77296Z" fill="#354052"/>
<path fill-rule="evenodd" clip-rule="evenodd" d="M81.7809 3.10156H79.735L73.936 16.2523H76.597L77.802 13.2432H83.5759L84.8185 16.2523H87.5297L81.7809 3.10156ZM80.6889 5.888L82.7474 11.2375H78.6053L80.6889 5.888Z" fill="#354052"/>
<path d="M90.4164 10.6304L85.4082 3.10156H88.383L91.659 8.33957L94.9727 3.10156H97.7969L92.7887 10.6304V16.2647H90.4164V10.6304Z" fill="#354052"/>
</g>
<defs>
<clipPath id="clip0_14258_62260">
<rect width="66" height="15" fill="white" transform="translate(32 2.5)"/>
</clipPath>
</defs>
</symbol>



</svg>