<svg viewBox="0 0 40 40" fill="none" xmlns="http://www.w3.org/2000/svg">
<path d="M32.6614 18.1023L31.9358 22.7322C31.9331 22.7492 31.9341 22.7666 31.9387 22.7832C31.9433 22.7997 31.9514 22.8151 31.9625 22.8281C31.9735 22.8412 31.9873 22.8516 32.0027 22.8587C32.0182 22.8658 32.035 22.8694 32.0519 22.8692H32.9106C32.9409 22.8695 32.9703 22.8587 32.9934 22.8388C33.0166 22.819 33.032 22.7914 33.0368 22.761L33.7624 18.1312C33.7651 18.1142 33.7642 18.0968 33.7595 18.0802C33.7549 18.0636 33.7468 18.0482 33.7358 18.0352C33.7247 18.0221 33.711 18.0117 33.6955 18.0046C33.6801 17.9975 33.6633 17.9939 33.6463 17.9941H32.7876C32.7572 17.9935 32.7277 18.0042 32.7044 18.0241C32.6812 18.044 32.6659 18.0718 32.6614 18.1023ZM31.7445 19.4534H30.9297C30.8995 19.4531 30.8701 19.4639 30.847 19.4837C30.8239 19.5035 30.8085 19.5311 30.8037 19.5614L30.7767 19.7319C30.7767 19.7319 30.1439 19.035 29.0236 19.506C28.3808 19.7756 28.0723 20.3327 27.941 20.7408C27.941 20.7408 27.5243 21.9811 28.4667 22.6638C28.4667 22.6638 29.3406 23.3205 30.3246 22.6234L30.3076 22.7322C30.3037 22.7577 30.3081 22.7839 30.3202 22.8066C30.3323 22.8294 30.3513 22.8475 30.3745 22.8582C30.3899 22.8655 30.4067 22.8692 30.4237 22.8692H31.239C31.2694 22.8698 31.299 22.8592 31.3222 22.8393C31.3454 22.8194 31.3607 22.7915 31.3652 22.761L31.8611 19.5904C31.8639 19.5735 31.8629 19.5561 31.8583 19.5395C31.8536 19.523 31.8454 19.5077 31.8342 19.4947C31.8231 19.4816 31.8094 19.471 31.7939 19.4639C31.7784 19.4567 31.7615 19.4532 31.7445 19.4534ZM30.5456 21.2057C30.5138 21.4272 30.4035 21.6293 30.2354 21.7741C30.0666 21.9195 29.8518 21.998 29.6305 21.9951C29.5437 21.9961 29.4573 21.9834 29.3744 21.9573C29.0227 21.8434 28.8219 21.5028 28.8796 21.1337C28.9117 20.9122 29.022 20.7103 29.1901 20.5656C29.3588 20.4201 29.5735 20.3414 29.7947 20.3439C29.8815 20.343 29.9679 20.3558 30.0508 20.3821C30.4047 20.4952 30.6046 20.8363 30.5465 21.2058H30.5456V21.2057ZM26.1951 21.2933C26.6369 21.2933 27.0642 21.1338 27.3999 20.844C27.7348 20.5552 27.9566 20.1538 28.0249 19.713C28.1676 18.7959 27.457 17.9954 26.4497 17.9954H24.8269C24.7966 17.9951 24.7672 18.0059 24.7441 18.0257C24.721 18.0456 24.7056 18.0732 24.7009 18.1036L23.9751 22.7335C23.9712 22.759 23.9756 22.7852 23.9877 22.8079C23.9998 22.8307 24.0188 22.8488 24.042 22.8595C24.0576 22.8668 24.0742 22.8705 24.0912 22.8705H24.9504C24.9807 22.8708 25.0101 22.86 25.0332 22.8402C25.0564 22.8203 25.0717 22.7927 25.0765 22.7623L25.2895 21.4027C25.294 21.3722 25.3093 21.3443 25.3325 21.3244C25.3558 21.3044 25.3854 21.2938 25.4158 21.2944L26.1951 21.2933ZM26.9138 19.6713C26.8608 20.0103 26.6007 20.2599 26.1032 20.2599H25.4671L25.6603 19.0269H26.2849C26.7993 19.0278 26.9667 19.3337 26.9138 19.6722V19.6713Z" fill="#0070E0"/>
<path d="M22.9962 19.532L22.0134 21.2044L21.5146 19.5443C21.5068 19.5179 21.4908 19.4947 21.4688 19.4783C21.4469 19.4619 21.4203 19.4531 21.3931 19.4534H20.5062C20.4833 19.4531 20.461 19.4612 20.4435 19.4763C20.426 19.4913 20.4144 19.5123 20.4109 19.5353C20.4087 19.5506 20.4103 19.5662 20.4154 19.5807L21.3092 22.377L20.5008 23.6946C20.4939 23.7055 20.4893 23.7176 20.4872 23.7304C20.4852 23.7431 20.4857 23.7561 20.4887 23.7686C20.4917 23.7811 20.4973 23.7929 20.505 23.8032C20.5126 23.8134 20.5223 23.822 20.5333 23.8283C20.5481 23.837 20.5649 23.8414 20.582 23.8412H21.5372C21.5645 23.8413 21.5913 23.8342 21.6151 23.8207C21.6389 23.8072 21.6589 23.7877 21.6731 23.7641L24.1695 19.6007C24.1786 19.5862 24.1835 19.5695 24.1839 19.5523C24.1842 19.5352 24.18 19.5183 24.1715 19.5034C24.1631 19.4885 24.1509 19.4761 24.1361 19.4676C24.1214 19.4591 24.1047 19.4548 24.0878 19.4551H23.1329C23.1055 19.4548 23.0785 19.4618 23.0545 19.4753C23.0306 19.4888 23.0105 19.5083 22.9962 19.532ZM20.0034 19.4534H19.188C19.1576 19.4531 19.1282 19.4639 19.105 19.4838C19.0819 19.5037 19.0665 19.5314 19.0617 19.5618L19.0353 19.7321C19.0353 19.7321 18.402 19.0352 17.2816 19.5061C16.6391 19.7758 16.3304 20.3329 16.1996 20.741C16.1996 20.741 15.7826 21.9813 16.7248 22.664C16.7248 22.664 17.5988 23.3207 18.5829 22.6236L18.5659 22.7324C18.5619 22.7579 18.5662 22.7841 18.5783 22.8069C18.5904 22.8296 18.6096 22.8477 18.6328 22.8584C18.6481 22.8657 18.665 22.8694 18.682 22.8694H19.4972C19.5275 22.8696 19.5569 22.8588 19.58 22.839C19.6031 22.8191 19.6185 22.7915 19.6233 22.7612L20.1194 19.5906C20.1234 19.5651 20.119 19.5388 20.107 19.516C20.0949 19.4932 20.0757 19.4751 20.0525 19.4644C20.037 19.4572 20.0204 19.4535 20.0034 19.4534ZM18.8044 21.206C18.7723 21.4273 18.662 21.6291 18.4941 21.7738C18.3253 21.9191 18.1107 21.9978 17.8895 21.9953C17.8028 21.9963 17.7165 21.9835 17.6337 21.9574C17.2822 21.8436 17.0816 21.503 17.1393 21.1337C17.1714 20.9118 17.2822 20.7094 17.4509 20.5647C17.6202 20.4192 17.8356 20.3409 18.0573 20.3441C18.1441 20.3431 18.2307 20.356 18.3136 20.3823C18.6639 20.4954 18.8634 20.8363 18.8055 21.206H18.8044ZM14.454 21.2935C14.8951 21.2932 15.3217 21.1338 15.6578 20.8437C15.9924 20.5548 16.2139 20.1536 16.2821 19.713C16.4249 18.7961 15.7142 17.9956 14.7072 17.9956H13.0843C13.054 17.9953 13.0246 18.006 13.0014 18.0258C12.9783 18.0457 12.9629 18.0733 12.958 18.1036L12.2346 22.7322C12.2306 22.7578 12.2349 22.784 12.247 22.8068C12.2591 22.8296 12.2783 22.8477 12.3015 22.8584C12.3169 22.8655 12.3337 22.8694 12.3507 22.8694H13.2094C13.2397 22.8697 13.2692 22.8589 13.2923 22.839C13.3155 22.8191 13.3309 22.7914 13.3356 22.761L13.5483 21.4015C13.5528 21.3709 13.5681 21.3431 13.5914 21.3232C13.6146 21.3033 13.6442 21.2927 13.6746 21.2933L14.454 21.2935ZM15.1727 19.6713C15.1197 20.0103 14.8599 20.2599 14.3623 20.2599H13.7263L13.9191 19.0269H14.5437C15.0582 19.0279 15.2255 19.3339 15.1727 19.6722V19.6713Z" fill="#003087"/>
<path d="M8.9028 18.2335C8.92215 17.2111 8.09186 16.4268 6.95015 16.4268H4.5886C4.53357 16.4268 4.48033 16.4468 4.43849 16.4831C4.39664 16.5194 4.36894 16.5696 4.36036 16.6248L3.41415 22.6297C3.40992 22.6569 3.41154 22.6847 3.41891 22.7112C3.42628 22.7377 3.43922 22.7623 3.45683 22.7833C3.47445 22.8042 3.49633 22.821 3.52096 22.8326C3.5456 22.8441 3.5724 22.8501 3.59952 22.8501H4.99859L4.77994 24.2405C4.7757 24.2677 4.77733 24.2955 4.7847 24.322C4.79206 24.3486 4.805 24.3731 4.82262 24.3941C4.84024 24.415 4.86212 24.4319 4.88675 24.4434C4.91138 24.4549 4.93818 24.4609 4.96531 24.4609H6.10503C6.16001 24.4609 6.20902 24.4409 6.25098 24.4047C6.29258 24.3683 6.29945 24.3182 6.30813 24.2629L6.6427 22.2638C6.6512 22.2087 6.67887 22.1371 6.72065 22.1007C6.76243 22.0643 6.79896 22.0445 6.85412 22.0445H7.55148C8.66968 22.0445 9.61825 21.2373 9.79168 20.1146C9.91448 19.3179 9.5781 18.5929 8.9028 18.2335Z" fill="#001C64"/>
<path d="M5.30134 20.6355L4.95284 22.8797L4.73401 24.2873C4.7298 24.3146 4.73145 24.3424 4.73884 24.3689C4.74623 24.3954 4.75919 24.4199 4.77683 24.4409C4.79446 24.4618 4.81635 24.4786 4.84099 24.4901C4.86563 24.5016 4.89244 24.5076 4.91956 24.5076H6.12584C6.18082 24.5075 6.23398 24.4876 6.27576 24.4513C6.31753 24.415 6.34518 24.3647 6.35371 24.3096L6.67165 22.2636C6.68022 22.2084 6.7079 22.1582 6.7497 22.1219C6.79151 22.0856 6.8447 22.0656 6.8997 22.0656H7.60972C8.72792 22.0656 9.67649 21.2373 9.8501 20.1146C9.97308 19.3179 9.5781 18.5927 8.9028 18.2333C8.901 18.3181 8.89376 18.4028 8.88092 18.4867C8.70749 19.609 7.75856 20.4375 6.64072 20.4375H5.52939C5.47437 20.4376 5.42118 20.4576 5.37938 20.4939C5.33758 20.5303 5.3099 20.5803 5.30134 20.6355Z" fill="#0070E0"/>
<path d="M4.95265 22.8797H3.54925C3.52213 22.8797 3.49533 22.8737 3.47071 22.8621C3.44608 22.8506 3.42421 22.8338 3.40661 22.8128C3.389 22.7919 3.37608 22.7673 3.36874 22.7408C3.36139 22.7143 3.35979 22.6865 3.36406 22.6593L4.31027 16.5653C4.31884 16.5102 4.34652 16.4599 4.38833 16.4236C4.43013 16.3873 4.48332 16.3674 4.53832 16.3673H6.95015C8.09186 16.3673 8.92215 17.2111 8.9028 18.2333C8.61868 18.0819 8.28483 17.9954 7.91915 17.9954H5.90845C5.85342 17.9954 5.80019 18.0153 5.75834 18.0516C5.7165 18.0879 5.68879 18.1382 5.68022 18.1934L5.30151 20.6355L4.95247 22.8797H4.95265Z" fill="#003087"/>
</svg>
