<svg width="40" height="24" viewBox="0 0 40 24" fill="none" xmlns="http://www.w3.org/2000/svg">
<rect width="40" height="24" rx="2" fill="white"/>
<g clip-path="url(#clip0_8_127)">
<path fill-rule="evenodd" clip-rule="evenodd" d="M33.517 9.60001L35.2222 12.6909L31.6376 15.7835L33.517 9.60001Z" fill="#128242"/>
<path fill-rule="evenodd" clip-rule="evenodd" d="M32.3364 9.60001L34.0388 12.6909L30.457 15.7835L32.3364 9.60001Z" fill="#E4712B"/>
<path fill-rule="evenodd" clip-rule="evenodd" d="M5 14.6587L6.69996 9.06723H9.41802C10.267 9.06723 10.8347 9.18985 11.1233 9.443C11.4094 9.69392 11.4652 10.1035 11.2924 10.6793C11.1879 11.0184 11.029 11.3032 10.8111 11.5279C10.5942 11.7534 10.3092 11.9315 9.95768 12.0626C10.2557 12.128 10.4457 12.2579 10.5305 12.4528C10.6153 12.6475 10.6054 12.9318 10.5028 13.3044L10.2959 14.0852L10.2954 14.1065C10.2357 14.3252 10.2532 14.4423 10.3503 14.4517L10.2876 14.6587H8.44929C8.45533 14.5272 8.46703 14.4095 8.4792 14.3107C8.49253 14.2097 8.50888 14.1315 8.52523 14.0776L8.69657 13.5192C8.78312 13.2288 8.7887 13.0263 8.70827 12.9097C8.62729 12.7898 8.44619 12.7308 8.16031 12.7308H7.38763L6.79838 14.6587H5ZM7.76998 11.4708H8.59761C8.88766 11.4708 9.1017 11.433 9.23344 11.3548C9.36595 11.2759 9.4646 11.1428 9.52233 10.9501C9.58223 10.7542 9.56728 10.6177 9.48188 10.5398C9.39594 10.4611 9.1912 10.4228 8.86875 10.4228H8.08879L7.76998 11.4708Z" fill="#293267"/>
<path fill-rule="evenodd" clip-rule="evenodd" d="M16.3385 10.5326L15.0853 14.6587H13.5623L13.7497 14.0542C13.4812 14.2946 13.2073 14.4773 12.9306 14.5939C12.6564 14.7127 12.3669 14.7709 12.0622 14.7709C11.8104 14.7709 11.5941 14.7292 11.42 14.6466C11.2436 14.5639 11.1123 14.4384 11.0244 14.273C10.9458 14.128 10.9121 13.9494 10.9254 13.7357C10.9392 13.5252 11.0208 13.1705 11.1716 12.6737L11.8209 10.5326H13.4868L12.8385 12.6638C12.7437 12.9757 12.7209 13.195 12.7675 13.3144C12.8158 13.4347 12.9439 13.497 13.1524 13.497C13.362 13.497 13.5384 13.4275 13.6845 13.2861C13.8323 13.1455 13.9465 12.9362 14.0319 12.6575L14.6746 10.5326H16.3385Z" fill="#293267"/>
<path fill-rule="evenodd" clip-rule="evenodd" d="M15.7341 14.6587L17.4323 9.06723H19.7684C20.2838 9.06723 20.6829 9.09485 20.9676 9.156C21.2516 9.21431 21.474 9.30923 21.6392 9.443C21.8466 9.61792 21.9736 9.83431 22.0263 10.0942C22.0753 10.3539 22.0463 10.6564 21.9386 11.0116C21.7481 11.6368 21.4151 12.1158 20.9393 12.4506C20.4624 12.7808 19.8729 12.9468 19.1689 12.9468H18.0756L17.5565 14.6587H15.7341ZM18.4899 11.5812H19.0772C19.4571 11.5812 19.724 11.5386 19.8802 11.4558C20.0315 11.372 20.1391 11.2232 20.2051 11.0116C20.2706 10.7975 20.2536 10.6475 20.1547 10.5638C20.0589 10.4805 19.8153 10.4383 19.4249 10.4383H18.8387L18.4899 11.5812Z" fill="#293267"/>
<path fill-rule="evenodd" clip-rule="evenodd" d="M23.8981 14.6587L23.915 14.2669C23.6467 14.4505 23.3746 14.5894 23.101 14.676C22.8287 14.7642 22.5387 14.8092 22.2281 14.8092C21.7562 14.8092 21.4273 14.6921 21.2368 14.4656C21.0489 14.2385 21.018 13.9126 21.1462 13.497C21.2689 13.0866 21.4872 12.7848 21.8022 12.5915C22.1156 12.3962 22.6385 12.2562 23.3721 12.1669C23.4653 12.153 23.5901 12.1419 23.7462 12.1248C24.2885 12.0675 24.5932 11.9354 24.6587 11.7201C24.6931 11.6024 24.6722 11.5153 24.5921 11.4619C24.5148 11.4065 24.3697 11.3792 24.1613 11.3792C23.9882 11.3792 23.849 11.4119 23.7345 11.4802C23.6203 11.5491 23.5352 11.6495 23.4774 11.7911H21.8532C21.9999 11.3265 22.2996 10.9756 22.7497 10.7408C23.1974 10.5021 23.7886 10.3872 24.5205 10.3872C24.865 10.3872 25.1733 10.4167 25.4456 10.4805C25.7184 10.5416 25.9181 10.6287 26.0475 10.7341C26.2069 10.8658 26.3013 11.0156 26.3279 11.1815C26.3589 11.3471 26.3249 11.584 26.23 11.8944L25.5315 14.1946C25.5087 14.2702 25.5047 14.3375 25.5166 14.3985C25.5315 14.4568 25.5593 14.5066 25.6086 14.5422L25.571 14.6587H23.8981ZM24.3033 12.8162C24.1263 12.8814 23.8962 12.9435 23.6105 13.0117C23.1619 13.1217 22.9096 13.2682 22.8548 13.4498C22.8171 13.5663 22.8323 13.6562 22.8952 13.7245C22.9563 13.7895 23.0633 13.8222 23.2141 13.8222C23.4907 13.8222 23.7127 13.7584 23.8781 13.6325C24.0443 13.5048 24.1682 13.3044 24.255 13.0279C24.2705 12.9691 24.2838 12.9269 24.2922 12.8952L24.3033 12.8162Z" fill="#293267"/>
<path fill-rule="evenodd" clip-rule="evenodd" d="M25.5837 16.2846L25.9533 15.0634H26.43C26.5894 15.0634 26.7144 15.0345 26.8031 14.9824C26.8935 14.9279 26.9548 14.8363 26.99 14.7132C27.0078 14.6587 27.0186 14.6015 27.026 14.5367C27.0305 14.4677 27.0305 14.3952 27.026 14.3107L26.7718 10.5326H28.458L28.4319 13.0362L29.9036 10.5326H31.4719L28.8694 14.6388C28.5738 15.0978 28.3592 15.4131 28.2228 15.5852C28.0886 15.7551 27.961 15.8872 27.8371 15.9766C27.6765 16.1004 27.4972 16.1881 27.3039 16.2391C27.1097 16.2914 26.8142 16.3175 26.4172 16.3175C26.3029 16.3175 26.1715 16.3152 26.0295 16.3086C25.8881 16.3035 25.7373 16.2958 25.5837 16.2846Z" fill="#293267"/>
</g>
<defs>
<clipPath id="clip0_8_127">
<rect width="30.2222" height="8" fill="white" transform="translate(5 9)"/>
</clipPath>
</defs>
</svg>
