<svg width="68" height="11" viewBox="0 0 68 11" fill="none" xmlns="http://www.w3.org/2000/svg">
<path d="M61.1883 10.2078C60.9399 10.2176 60.6939 10.1935 60.4489 10.1593C59.7794 10.0647 59.1482 9.85301 58.5688 9.50879C57.2758 8.74194 56.4532 7.63156 56.1141 6.17746C56.0382 5.85127 56.0024 5.51963 56.0002 5.18494C55.9898 3.84768 56.4344 2.67981 57.3399 1.68541C58.1203 0.828092 59.0926 0.306658 60.2339 0.0848871C60.5487 0.023662 60.8669 -0.00661045 61.1883 0.00121276C61.1883 0.508871 61.1883 1.01619 61.1878 1.52419C61.1742 1.53201 61.16 1.53983 61.1469 1.54851C60.957 1.67929 60.7716 1.81484 60.5913 1.95888C60.1813 2.28474 59.7946 2.63525 59.4679 3.0458C59.0313 3.59683 58.7376 4.20619 58.6996 4.91725C58.6815 5.2562 58.7207 5.58936 58.8307 5.91267C59.1035 6.70961 59.9353 7.5302 61.1146 7.5552C61.1871 7.55707 61.198 7.56965 61.1963 7.64091C61.1883 7.98871 61.1878 8.6848 61.1878 8.6848C61.1878 8.6848 61.1883 8.72443 61.1883 8.74518V10.2078Z" fill="#0099FF"/>
<path d="M61.1973 1.52467C61.1973 1.52467 61.1978 0.509185 61.1978 0.00144455C61.4796 -0.00689022 61.7589 0.0216861 62.037 0.0654011C62.5567 0.146538 63.0553 0.297414 63.5229 0.537761C64.4953 1.03734 65.2692 1.74205 65.7842 2.70803C66.0806 3.26493 66.2761 3.85585 66.355 4.48096C66.4462 5.21204 66.3753 5.9307 66.1509 6.63303C65.8948 7.43283 65.4652 8.13091 64.8629 8.72114C64.1304 9.43878 63.2565 9.90043 62.2468 10.1069C61.9006 10.1775 61.5508 10.2139 61.1978 10.2097V8.747C61.1978 8.72625 61.1989 8.69546 61.1989 8.69546C61.1989 8.69546 61.2217 8.67981 61.2286 8.67522C61.7701 8.301 62.2813 7.89158 62.7227 7.40272C63.0111 7.08481 63.2599 6.74002 63.4333 6.34693C63.6787 5.79003 63.771 5.21408 63.6492 4.61295C63.4232 3.49865 62.4195 2.67231 61.2653 2.64782C61.1925 2.64782 61.1973 2.58335 61.1973 2.58335V1.52467Z" fill="#0585DD"/>
<path opacity="0.5" fill-rule="evenodd" clip-rule="evenodd" d="M73.3049 7.39402C73.3049 7.69614 73.2548 7.98748 73.1548 8.26804C73.0547 8.54859 72.9062 8.795 72.7099 9.00708C72.5135 9.21933 72.2669 9.38846 71.9704 9.51427C71.6738 9.64008 71.329 9.70316 70.9361 9.70316C70.3134 9.70316 69.8036 9.56279 69.4069 9.28224C69.0103 9.00168 68.7489 8.55578 68.623 7.94435L69.9352 7.64223C69.9797 7.89402 70.0855 8.09532 70.2522 8.24647C70.4191 8.39744 70.6248 8.47311 70.8694 8.47311C71.2697 8.47311 71.5423 8.3419 71.6869 8.07914C71.8314 7.81674 71.9037 7.45513 71.9037 6.99485V1.86938H73.3049V7.39402Z" fill="#2D3241"/>
<path opacity="0.5" fill-rule="evenodd" clip-rule="evenodd" d="M81.0342 6.70333C81.0342 7.16379 80.9525 7.57914 80.7895 7.94956C80.6265 8.32016 80.404 8.63468 80.1223 8.89367C79.8404 9.15265 79.5068 9.35233 79.1214 9.49252C78.7358 9.63289 78.317 9.70298 77.8647 9.70298C77.4124 9.70298 76.9936 9.63289 76.608 9.49252C76.2224 9.35233 75.8869 9.15265 75.6016 8.89367C75.3162 8.63468 75.0936 8.32016 74.9343 7.94956C74.7748 7.57914 74.6953 7.16379 74.6953 6.70333V1.86938H76.0965V6.6602C76.0965 6.84729 76.1259 7.04319 76.1855 7.24826C76.2448 7.45315 76.3429 7.64205 76.4803 7.81476C76.6172 7.9873 76.7989 8.12947 77.0252 8.2409C77.2512 8.35251 77.5311 8.40822 77.8647 8.40822C78.1983 8.40822 78.4782 8.35251 78.7044 8.2409C78.9304 8.12947 79.1121 7.9873 79.2493 7.81476C79.3864 7.64205 79.4846 7.45315 79.5441 7.24826C79.6032 7.04319 79.633 6.84729 79.633 6.6602V1.86938H81.0342V6.70333Z" fill="#2D3241"/>
<path opacity="0.5" fill-rule="evenodd" clip-rule="evenodd" d="M86.3381 3.50959C86.1897 3.30111 85.9914 3.14816 85.7431 3.05093C85.4947 2.95387 85.2332 2.90535 84.9591 2.90535C84.7958 2.90535 84.6384 2.92332 84.4864 2.95926C84.3343 2.99539 84.1973 3.0529 84.075 3.13198C83.9526 3.21124 83.8543 3.31369 83.7802 3.4395C83.7061 3.56549 83.6691 3.71466 83.6691 3.8872C83.6691 4.14618 83.7617 4.34406 83.9471 4.48066C84.1323 4.61743 84.3622 4.73605 84.6365 4.8367C84.9108 4.93752 85.211 5.03476 85.5374 5.12803C85.8635 5.22167 86.1638 5.35108 86.4381 5.51661C86.7124 5.68213 86.9422 5.9014 87.1277 6.17477C87.3129 6.44813 87.4057 6.81136 87.4057 7.26445C87.4057 7.67459 87.3279 8.03243 87.1723 8.33814C87.0165 8.64404 86.8069 8.89764 86.5438 9.09893C86.2806 9.30022 85.9747 9.45138 85.6263 9.55202C85.2777 9.65267 84.9108 9.70317 84.5254 9.70317C84.036 9.70317 83.565 9.62391 83.1129 9.46575C82.6606 9.30759 82.2714 9.04142 81.9453 8.66722L83.0018 7.67459C83.1722 7.92639 83.3965 8.12229 83.6746 8.26266C83.9526 8.40285 84.2473 8.47312 84.5587 8.47312C84.7217 8.47312 84.8847 8.45137 85.048 8.40824C85.211 8.3651 85.3594 8.3004 85.4929 8.21413C85.6263 8.12768 85.7337 8.01823 85.8154 7.88487C85.8969 7.75187 85.9378 7.59911 85.9378 7.42639C85.9378 7.14583 85.845 6.92998 85.6598 6.77901C85.4742 6.62786 85.2444 6.50025 84.9701 6.39601C84.6958 6.29177 84.3955 6.19274 84.0694 6.09928C83.743 6.00582 83.4428 5.87804 83.1686 5.7161C82.8943 5.55435 82.6643 5.3385 82.4791 5.06872C82.2937 4.79895 82.2009 4.43752 82.2009 3.98443C82.2009 3.58885 82.2845 3.24701 82.4512 2.95926C82.6181 2.6717 82.8368 2.43248 83.1074 2.24179C83.378 2.05128 83.6874 1.90912 84.036 1.81548C84.3844 1.7222 84.7404 1.67529 85.1036 1.67529C85.5187 1.67529 85.9211 1.7364 86.3104 1.85861C86.6995 1.98101 87.0499 2.1823 87.3612 2.46286L86.3381 3.50959Z" fill="#2D3241"/>
<path fill-rule="evenodd" clip-rule="evenodd" d="M88.584 1.86938H91.2308C91.609 1.86938 91.974 1.90551 92.3262 1.97722C92.6783 2.04929 92.9879 2.16989 93.2548 2.33883C93.5217 2.50778 93.7348 2.73441 93.8943 3.01856C94.0536 3.30271 94.1335 3.65695 94.1335 4.08129C94.1335 4.56332 94.0481 4.95189 93.8777 5.24664C93.7069 5.54175 93.4773 5.77001 93.188 5.93176C92.899 6.0937 92.5635 6.20351 92.1816 6.26102C91.7997 6.31853 91.4012 6.34729 90.9861 6.34729H89.9852V9.50869H88.584V1.86938Z" fill="#444444" fill-opacity="0.7"/>
<path fill-rule="evenodd" clip-rule="evenodd" d="M96.8256 1.86938H98.0377L101.43 9.50887H99.8282L99.0942 7.76085H95.6801L94.9683 9.50887H93.4004L96.8256 1.86938Z" fill="#444444" fill-opacity="0.7"/>
<path opacity="0.5" fill-rule="evenodd" clip-rule="evenodd" d="M103.13 6.23945L100.172 1.86938H101.929L103.864 4.91235L105.821 1.86938H107.49L104.531 6.23945V9.50887H103.13V6.23945Z" fill="#2D3241"/>
<path opacity="0.5" d="M2.76928 8.072C2.29528 8.072 1.83628 8 1.39228 7.856C0.954281 7.706 0.609281 7.514 0.357281 7.28L0.690281 6.578C0.930281 6.794 1.23628 6.971 1.60828 7.109C1.98628 7.241 2.37328 7.307 2.76928 7.307C3.29128 7.307 3.68128 7.22 3.93928 7.046C4.19728 6.866 4.32628 6.629 4.32628 6.335C4.32628 6.119 4.25428 5.945 4.11028 5.813C3.97228 5.675 3.79828 5.57 3.58828 5.498C3.38428 5.426 3.09328 5.345 2.71528 5.255C2.24128 5.141 1.85728 5.027 1.56328 4.913C1.27528 4.799 1.02628 4.625 0.816281 4.391C0.612281 4.151 0.510281 3.83 0.510281 3.428C0.510281 3.092 0.597281 2.789 0.771281 2.519C0.951281 2.249 1.22128 2.033 1.58128 1.871C1.94128 1.709 2.38828 1.628 2.92228 1.628C3.29428 1.628 3.66028 1.676 4.02028 1.772C4.38028 1.868 4.68928 2.006 4.94728 2.186L4.65028 2.906C4.38628 2.738 4.10428 2.612 3.80428 2.528C3.50428 2.438 3.21028 2.393 2.92228 2.393C2.41228 2.393 2.02828 2.486 1.77028 2.672C1.51828 2.858 1.39228 3.098 1.39228 3.392C1.39228 3.608 1.46428 3.785 1.60828 3.923C1.75228 4.055 1.92928 4.16 2.13928 4.238C2.35528 4.31 2.64628 4.388 3.01228 4.472C3.48628 4.586 3.86728 4.7 4.15528 4.814C4.44328 4.928 4.68928 5.102 4.89328 5.336C5.10328 5.57 5.20828 5.885 5.20828 6.281C5.20828 6.611 5.11828 6.914 4.93828 7.19C4.75828 7.46 4.48528 7.676 4.11928 7.838C3.75328 7.994 3.30328 8.072 2.76928 8.072ZM10.7081 5.642C10.7081 5.708 10.7021 5.795 10.6901 5.903H6.82013C6.87413 6.323 7.05713 6.662 7.36913 6.92C7.68713 7.172 8.08013 7.298 8.54813 7.298C9.11813 7.298 9.57713 7.106 9.92513 6.722L10.4021 7.28C10.1861 7.532 9.91613 7.724 9.59213 7.856C9.27413 7.988 8.91713 8.054 8.52113 8.054C8.01713 8.054 7.57013 7.952 7.18013 7.748C6.79013 7.538 6.48713 7.247 6.27113 6.875C6.06113 6.503 5.95613 6.083 5.95613 5.615C5.95613 5.153 6.05813 4.736 6.26213 4.364C6.47213 3.992 6.75713 3.704 7.11713 3.5C7.48313 3.29 7.89413 3.185 8.35013 3.185C8.80613 3.185 9.21113 3.29 9.56513 3.5C9.92513 3.704 10.2041 3.992 10.4021 4.364C10.6061 4.736 10.7081 5.162 10.7081 5.642ZM8.35013 3.914C7.93613 3.914 7.58813 4.04 7.30613 4.292C7.03013 4.544 6.86813 4.874 6.82013 5.282H9.88013C9.83213 4.88 9.66713 4.553 9.38513 4.301C9.10913 4.043 8.76413 3.914 8.35013 3.914ZM13.9869 8.054C13.5009 8.054 13.0659 7.949 12.6819 7.739C12.3039 7.529 12.0069 7.241 11.7909 6.875C11.5749 6.503 11.4669 6.083 11.4669 5.615C11.4669 5.147 11.5749 4.73 11.7909 4.364C12.0069 3.992 12.3039 3.704 12.6819 3.5C13.0659 3.29 13.5009 3.185 13.9869 3.185C14.4189 3.185 14.8029 3.272 15.1389 3.446C15.4809 3.62 15.7449 3.872 15.9309 4.202L15.2739 4.625C15.1239 4.397 14.9379 4.226 14.7159 4.112C14.4939 3.998 14.2479 3.941 13.9779 3.941C13.6659 3.941 13.3839 4.01 13.1319 4.148C12.8859 4.286 12.6909 4.484 12.5469 4.742C12.4089 4.994 12.3399 5.285 12.3399 5.615C12.3399 5.951 12.4089 6.248 12.5469 6.506C12.6909 6.758 12.8859 6.953 13.1319 7.091C13.3839 7.229 13.6659 7.298 13.9779 7.298C14.2479 7.298 14.4939 7.241 14.7159 7.127C14.9379 7.013 15.1239 6.842 15.2739 6.614L15.9309 7.028C15.7449 7.358 15.4809 7.613 15.1389 7.793C14.8029 7.967 14.4189 8.054 13.9869 8.054ZM21.4955 3.23V8H20.6765V7.28C20.5025 7.526 20.2715 7.718 19.9835 7.856C19.7015 7.988 19.3925 8.054 19.0565 8.054C18.4205 8.054 17.9195 7.88 17.5535 7.532C17.1875 7.178 17.0045 6.659 17.0045 5.975V3.23H17.8685V5.876C17.8685 6.338 17.9795 6.689 18.2015 6.929C18.4235 7.163 18.7415 7.28 19.1555 7.28C19.6115 7.28 19.9715 7.142 20.2355 6.866C20.4995 6.59 20.6315 6.2 20.6315 5.696V3.23H21.4955ZM23.9683 4.031C24.1183 3.755 24.3403 3.545 24.6343 3.401C24.9283 3.257 25.2853 3.185 25.7053 3.185V4.022C25.6573 4.016 25.5913 4.013 25.5073 4.013C25.0393 4.013 24.6703 4.154 24.4003 4.436C24.1363 4.712 24.0043 5.108 24.0043 5.624V8H23.1403V3.23H23.9683V4.031ZM31.0372 5.642C31.0372 5.708 31.0312 5.795 31.0192 5.903H27.1492C27.2032 6.323 27.3862 6.662 27.6982 6.92C28.0162 7.172 28.4092 7.298 28.8772 7.298C29.4472 7.298 29.9062 7.106 30.2542 6.722L30.7312 7.28C30.5152 7.532 30.2452 7.724 29.9212 7.856C29.6032 7.988 29.2462 8.054 28.8502 8.054C28.3462 8.054 27.8992 7.952 27.5092 7.748C27.1192 7.538 26.8162 7.247 26.6002 6.875C26.3902 6.503 26.2852 6.083 26.2852 5.615C26.2852 5.153 26.3872 4.736 26.5912 4.364C26.8012 3.992 27.0862 3.704 27.4462 3.5C27.8122 3.29 28.2232 3.185 28.6792 3.185C29.1352 3.185 29.5402 3.29 29.8942 3.5C30.2542 3.704 30.5332 3.992 30.7312 4.364C30.9352 4.736 31.0372 5.162 31.0372 5.642ZM28.6792 3.914C28.2652 3.914 27.9172 4.04 27.6352 4.292C27.3592 4.544 27.1972 4.874 27.1492 5.282H30.2092C30.1612 4.88 29.9962 4.553 29.7142 4.301C29.4382 4.043 29.0932 3.914 28.6792 3.914ZM36.737 1.322V8H35.909V7.244C35.717 7.508 35.474 7.709 35.18 7.847C34.886 7.985 34.562 8.054 34.208 8.054C33.746 8.054 33.332 7.952 32.966 7.748C32.6 7.544 32.312 7.259 32.102 6.893C31.898 6.521 31.796 6.095 31.796 5.615C31.796 5.135 31.898 4.712 32.102 4.346C32.312 3.98 32.6 3.695 32.966 3.491C33.332 3.287 33.746 3.185 34.208 3.185C34.55 3.185 34.865 3.251 35.153 3.383C35.441 3.509 35.681 3.698 35.873 3.95V1.322H36.737ZM34.28 7.298C34.58 7.298 34.853 7.229 35.099 7.091C35.345 6.947 35.537 6.749 35.675 6.497C35.813 6.239 35.882 5.945 35.882 5.615C35.882 5.285 35.813 4.994 35.675 4.742C35.537 4.484 35.345 4.286 35.099 4.148C34.853 4.01 34.58 3.941 34.28 3.941C33.974 3.941 33.698 4.01 33.452 4.148C33.212 4.286 33.02 4.484 32.876 4.742C32.738 4.994 32.669 5.285 32.669 5.615C32.669 5.945 32.738 6.239 32.876 6.497C33.02 6.749 33.212 6.947 33.452 7.091C33.698 7.229 33.974 7.298 34.28 7.298ZM43.3177 3.185C43.7797 3.185 44.1937 3.287 44.5597 3.491C44.9257 3.695 45.2107 3.98 45.4147 4.346C45.6247 4.712 45.7297 5.135 45.7297 5.615C45.7297 6.095 45.6247 6.521 45.4147 6.893C45.2107 7.259 44.9257 7.544 44.5597 7.748C44.1937 7.952 43.7797 8.054 43.3177 8.054C42.9637 8.054 42.6397 7.985 42.3457 7.847C42.0517 7.709 41.8087 7.508 41.6167 7.244V8H40.7887V1.322H41.6527V3.95C41.8447 3.698 42.0847 3.509 42.3727 3.383C42.6607 3.251 42.9757 3.185 43.3177 3.185ZM43.2457 7.298C43.5517 7.298 43.8247 7.229 44.0647 7.091C44.3107 6.947 44.5027 6.749 44.6407 6.497C44.7847 6.239 44.8567 5.945 44.8567 5.615C44.8567 5.285 44.7847 4.994 44.6407 4.742C44.5027 4.484 44.3107 4.286 44.0647 4.148C43.8247 4.01 43.5517 3.941 43.2457 3.941C42.9457 3.941 42.6727 4.01 42.4267 4.148C42.1807 4.286 41.9887 4.484 41.8507 4.742C41.7127 4.994 41.6437 5.285 41.6437 5.615C41.6437 5.945 41.7127 6.239 41.8507 6.497C41.9887 6.749 42.1807 6.947 42.4267 7.091C42.6727 7.229 42.9457 7.298 43.2457 7.298ZM51.0127 3.23L48.6997 8.477C48.4957 8.963 48.2557 9.305 47.9797 9.503C47.7097 9.701 47.3827 9.8 46.9987 9.8C46.7647 9.8 46.5367 9.761 46.3147 9.683C46.0987 9.611 45.9187 9.503 45.7747 9.359L46.1437 8.711C46.3897 8.945 46.6747 9.062 46.9987 9.062C47.2087 9.062 47.3827 9.005 47.5207 8.891C47.6647 8.783 47.7937 8.594 47.9077 8.324L48.0607 7.991L45.9547 3.23H46.8547L48.5197 7.046L50.1667 3.23H51.0127Z" fill="#2D3241"/>
</svg>
