<svg width="281" height="73" viewBox="0 0 281 73" fill="none" xmlns="http://www.w3.org/2000/svg">
<path d="M84.2907 30.6072C83.5558 30.6276 82.8413 30.5664 82.1063 30.4644C80.1261 30.1788 78.2684 29.5463 76.5536 28.5058C72.7565 26.2206 70.3272 22.895 69.3269 18.5288C69.1023 17.5495 69.0002 16.5497 69.0002 15.55C68.9798 11.5511 70.2863 8.0418 72.9402 5.063C75.2471 2.49225 78.1051 0.921239 81.4735 0.268352C82.4126 0.0847269 83.3516 -0.0172869 84.2907 0.0235186C84.2907 1.55372 84.2907 3.06353 84.2907 4.59373C84.2499 4.61414 84.209 4.63454 84.1682 4.67534C83.617 5.063 83.0658 5.47105 82.535 5.89951C81.3306 6.87884 80.1874 7.91938 79.2279 9.16395C77.9418 10.8166 77.0844 12.6324 76.9619 14.7747C76.9006 15.7948 77.0231 16.7946 77.3498 17.7535C78.1459 20.1406 80.6161 22.6094 84.0865 22.6706C84.2907 22.6706 84.3315 22.7114 84.3315 22.9358C84.3111 23.9763 84.3111 26.0574 84.3111 26.0574C84.3111 26.0574 84.3111 26.1798 84.3111 26.241C84.2907 27.6896 84.2907 29.1382 84.2907 30.6072Z" fill="#EFEFEF"/>
<path d="M84.2906 4.57334C84.2906 4.57334 84.2906 1.53333 84.2906 0.00312455C85.1276 -0.0172782 85.9442 0.0643328 86.7607 0.186749C88.2918 0.431582 89.7617 0.880443 91.1499 1.59454C94.0283 3.08394 96.2943 5.20582 97.8254 8.10301C98.7032 9.77604 99.2748 11.5511 99.4994 13.4077C99.7648 15.5908 99.5606 17.7535 98.9074 19.855C98.152 22.2421 96.8863 24.3436 95.1103 26.1186C92.9463 28.2609 90.3741 29.6483 87.3936 30.2808C86.3729 30.4848 85.3317 30.6072 84.2906 30.5868C84.2906 29.1178 84.2906 27.6692 84.2906 26.2003C84.2906 26.139 84.2906 26.037 84.2906 26.037C84.2906 26.037 84.3518 25.9962 84.3722 25.9758C85.9646 24.8537 87.4752 23.6295 88.7818 22.1605C89.6392 21.2016 90.3741 20.1814 90.8845 18.9981C91.599 17.3251 91.8848 15.6112 91.5173 13.7954C90.864 10.4901 87.9039 8.0214 84.4947 7.93979C84.2702 7.93979 84.2906 7.75617 84.2906 7.75617V4.57334Z" fill="#FDFDFD"/>
<g clip-path="url(#clip0_40_1055)">
<path d="M123.735 19.3029C123.735 20.0989 123.601 20.8571 123.351 21.5963C123.101 22.3355 122.698 22.9799 122.198 23.5485C121.679 24.1171 121.045 24.553 120.277 24.8942C119.508 25.2164 118.605 25.387 117.606 25.387C115.993 25.387 114.667 25.0079 113.649 24.2687C112.611 23.5295 111.939 22.3544 111.612 20.7434L115.013 19.9473C115.128 20.6107 115.397 21.1414 115.839 21.5394C116.262 21.9374 116.799 22.127 117.433 22.127C118.471 22.127 119.182 21.7858 119.547 21.0845C119.912 20.4022 120.104 19.4356 120.104 18.2225V4.74655H123.735V19.3029Z" fill="white"/>
<path d="M143.754 17.4831C143.754 18.6961 143.543 19.7954 143.12 20.762C142.697 21.7476 142.121 22.5626 141.391 23.245C140.661 23.9273 139.796 24.458 138.797 24.8181C137.798 25.1972 136.703 25.3678 135.531 25.3678C134.359 25.3678 133.264 25.1782 132.284 24.8181C131.285 24.458 130.421 23.9273 129.672 23.245C128.922 22.5626 128.346 21.7287 127.943 20.762C127.52 19.7954 127.328 18.6961 127.328 17.4831V4.74628H130.959V17.3693C130.959 17.8621 131.036 18.3739 131.189 18.9235C131.343 19.4542 131.593 19.966 131.958 20.4209C132.304 20.8758 132.784 21.2548 133.38 21.5391C133.956 21.8424 134.686 21.9751 135.551 21.9751C136.415 21.9751 137.145 21.8234 137.721 21.5391C138.298 21.2548 138.778 20.8758 139.143 20.4209C139.489 19.966 139.758 19.4732 139.912 18.9235C140.065 18.3739 140.142 17.8621 140.142 17.3693V4.74628H143.773L143.754 17.4831Z" fill="white"/>
<path d="M157.51 9.06851C157.126 8.51886 156.607 8.12083 155.973 7.85548C155.32 7.59013 154.647 7.47641 153.936 7.47641C153.514 7.47641 153.11 7.53327 152.707 7.62804C152.303 7.72281 151.957 7.87443 151.65 8.08292C151.323 8.29141 151.074 8.55676 150.882 8.89793C150.689 9.23909 150.593 9.61816 150.593 10.073C150.593 10.7554 150.824 11.2861 151.323 11.6272C151.804 11.9874 152.399 12.3096 153.11 12.556C153.821 12.8213 154.59 13.0867 155.435 13.3331C156.28 13.5795 157.049 13.9206 157.779 14.3566C158.49 14.7925 159.085 15.38 159.565 16.0813C160.046 16.8016 160.296 17.7682 160.296 18.9433C160.296 20.0237 160.103 20.9713 159.7 21.7674C159.296 22.5824 158.759 23.2458 158.067 23.7765C157.375 24.3072 156.588 24.7052 155.685 24.9705C154.782 25.2359 153.821 25.3686 152.841 25.3686C151.573 25.3686 150.344 25.1601 149.191 24.7431C148.019 24.3261 147.001 23.6248 146.155 22.6393L148.903 20.0237C149.345 20.687 149.921 21.1988 150.651 21.5779C151.381 21.9569 152.13 22.1275 152.937 22.1275C153.36 22.1275 153.783 22.0707 154.205 21.9569C154.628 21.8432 155.012 21.6726 155.358 21.4452C155.704 21.2177 155.973 20.9334 156.184 20.5733C156.395 20.2322 156.511 19.8152 156.511 19.3603C156.511 18.6211 156.261 18.0525 155.781 17.6545C155.3 17.2564 154.705 16.9153 153.994 16.6499C153.283 16.3846 152.495 16.1192 151.65 15.8728C150.805 15.6264 150.017 15.2853 149.325 14.8683C148.615 14.4513 148.019 13.8827 147.539 13.1625C147.058 12.4422 146.809 11.4946 146.809 10.3005C146.809 9.25804 147.02 8.36723 147.462 7.60908C147.885 6.85094 148.461 6.22548 149.172 5.71373C149.863 5.22094 150.67 4.84187 151.573 4.59547C152.476 4.34907 153.398 4.23535 154.34 4.23535C155.416 4.23535 156.453 4.40593 157.471 4.70919C158.47 5.0314 159.393 5.5621 160.199 6.30129L157.51 9.06851Z" fill="white"/>
<path fill-rule="evenodd" clip-rule="evenodd" d="M170.19 4.74628H163.331L163.312 24.875H166.943V16.5354H169.536C170.612 16.5354 171.631 16.4596 172.63 16.3079C173.629 16.1563 174.493 15.8531 175.242 15.4361C175.992 15.0191 176.587 14.4126 177.029 13.6355C177.471 12.8584 177.702 11.8349 177.702 10.565C177.702 9.44676 177.49 8.51804 177.087 7.75989C176.683 7.0207 176.126 6.43314 175.434 5.97826C174.743 5.54233 173.936 5.22012 173.033 5.03058C172.111 4.84104 171.169 4.74628 170.19 4.74628ZM170.766 13.427C170.209 13.4649 169.671 13.4838 169.153 13.4838H166.943V7.81673H169.537C170.017 7.81673 170.517 7.85464 171.035 7.9115C171.554 7.96836 172.034 8.08208 172.457 8.29057C172.88 8.48011 173.226 8.76441 173.495 9.14348C173.764 9.52255 173.898 10.0153 173.898 10.6408C173.898 11.3231 173.744 11.8538 173.456 12.2329C173.149 12.612 172.765 12.8963 172.303 13.0858C171.842 13.2754 171.324 13.3891 170.766 13.427Z" fill="white"/>
<path fill-rule="evenodd" clip-rule="evenodd" d="M187.807 4.74628H184.676L175.8 24.875H179.873L181.717 20.2692H190.555L192.457 24.875H196.606L187.807 4.74628ZM186.136 9.01123L189.287 17.1992H182.947L186.136 9.01123Z" fill="white"/>
<path d="M201.025 16.27L193.359 4.74628H197.913L202.927 12.7636L207.999 4.74628H212.322L204.656 16.27V24.8939H201.025V16.27Z" fill="white"/>
</g>
<path opacity="0.65" d="M8.87238 61.1351H8.80238L8.03238 62.7171L5.89038 66.6231L3.74838 62.7171L2.97838 61.1351H2.90838V68.6111H1.39638V58.8391H3.27238L5.89038 63.8091H5.97438L8.59238 58.8391H10.3844V68.6111H8.87238V61.1351ZM18.0207 68.6111C17.6194 68.6111 17.3114 68.4991 17.0967 68.2751C16.8821 68.0418 16.7514 67.7478 16.7047 67.3931H16.6347C16.4947 67.8505 16.2381 68.1958 15.8647 68.4291C15.4914 68.6625 15.0387 68.7791 14.5067 68.7791C13.7507 68.7791 13.1674 68.5831 12.7567 68.1911C12.3554 67.7991 12.1547 67.2718 12.1547 66.6091C12.1547 65.8811 12.4161 65.3351 12.9387 64.9711C13.4707 64.6071 14.2454 64.4251 15.2627 64.4251H16.5787V63.8091C16.5787 63.3611 16.4574 63.0158 16.2147 62.7731C15.9721 62.5305 15.5941 62.4091 15.0807 62.4091C14.6514 62.4091 14.3014 62.5025 14.0307 62.6891C13.7601 62.8758 13.5314 63.1138 13.3447 63.4031L12.4347 62.5771C12.6774 62.1665 13.0181 61.8305 13.4567 61.5691C13.8954 61.2985 14.4694 61.1631 15.1787 61.1631C16.1214 61.1631 16.8447 61.3825 17.3487 61.8211C17.8527 62.2598 18.1047 62.8898 18.1047 63.7111V67.3651H18.8747V68.6111H18.0207ZM14.9407 67.6171C15.4167 67.6171 15.8087 67.5145 16.1167 67.3091C16.4247 67.0945 16.5787 66.8098 16.5787 66.4551V65.4051H15.2907C14.2361 65.4051 13.7087 65.7318 13.7087 66.3851V66.6371C13.7087 66.9638 13.8161 67.2111 14.0307 67.3791C14.2547 67.5378 14.5581 67.6171 14.9407 67.6171ZM20.3703 58.2511H21.8963V64.6071H21.9663L22.9743 63.3051L24.7243 61.3311H26.5023L23.9543 64.1451L26.8103 68.6111H24.9903L22.9043 65.1391L21.8963 66.2311V68.6111H20.3703V58.2511ZM28.7966 60.0291C28.4792 60.0291 28.2459 59.9545 28.0966 59.8051C27.9566 59.6558 27.8866 59.4645 27.8866 59.2311V58.9931C27.8866 58.7598 27.9566 58.5685 28.0966 58.4191C28.2459 58.2698 28.4792 58.1951 28.7966 58.1951C29.1139 58.1951 29.3426 58.2698 29.4826 58.4191C29.6226 58.5685 29.6926 58.7598 29.6926 58.9931V59.2311C29.6926 59.4645 29.6226 59.6558 29.4826 59.8051C29.3426 59.9545 29.1139 60.0291 28.7966 60.0291ZM28.0266 61.3311H29.5526V68.6111H28.0266V61.3311ZM31.7316 68.6111V61.3311H33.2576V62.5351H33.3276C33.4863 62.1431 33.7243 61.8165 34.0416 61.5551C34.3683 61.2938 34.8116 61.1631 35.3716 61.1631C36.1183 61.1631 36.697 61.4105 37.1076 61.9051C37.5276 62.3905 37.7376 63.0858 37.7376 63.9911V68.6111H36.2116V64.1871C36.2116 63.0485 35.7543 62.4791 34.8396 62.4791C34.6436 62.4791 34.4476 62.5071 34.2516 62.5631C34.065 62.6098 33.897 62.6845 33.7476 62.7871C33.5983 62.8898 33.477 63.0205 33.3836 63.1791C33.2996 63.3378 33.2576 63.5245 33.2576 63.7391V68.6111H31.7316ZM46.2367 69.2971C46.2367 70.0531 45.9474 70.6225 45.3687 71.0051C44.7901 71.3878 43.8474 71.5791 42.5407 71.5791C41.9434 71.5791 41.4347 71.5371 41.0147 71.4531C40.6041 71.3785 40.2634 71.2665 39.9927 71.1171C39.7314 70.9678 39.5401 70.7858 39.4187 70.5711C39.2974 70.3565 39.2367 70.1091 39.2367 69.8291C39.2367 69.4278 39.3441 69.1151 39.5587 68.8911C39.7827 68.6671 40.0907 68.5131 40.4827 68.4291V68.2751C39.9321 68.0978 39.6567 67.7245 39.6567 67.1551C39.6567 66.7818 39.7827 66.4971 40.0347 66.3011C40.2867 66.0958 40.5901 65.9511 40.9447 65.8671V65.8111C40.5154 65.6058 40.1841 65.3211 39.9507 64.9571C39.7267 64.5838 39.6147 64.1498 39.6147 63.6551C39.6147 62.9085 39.8621 62.3065 40.3567 61.8491C40.8607 61.3918 41.5794 61.1631 42.5127 61.1631C43.0261 61.1631 43.4647 61.2378 43.8287 61.3871V61.1911C43.8287 60.8645 43.9034 60.6125 44.0527 60.4351C44.2114 60.2485 44.4541 60.1551 44.7807 60.1551H45.9007V61.3871H44.4167V61.6811C44.7434 61.8958 44.9954 62.1758 45.1727 62.5211C45.3501 62.8571 45.4387 63.2351 45.4387 63.6551C45.4387 64.3925 45.1867 64.9898 44.6827 65.4471C44.1787 65.8951 43.4601 66.1191 42.5267 66.1191C42.1721 66.1191 41.8547 66.0818 41.5747 66.0071C41.3881 66.0725 41.2247 66.1658 41.0847 66.2871C40.9447 66.3991 40.8747 66.5485 40.8747 66.7351C40.8747 66.9311 40.9634 67.0711 41.1407 67.1551C41.3181 67.2391 41.5701 67.2811 41.8967 67.2811H43.6887C44.5847 67.2811 45.2334 67.4631 45.6347 67.8271C46.0361 68.1818 46.2367 68.6718 46.2367 69.2971ZM44.8087 69.4651C44.8087 69.2131 44.7107 69.0125 44.5147 68.8631C44.3281 68.7138 43.9827 68.6391 43.4787 68.6391H41.0147C40.6787 68.8351 40.5107 69.1151 40.5107 69.4791C40.5107 69.7778 40.6274 70.0158 40.8607 70.1931C41.1034 70.3798 41.5094 70.4731 42.0787 70.4731H43.0307C44.2161 70.4731 44.8087 70.1371 44.8087 69.4651ZM42.5267 65.0131C42.9747 65.0131 43.3201 64.9151 43.5627 64.7191C43.8147 64.5138 43.9407 64.2011 43.9407 63.7811V63.5011C43.9407 63.0811 43.8147 62.7731 43.5627 62.5771C43.3201 62.3718 42.9747 62.2691 42.5267 62.2691C42.0787 62.2691 41.7287 62.3718 41.4767 62.5771C41.2341 62.7731 41.1127 63.0811 41.1127 63.5011V63.7811C41.1127 64.2011 41.2341 64.5138 41.4767 64.7191C41.7287 64.9151 42.0787 65.0131 42.5267 65.0131ZM50.7929 58.8391H54.2509C54.8762 58.8391 55.4409 58.9418 55.9449 59.1471C56.4582 59.3525 56.8922 59.6605 57.2469 60.0711C57.6109 60.4725 57.8909 60.9811 58.0869 61.5971C58.2829 62.2038 58.3809 62.9131 58.3809 63.7251C58.3809 64.5371 58.2829 65.2511 58.0869 65.8671C57.8909 66.4738 57.6109 66.9825 57.2469 67.3931C56.8922 67.7945 56.4582 68.0978 55.9449 68.3031C55.4409 68.5085 54.8762 68.6111 54.2509 68.6111H50.7929V58.8391ZM54.2509 67.2111C54.9789 67.2111 55.5669 66.9825 56.0149 66.5251C56.4629 66.0678 56.6869 65.3958 56.6869 64.5091V62.9411C56.6869 62.0545 56.4629 61.3825 56.0149 60.9251C55.5669 60.4678 54.9789 60.2391 54.2509 60.2391H52.3749V67.2111H54.2509ZM61.0075 60.0291C60.6902 60.0291 60.4568 59.9545 60.3075 59.8051C60.1675 59.6558 60.0975 59.4645 60.0975 59.2311V58.9931C60.0975 58.7598 60.1675 58.5685 60.3075 58.4191C60.4568 58.2698 60.6902 58.1951 61.0075 58.1951C61.3248 58.1951 61.5535 58.2698 61.6935 58.4191C61.8335 58.5685 61.9035 58.7598 61.9035 58.9931V59.2311C61.9035 59.4645 61.8335 59.6558 61.6935 59.8051C61.5535 59.9545 61.3248 60.0291 61.0075 60.0291ZM60.2375 61.3311H61.7635V68.6111H60.2375V61.3311ZM70.3266 69.2971C70.3266 70.0531 70.0373 70.6225 69.4586 71.0051C68.8799 71.3878 67.9373 71.5791 66.6306 71.5791C66.0333 71.5791 65.5246 71.5371 65.1046 71.4531C64.6939 71.3785 64.3533 71.2665 64.0826 71.1171C63.8213 70.9678 63.6299 70.7858 63.5086 70.5711C63.3873 70.3565 63.3266 70.1091 63.3266 69.8291C63.3266 69.4278 63.4339 69.1151 63.6486 68.8911C63.8726 68.6671 64.1806 68.5131 64.5726 68.4291V68.2751C64.0219 68.0978 63.7466 67.7245 63.7466 67.1551C63.7466 66.7818 63.8726 66.4971 64.1246 66.3011C64.3766 66.0958 64.6799 65.9511 65.0346 65.8671V65.8111C64.6053 65.6058 64.2739 65.3211 64.0406 64.9571C63.8166 64.5838 63.7046 64.1498 63.7046 63.6551C63.7046 62.9085 63.9519 62.3065 64.4466 61.8491C64.9506 61.3918 65.6693 61.1631 66.6026 61.1631C67.1159 61.1631 67.5546 61.2378 67.9186 61.3871V61.1911C67.9186 60.8645 67.9933 60.6125 68.1426 60.4351C68.3013 60.2485 68.5439 60.1551 68.8706 60.1551H69.9906V61.3871H68.5066V61.6811C68.8333 61.8958 69.0853 62.1758 69.2626 62.5211C69.4399 62.8571 69.5286 63.2351 69.5286 63.6551C69.5286 64.3925 69.2766 64.9898 68.7726 65.4471C68.2686 65.8951 67.5499 66.1191 66.6166 66.1191C66.2619 66.1191 65.9446 66.0818 65.6646 66.0071C65.4779 66.0725 65.3146 66.1658 65.1746 66.2871C65.0346 66.3991 64.9646 66.5485 64.9646 66.7351C64.9646 66.9311 65.0533 67.0711 65.2306 67.1551C65.4079 67.2391 65.6599 67.2811 65.9866 67.2811H67.7786C68.6746 67.2811 69.3233 67.4631 69.7246 67.8271C70.1259 68.1818 70.3266 68.6718 70.3266 69.2971ZM68.8986 69.4651C68.8986 69.2131 68.8006 69.0125 68.6046 68.8631C68.4179 68.7138 68.0726 68.6391 67.5686 68.6391H65.1046C64.7686 68.8351 64.6006 69.1151 64.6006 69.4791C64.6006 69.7778 64.7173 70.0158 64.9506 70.1931C65.1933 70.3798 65.5993 70.4731 66.1686 70.4731H67.1206C68.3059 70.4731 68.8986 70.1371 68.8986 69.4651ZM66.6166 65.0131C67.0646 65.0131 67.4099 64.9151 67.6526 64.7191C67.9046 64.5138 68.0306 64.2011 68.0306 63.7811V63.5011C68.0306 63.0811 67.9046 62.7731 67.6526 62.5771C67.4099 62.3718 67.0646 62.2691 66.6166 62.2691C66.1686 62.2691 65.8186 62.3718 65.5666 62.5771C65.3239 62.7731 65.2026 63.0811 65.2026 63.5011V63.7811C65.2026 64.2011 65.3239 64.5138 65.5666 64.7191C65.8186 64.9151 66.1686 65.0131 66.6166 65.0131ZM72.2321 60.0291C71.9148 60.0291 71.6815 59.9545 71.5321 59.8051C71.3921 59.6558 71.3221 59.4645 71.3221 59.2311V58.9931C71.3221 58.7598 71.3921 58.5685 71.5321 58.4191C71.6815 58.2698 71.9148 58.1951 72.2321 58.1951C72.5495 58.1951 72.7781 58.2698 72.9181 58.4191C73.0581 58.5685 73.1281 58.7598 73.1281 58.9931V59.2311C73.1281 59.4645 73.0581 59.6558 72.9181 59.8051C72.7781 59.9545 72.5495 60.0291 72.2321 60.0291ZM71.4621 61.3311H72.9881V68.6111H71.4621V61.3311ZM77.1832 68.6111C76.6512 68.6111 76.2499 68.4758 75.9792 68.2051C75.7085 67.9251 75.5732 67.5331 75.5732 67.0291V62.5771H74.4392V61.3311H75.0552C75.3072 61.3311 75.4799 61.2751 75.5732 61.1631C75.6759 61.0511 75.7272 60.8691 75.7272 60.6171V59.3431H77.0992V61.3311H78.6252V62.5771H77.0992V67.3651H78.5132V68.6111H77.1832ZM85.6145 68.6111C85.2131 68.6111 84.9051 68.4991 84.6905 68.2751C84.4758 68.0418 84.3451 67.7478 84.2985 67.3931H84.2285C84.0885 67.8505 83.8318 68.1958 83.4585 68.4291C83.0851 68.6625 82.6325 68.7791 82.1005 68.7791C81.3445 68.7791 80.7611 68.5831 80.3505 68.1911C79.9491 67.7991 79.7485 67.2718 79.7485 66.6091C79.7485 65.8811 80.0098 65.3351 80.5325 64.9711C81.0645 64.6071 81.8391 64.4251 82.8565 64.4251H84.1725V63.8091C84.1725 63.3611 84.0511 63.0158 83.8085 62.7731C83.5658 62.5305 83.1878 62.4091 82.6745 62.4091C82.2451 62.4091 81.8951 62.5025 81.6245 62.6891C81.3538 62.8758 81.1251 63.1138 80.9385 63.4031L80.0285 62.5771C80.2711 62.1665 80.6118 61.8305 81.0505 61.5691C81.4891 61.2985 82.0631 61.1631 82.7725 61.1631C83.7151 61.1631 84.4385 61.3825 84.9425 61.8211C85.4465 62.2598 85.6985 62.8898 85.6985 63.7111V67.3651H86.4685V68.6111H85.6145ZM82.5345 67.6171C83.0105 67.6171 83.4025 67.5145 83.7105 67.3091C84.0185 67.0945 84.1725 66.8098 84.1725 66.4551V65.4051H82.8845C81.8298 65.4051 81.3025 65.7318 81.3025 66.3851V66.6371C81.3025 66.9638 81.4098 67.2111 81.6245 67.3791C81.8485 67.5378 82.1518 67.6171 82.5345 67.6171ZM89.5181 68.6111C88.9954 68.6111 88.6034 68.4805 88.3421 68.2191C88.0901 67.9485 87.9641 67.5751 87.9641 67.0991V58.2511H89.4901V67.3651H90.4981V68.6111H89.5181ZM95.3769 68.6111V58.8391H99.5769C100.482 58.8391 101.182 59.1051 101.677 59.6371C102.172 60.1691 102.419 60.8831 102.419 61.7791C102.419 62.6751 102.172 63.3891 101.677 63.9211C101.182 64.4531 100.482 64.7191 99.5769 64.7191H96.9589V68.6111H95.3769ZM96.9589 63.3331H99.4789C99.8802 63.3331 100.193 63.2305 100.417 63.0251C100.641 62.8105 100.753 62.5071 100.753 62.1151V61.4431C100.753 61.0511 100.641 60.7525 100.417 60.5471C100.193 60.3325 99.8802 60.2251 99.4789 60.2251H96.9589V63.3331ZM109.212 68.6111C108.811 68.6111 108.503 68.4991 108.288 68.2751C108.073 68.0418 107.943 67.7478 107.896 67.3931H107.826C107.686 67.8505 107.429 68.1958 107.056 68.4291C106.683 68.6625 106.23 68.7791 105.698 68.7791C104.942 68.7791 104.359 68.5831 103.948 68.1911C103.547 67.7991 103.346 67.2718 103.346 66.6091C103.346 65.8811 103.607 65.3351 104.13 64.9711C104.662 64.6071 105.437 64.4251 106.454 64.4251H107.77V63.8091C107.77 63.3611 107.649 63.0158 107.406 62.7731C107.163 62.5305 106.785 62.4091 106.272 62.4091C105.843 62.4091 105.493 62.5025 105.222 62.6891C104.951 62.8758 104.723 63.1138 104.536 63.4031L103.626 62.5771C103.869 62.1665 104.209 61.8305 104.648 61.5691C105.087 61.2985 105.661 61.1631 106.37 61.1631C107.313 61.1631 108.036 61.3825 108.54 61.8211C109.044 62.2598 109.296 62.8898 109.296 63.7111V67.3651H110.066V68.6111H109.212ZM106.132 67.6171C106.608 67.6171 107 67.5145 107.308 67.3091C107.616 67.0945 107.77 66.8098 107.77 66.4551V65.4051H106.482C105.427 65.4051 104.9 65.7318 104.9 66.3851V66.6371C104.9 66.9638 105.007 67.2111 105.222 67.3791C105.446 67.5378 105.749 67.6171 106.132 67.6171ZM115.932 61.3311H117.402L114.336 70.0531C114.252 70.2958 114.154 70.5011 114.042 70.6691C113.939 70.8465 113.813 70.9865 113.664 71.0891C113.524 71.2011 113.351 71.2805 113.146 71.3271C112.941 71.3831 112.698 71.4111 112.418 71.4111H111.536V70.1651H112.768L113.188 68.9331L110.542 61.3311H112.068L113.524 65.6151L113.944 67.1971H114.014L114.476 65.6151L115.932 61.3311ZM118.657 68.6111V61.3311H120.183V62.5351H120.253C120.328 62.3485 120.417 62.1711 120.519 62.0031C120.631 61.8351 120.762 61.6905 120.911 61.5691C121.07 61.4385 121.252 61.3405 121.457 61.2751C121.672 61.2005 121.919 61.1631 122.199 61.1631C122.694 61.1631 123.133 61.2845 123.515 61.5271C123.898 61.7698 124.178 62.1431 124.355 62.6471H124.397C124.528 62.2365 124.78 61.8865 125.153 61.5971C125.527 61.3078 126.007 61.1631 126.595 61.1631C127.323 61.1631 127.888 61.4105 128.289 61.9051C128.691 62.3905 128.891 63.0858 128.891 63.9911V68.6111H127.365V64.1731C127.365 63.6131 127.258 63.1931 127.043 62.9131C126.829 62.6238 126.488 62.4791 126.021 62.4791C125.825 62.4791 125.639 62.5071 125.461 62.5631C125.284 62.6098 125.125 62.6845 124.985 62.7871C124.855 62.8898 124.747 63.0205 124.663 63.1791C124.579 63.3378 124.537 63.5198 124.537 63.7251V68.6111H123.011V64.1731C123.011 63.0438 122.568 62.4791 121.681 62.4791C121.495 62.4791 121.308 62.5071 121.121 62.5631C120.944 62.6098 120.785 62.6845 120.645 62.7871C120.505 62.8898 120.393 63.0205 120.309 63.1791C120.225 63.3378 120.183 63.5198 120.183 63.7251V68.6111H118.657ZM133.859 68.7791C133.336 68.7791 132.87 68.6905 132.459 68.5131C132.048 68.3358 131.698 68.0838 131.409 67.7571C131.12 67.4211 130.896 67.0198 130.737 66.5531C130.588 66.0771 130.513 65.5498 130.513 64.9711C130.513 64.3925 130.588 63.8698 130.737 63.4031C130.896 62.9271 131.12 62.5258 131.409 62.1991C131.698 61.8631 132.048 61.6065 132.459 61.4291C132.87 61.2518 133.336 61.1631 133.859 61.1631C134.391 61.1631 134.858 61.2565 135.259 61.4431C135.67 61.6298 136.01 61.8911 136.281 62.2271C136.552 62.5538 136.752 62.9365 136.883 63.3751C137.023 63.8138 137.093 64.2851 137.093 64.7891V65.3631H132.095V65.6011C132.095 66.1611 132.258 66.6231 132.585 66.9871C132.921 67.3418 133.397 67.5191 134.013 67.5191C134.461 67.5191 134.839 67.4211 135.147 67.2251C135.455 67.0291 135.716 66.7631 135.931 66.4271L136.827 67.3091C136.556 67.7571 136.164 68.1165 135.651 68.3871C135.138 68.6485 134.54 68.7791 133.859 68.7791ZM133.859 62.3531C133.598 62.3531 133.355 62.3998 133.131 62.4931C132.916 62.5865 132.73 62.7171 132.571 62.8851C132.422 63.0531 132.305 63.2538 132.221 63.4871C132.137 63.7205 132.095 63.9771 132.095 64.2571V64.3551H135.483V64.2151C135.483 63.6551 135.338 63.2071 135.049 62.8711C134.76 62.5258 134.363 62.3531 133.859 62.3531ZM138.782 68.6111V61.3311H140.308V62.5351H140.378C140.537 62.1431 140.775 61.8165 141.092 61.5551C141.419 61.2938 141.862 61.1631 142.422 61.1631C143.169 61.1631 143.748 61.4105 144.158 61.9051C144.578 62.3905 144.788 63.0858 144.788 63.9911V68.6111H143.262V64.1871C143.262 63.0485 142.805 62.4791 141.89 62.4791C141.694 62.4791 141.498 62.5071 141.302 62.5631C141.116 62.6098 140.948 62.6845 140.798 62.7871C140.649 62.8898 140.528 63.0205 140.434 63.1791C140.35 63.3378 140.308 63.5245 140.308 63.7391V68.6111H138.782ZM148.92 68.6111C148.388 68.6111 147.986 68.4758 147.716 68.2051C147.445 67.9251 147.31 67.5331 147.31 67.0291V62.5771H146.176V61.3311H146.792C147.044 61.3311 147.216 61.2751 147.31 61.1631C147.412 61.0511 147.464 60.8691 147.464 60.6171V59.3431H148.836V61.3311H150.362V62.5771H148.836V67.3651H150.25V68.6111H148.92ZM154.327 68.7791C153.636 68.7791 153.057 68.6578 152.591 68.4151C152.124 68.1725 151.718 67.8365 151.373 67.4071L152.353 66.5111C152.623 66.8378 152.922 67.0945 153.249 67.2811C153.585 67.4585 153.972 67.5471 154.411 67.5471C154.859 67.5471 155.19 67.4631 155.405 67.2951C155.629 67.1178 155.741 66.8751 155.741 66.5671C155.741 66.3338 155.661 66.1378 155.503 65.9791C155.353 65.8111 155.087 65.7038 154.705 65.6571L154.033 65.5731C153.286 65.4798 152.698 65.2651 152.269 64.9291C151.849 64.5838 151.639 64.0751 151.639 63.4031C151.639 63.0485 151.704 62.7358 151.835 62.4651C151.965 62.1851 152.147 61.9518 152.381 61.7651C152.623 61.5691 152.908 61.4198 153.235 61.3171C153.571 61.2145 153.939 61.1631 154.341 61.1631C154.994 61.1631 155.526 61.2658 155.937 61.4711C156.357 61.6765 156.73 61.9611 157.057 62.3251L156.119 63.2211C155.932 62.9971 155.685 62.8058 155.377 62.6471C155.078 62.4791 154.733 62.3951 154.341 62.3951C153.921 62.3951 153.608 62.4791 153.403 62.6471C153.207 62.8151 153.109 63.0345 153.109 63.3051C153.109 63.5851 153.197 63.7951 153.375 63.9351C153.552 64.0751 153.837 64.1778 154.229 64.2431L154.901 64.3271C155.703 64.4485 156.287 64.6865 156.651 65.0411C157.024 65.3865 157.211 65.8531 157.211 66.4411C157.211 66.7958 157.141 67.1178 157.001 67.4071C156.87 67.6871 156.679 67.9298 156.427 68.1351C156.175 68.3405 155.871 68.4991 155.517 68.6111C155.162 68.7231 154.765 68.7791 154.327 68.7791ZM165.281 68.7791C164.46 68.7791 163.76 68.6298 163.181 68.3311C162.612 68.0325 162.122 67.6311 161.711 67.1271L162.803 66.1051C163.149 66.5251 163.527 66.8425 163.937 67.0571C164.357 67.2718 164.833 67.3791 165.365 67.3791C165.991 67.3791 166.462 67.2391 166.779 66.9591C167.097 66.6791 167.255 66.3011 167.255 65.8251C167.255 65.4425 167.143 65.1391 166.919 64.9151C166.695 64.6911 166.299 64.5231 165.729 64.4111L164.861 64.2571C163.909 64.0798 163.195 63.7671 162.719 63.3191C162.243 62.8711 162.005 62.2551 162.005 61.4711C162.005 61.0418 162.085 60.6545 162.243 60.3091C162.411 59.9545 162.64 59.6605 162.929 59.4271C163.228 59.1845 163.587 58.9978 164.007 58.8671C164.427 58.7365 164.899 58.6711 165.421 58.6711C166.159 58.6711 166.798 58.8018 167.339 59.0631C167.881 59.3151 168.343 59.6838 168.725 60.1691L167.619 61.1491C167.367 60.8225 167.059 60.5611 166.695 60.3651C166.331 60.1691 165.879 60.0711 165.337 60.0711C164.777 60.0711 164.343 60.1831 164.035 60.4071C163.727 60.6311 163.573 60.9578 163.573 61.3871C163.573 61.7978 163.699 62.1058 163.951 62.3111C164.203 62.5071 164.595 62.6565 165.127 62.7591L165.995 62.9411C166.975 63.1278 167.689 63.4451 168.137 63.8931C168.595 64.3411 168.823 64.9571 168.823 65.7411C168.823 66.1985 168.744 66.6138 168.585 66.9871C168.427 67.3605 168.193 67.6825 167.885 67.9531C167.587 68.2145 167.218 68.4198 166.779 68.5691C166.341 68.7091 165.841 68.7791 165.281 68.7791ZM171.381 60.0291C171.063 60.0291 170.83 59.9545 170.681 59.8051C170.541 59.6558 170.471 59.4645 170.471 59.2311V58.9931C170.471 58.7598 170.541 58.5685 170.681 58.4191C170.83 58.2698 171.063 58.1951 171.381 58.1951C171.698 58.1951 171.927 58.2698 172.067 58.4191C172.207 58.5685 172.277 58.7598 172.277 58.9931V59.2311C172.277 59.4645 172.207 59.6558 172.067 59.8051C171.927 59.9545 171.698 60.0291 171.381 60.0291ZM170.611 61.3311H172.137V68.6111H170.611V61.3311ZM174.316 68.6111V61.3311H175.842V62.5351H175.912C175.986 62.3485 176.075 62.1711 176.178 62.0031C176.29 61.8351 176.42 61.6905 176.57 61.5691C176.728 61.4385 176.91 61.3405 177.116 61.2751C177.33 61.2005 177.578 61.1631 177.858 61.1631C178.352 61.1631 178.791 61.2845 179.174 61.5271C179.556 61.7698 179.836 62.1431 180.014 62.6471H180.056C180.186 62.2365 180.438 61.8865 180.812 61.5971C181.185 61.3078 181.666 61.1631 182.254 61.1631C182.982 61.1631 183.546 61.4105 183.948 61.9051C184.349 62.3905 184.55 63.0858 184.55 63.9911V68.6111H183.024V64.1731C183.024 63.6131 182.916 63.1931 182.702 62.9131C182.487 62.6238 182.146 62.4791 181.68 62.4791C181.484 62.4791 181.297 62.5071 181.12 62.5631C180.942 62.6098 180.784 62.6845 180.644 62.7871C180.513 62.8898 180.406 63.0205 180.322 63.1791C180.238 63.3378 180.196 63.5198 180.196 63.7251V68.6111H178.67V64.1731C178.67 63.0438 178.226 62.4791 177.34 62.4791C177.153 62.4791 176.966 62.5071 176.78 62.5631C176.602 62.6098 176.444 62.6845 176.304 62.7871C176.164 62.8898 176.052 63.0205 175.968 63.1791C175.884 63.3378 175.842 63.5198 175.842 63.7251V68.6111H174.316ZM186.661 61.3311H188.187V62.5351H188.257C188.416 62.0965 188.673 61.7605 189.027 61.5271C189.391 61.2845 189.816 61.1631 190.301 61.1631C191.225 61.1631 191.939 61.4991 192.443 62.1711C192.947 62.8338 193.199 63.7671 193.199 64.9711C193.199 66.1751 192.947 67.1131 192.443 67.7851C191.939 68.4478 191.225 68.7791 190.301 68.7791C189.816 68.7791 189.391 68.6578 189.027 68.4151C188.673 68.1725 188.416 67.8365 188.257 67.4071H188.187V71.4111H186.661V61.3311ZM189.839 67.4631C190.371 67.4631 190.796 67.2951 191.113 66.9591C191.431 66.6138 191.589 66.1611 191.589 65.6011V64.3411C191.589 63.7811 191.431 63.3331 191.113 62.9971C190.796 62.6518 190.371 62.4791 189.839 62.4791C189.373 62.4791 188.981 62.5958 188.663 62.8291C188.346 63.0531 188.187 63.3518 188.187 63.7251V66.2171C188.187 66.5905 188.346 66.8938 188.663 67.1271C188.981 67.3511 189.373 67.4631 189.839 67.4631ZM196.5 68.6111C195.978 68.6111 195.586 68.4805 195.324 68.2191C195.072 67.9485 194.946 67.5751 194.946 67.0991V58.2511H196.472V67.3651H197.48V68.6111H196.5ZM201.795 68.7791C201.272 68.7791 200.805 68.6905 200.395 68.5131C199.984 68.3358 199.634 68.0838 199.345 67.7571C199.055 67.4211 198.831 67.0198 198.673 66.5531C198.523 66.0771 198.449 65.5498 198.449 64.9711C198.449 64.3925 198.523 63.8698 198.673 63.4031C198.831 62.9271 199.055 62.5258 199.345 62.1991C199.634 61.8631 199.984 61.6065 200.395 61.4291C200.805 61.2518 201.272 61.1631 201.795 61.1631C202.327 61.1631 202.793 61.2565 203.195 61.4431C203.605 61.6298 203.946 61.8911 204.217 62.2271C204.487 62.5538 204.688 62.9365 204.819 63.3751C204.959 63.8138 205.029 64.2851 205.029 64.7891V65.3631H200.031V65.6011C200.031 66.1611 200.194 66.6231 200.521 66.9871C200.857 67.3418 201.333 67.5191 201.949 67.5191C202.397 67.5191 202.775 67.4211 203.083 67.2251C203.391 67.0291 203.652 66.7631 203.867 66.4271L204.763 67.3091C204.492 67.7571 204.1 68.1165 203.587 68.3871C203.073 68.6485 202.476 68.7791 201.795 68.7791ZM201.795 62.3531C201.533 62.3531 201.291 62.3998 201.067 62.4931C200.852 62.5865 200.665 62.7171 200.507 62.8851C200.357 63.0531 200.241 63.2538 200.157 63.4871C200.073 63.7205 200.031 63.9771 200.031 64.2571V64.3551H203.419V64.2151C203.419 63.6551 203.274 63.2071 202.985 62.8711C202.695 62.5258 202.299 62.3531 201.795 62.3531ZM215.361 68.6111C214.959 68.6111 214.651 68.4991 214.437 68.2751C214.222 68.0418 214.091 67.7478 214.045 67.3931H213.975C213.835 67.8505 213.578 68.1958 213.205 68.4291C212.831 68.6625 212.379 68.7791 211.847 68.7791C211.091 68.7791 210.507 68.5831 210.097 68.1911C209.695 67.7991 209.495 67.2718 209.495 66.6091C209.495 65.8811 209.756 65.3351 210.279 64.9711C210.811 64.6071 211.585 64.4251 212.603 64.4251H213.919V63.8091C213.919 63.3611 213.797 63.0158 213.555 62.7731C213.312 62.5305 212.934 62.4091 212.421 62.4091C211.991 62.4091 211.641 62.5025 211.371 62.6891C211.1 62.8758 210.871 63.1138 210.685 63.4031L209.775 62.5771C210.017 62.1665 210.358 61.8305 210.797 61.5691C211.235 61.2985 211.809 61.1631 212.519 61.1631C213.461 61.1631 214.185 61.3825 214.689 61.8211C215.193 62.2598 215.445 62.8898 215.445 63.7111V67.3651H216.215V68.6111H215.361ZM212.281 67.6171C212.757 67.6171 213.149 67.5145 213.457 67.3091C213.765 67.0945 213.919 66.8098 213.919 66.4551V65.4051H212.631C211.576 65.4051 211.049 65.7318 211.049 66.3851V66.6371C211.049 66.9638 211.156 67.2111 211.371 67.3791C211.595 67.5378 211.898 67.6171 212.281 67.6171ZM217.71 68.6111V61.3311H219.236V62.5351H219.306C219.465 62.1431 219.703 61.8165 220.02 61.5551C220.347 61.2938 220.79 61.1631 221.35 61.1631C222.097 61.1631 222.675 61.4105 223.086 61.9051C223.506 62.3905 223.716 63.0858 223.716 63.9911V68.6111H222.19V64.1871C222.19 63.0485 221.733 62.4791 220.818 62.4791C220.622 62.4791 220.426 62.5071 220.23 62.5631C220.043 62.6098 219.875 62.6845 219.726 62.7871C219.577 62.8898 219.455 63.0205 219.362 63.1791C219.278 63.3378 219.236 63.5245 219.236 63.7391V68.6111H217.71ZM230.409 67.4071H230.339C230.181 67.8365 229.919 68.1725 229.555 68.4151C229.201 68.6578 228.781 68.7791 228.295 68.7791C227.371 68.7791 226.657 68.4478 226.153 67.7851C225.649 67.1131 225.397 66.1751 225.397 64.9711C225.397 63.7671 225.649 62.8338 226.153 62.1711C226.657 61.4991 227.371 61.1631 228.295 61.1631C228.781 61.1631 229.201 61.2845 229.555 61.5271C229.919 61.7605 230.181 62.0965 230.339 62.5351H230.409V58.2511H231.935V68.6111H230.409V67.4071ZM228.757 67.4631C229.224 67.4631 229.616 67.3511 229.933 67.1271C230.251 66.8938 230.409 66.5905 230.409 66.2171V63.7251C230.409 63.3518 230.251 63.0531 229.933 62.8291C229.616 62.5958 229.224 62.4791 228.757 62.4791C228.225 62.4791 227.801 62.6518 227.483 62.9971C227.166 63.3331 227.007 63.7811 227.007 64.3411V65.6011C227.007 66.1611 227.166 66.6138 227.483 66.9591C227.801 67.2951 228.225 67.4631 228.757 67.4631ZM240.463 68.7791C239.642 68.7791 238.942 68.6298 238.363 68.3311C237.794 68.0325 237.304 67.6311 236.893 67.1271L237.985 66.1051C238.33 66.5251 238.708 66.8425 239.119 67.0571C239.539 67.2718 240.015 67.3791 240.547 67.3791C241.172 67.3791 241.644 67.2391 241.961 66.9591C242.278 66.6791 242.437 66.3011 242.437 65.8251C242.437 65.4425 242.325 65.1391 242.101 64.9151C241.877 64.6911 241.48 64.5231 240.911 64.4111L240.043 64.2571C239.091 64.0798 238.377 63.7671 237.901 63.3191C237.425 62.8711 237.187 62.2551 237.187 61.4711C237.187 61.0418 237.266 60.6545 237.425 60.3091C237.593 59.9545 237.822 59.6605 238.111 59.4271C238.41 59.1845 238.769 58.9978 239.189 58.8671C239.609 58.7365 240.08 58.6711 240.603 58.6711C241.34 58.6711 241.98 58.8018 242.521 59.0631C243.062 59.3151 243.524 59.6838 243.907 60.1691L242.801 61.1491C242.549 60.8225 242.241 60.5611 241.877 60.3651C241.513 60.1691 241.06 60.0711 240.519 60.0711C239.959 60.0711 239.525 60.1831 239.217 60.4071C238.909 60.6311 238.755 60.9578 238.755 61.3871C238.755 61.7978 238.881 62.1058 239.133 62.3111C239.385 62.5071 239.777 62.6565 240.309 62.7591L241.177 62.9411C242.157 63.1278 242.871 63.4451 243.319 63.8931C243.776 64.3411 244.005 64.9571 244.005 65.7411C244.005 66.1985 243.926 66.6138 243.767 66.9871C243.608 67.3605 243.375 67.6825 243.067 67.9531C242.768 68.2145 242.4 68.4198 241.961 68.5691C241.522 68.7091 241.023 68.7791 240.463 68.7791ZM248.648 68.7791C248.126 68.7791 247.659 68.6905 247.248 68.5131C246.838 68.3358 246.488 68.0838 246.198 67.7571C245.909 67.4211 245.685 67.0198 245.526 66.5531C245.377 66.0771 245.302 65.5498 245.302 64.9711C245.302 64.3925 245.377 63.8698 245.526 63.4031C245.685 62.9271 245.909 62.5258 246.198 62.1991C246.488 61.8631 246.838 61.6065 247.248 61.4291C247.659 61.2518 248.126 61.1631 248.648 61.1631C249.18 61.1631 249.647 61.2565 250.048 61.4431C250.459 61.6298 250.8 61.8911 251.07 62.2271C251.341 62.5538 251.542 62.9365 251.672 63.3751C251.812 63.8138 251.882 64.2851 251.882 64.7891V65.3631H246.884V65.6011C246.884 66.1611 247.048 66.6231 247.374 66.9871C247.71 67.3418 248.186 67.5191 248.802 67.5191C249.25 67.5191 249.628 67.4211 249.936 67.2251C250.244 67.0291 250.506 66.7631 250.72 66.4271L251.616 67.3091C251.346 67.7571 250.954 68.1165 250.44 68.3871C249.927 68.6485 249.33 68.7791 248.648 68.7791ZM248.648 62.3531C248.387 62.3531 248.144 62.3998 247.92 62.4931C247.706 62.5865 247.519 62.7171 247.36 62.8851C247.211 63.0531 247.094 63.2538 247.01 63.4871C246.926 63.7205 246.884 63.9771 246.884 64.2571V64.3551H250.272V64.2151C250.272 63.6551 250.128 63.2071 249.838 62.8711C249.549 62.5258 249.152 62.3531 248.648 62.3531ZM256.385 68.7791C255.863 68.7791 255.396 68.6905 254.985 68.5131C254.575 68.3358 254.229 68.0838 253.949 67.7571C253.669 67.4211 253.455 67.0198 253.305 66.5531C253.156 66.0771 253.081 65.5498 253.081 64.9711C253.081 64.3925 253.156 63.8698 253.305 63.4031C253.455 62.9271 253.669 62.5258 253.949 62.1991C254.229 61.8631 254.575 61.6065 254.985 61.4291C255.396 61.2518 255.863 61.1631 256.385 61.1631C257.113 61.1631 257.711 61.3265 258.177 61.6531C258.644 61.9798 258.985 62.4138 259.199 62.9551L257.939 63.5431C257.837 63.2071 257.655 62.9411 257.393 62.7451C257.141 62.5398 256.805 62.4371 256.385 62.4371C255.825 62.4371 255.401 62.6145 255.111 62.9691C254.831 63.3145 254.691 63.7671 254.691 64.3271V65.6291C254.691 66.1891 254.831 66.6465 255.111 67.0011C255.401 67.3465 255.825 67.5191 256.385 67.5191C256.833 67.5191 257.188 67.4118 257.449 67.1971C257.72 66.9731 257.935 66.6791 258.093 66.3151L259.255 66.9311C259.013 67.5285 258.649 67.9858 258.163 68.3031C257.678 68.6205 257.085 68.7791 256.385 68.7791ZM265.118 67.4071H265.062C264.997 67.5845 264.908 67.7571 264.796 67.9251C264.694 68.0931 264.558 68.2425 264.39 68.3731C264.232 68.4945 264.036 68.5925 263.802 68.6671C263.578 68.7418 263.317 68.7791 263.018 68.7791C262.262 68.7791 261.674 68.5365 261.254 68.0511C260.844 67.5658 260.638 66.8705 260.638 65.9651V61.3311H262.164V65.7691C262.164 66.8985 262.631 67.4631 263.564 67.4631C263.76 67.4631 263.952 67.4398 264.138 67.3931C264.325 67.3371 264.488 67.2578 264.628 67.1551C264.778 67.0525 264.894 66.9218 264.978 66.7631C265.072 66.6045 265.118 66.4178 265.118 66.2031V61.3311H266.644V68.6111H265.118V67.4071ZM268.829 68.6111V61.3311H270.355V62.7311H270.425C270.528 62.3578 270.743 62.0311 271.069 61.7511C271.396 61.4711 271.849 61.3311 272.427 61.3311H272.833V62.8011H272.231C271.625 62.8011 271.158 62.8991 270.831 63.0951C270.514 63.2911 270.355 63.5805 270.355 63.9631V68.6111H268.829ZM276.976 68.7791C276.454 68.7791 275.987 68.6905 275.576 68.5131C275.166 68.3358 274.816 68.0838 274.526 67.7571C274.237 67.4211 274.013 67.0198 273.854 66.5531C273.705 66.0771 273.63 65.5498 273.63 64.9711C273.63 64.3925 273.705 63.8698 273.854 63.4031C274.013 62.9271 274.237 62.5258 274.526 62.1991C274.816 61.8631 275.166 61.6065 275.576 61.4291C275.987 61.2518 276.454 61.1631 276.976 61.1631C277.508 61.1631 277.975 61.2565 278.376 61.4431C278.787 61.6298 279.128 61.8911 279.398 62.2271C279.669 62.5538 279.87 62.9365 280 63.3751C280.14 63.8138 280.21 64.2851 280.21 64.7891V65.3631H275.212V65.6011C275.212 66.1611 275.376 66.6231 275.702 66.9871C276.038 67.3418 276.514 67.5191 277.13 67.5191C277.578 67.5191 277.956 67.4211 278.264 67.2251C278.572 67.0291 278.834 66.7631 279.048 66.4271L279.944 67.3091C279.674 67.7571 279.282 68.1165 278.768 68.3871C278.255 68.6485 277.658 68.7791 276.976 68.7791ZM276.976 62.3531C276.715 62.3531 276.472 62.3998 276.248 62.4931C276.034 62.5865 275.847 62.7171 275.688 62.8851C275.539 63.0531 275.422 63.2538 275.338 63.4871C275.254 63.7205 275.212 63.9771 275.212 64.2571V64.3551H278.6V64.2151C278.6 63.6551 278.456 63.2071 278.166 62.8711C277.877 62.5258 277.48 62.3531 276.976 62.3531Z" fill="#F6F8F9"/>
<defs>
<clipPath id="clip0_40_1055">
<rect width="101.02" height="22.9592" fill="white" transform="translate(111.612 3.82599)"/>
</clipPath>
</defs>
</svg>
