<svg width="24" height="24" viewBox="0 0 24 24" fill="none" xmlns="http://www.w3.org/2000/svg">
<path fill-rule="evenodd" clip-rule="evenodd" d="M4 5.18182C2.89543 5.18182 2 6.07726 2 7.18183V8.18182H22V7.18182C22 6.07725 21.1046 5.18182 20 5.18182H4ZM22 10.6818H2V16.8182C2 17.9228 2.89543 18.8182 4 18.8182H20C21.1046 18.8182 22 17.9228 22 16.8182V10.6818ZM3.625 13.1818C3.625 12.9747 3.79289 12.8068 4 12.8068H12C12.2071 12.8068 12.375 12.9747 12.375 13.1818C12.375 13.3889 12.2071 13.5568 12 13.5568H4C3.79289 13.5568 3.625 13.3889 3.625 13.1818ZM4 14.8068C3.79289 14.8068 3.625 14.9747 3.625 15.1818C3.625 15.3889 3.79289 15.5568 4 15.5568H8C8.20711 15.5568 8.375 15.3889 8.375 15.1818C8.375 14.9747 8.20711 14.8068 8 14.8068H4Z" fill="#979797"/>
</svg>
