<svg width="50" height="46" viewBox="0 0 50 46" fill="none" xmlns="http://www.w3.org/2000/svg">
<path d="M29.125 18.5C34.0956 18.5 38.125 14.4706 38.125 9.5C38.125 4.52944 34.0956 0.5 29.125 0.5C24.1544 0.5 20.125 4.52944 20.125 9.5C20.125 14.4706 24.1544 18.5 29.125 18.5Z" fill="#F9BB2C"/>
<path d="M17.125 18.5C22.0956 18.5 26.125 14.4706 26.125 9.5C26.125 4.52944 22.0956 0.5 17.125 0.5C12.1544 0.5 8.125 4.52944 8.125 9.5C8.125 14.4706 12.1544 18.5 17.125 18.5Z" fill="#FBDA5D"/>
<path d="M41.875 11.75H4.375C2.30393 11.75 0.625 13.4289 0.625 15.5V41.75C0.625 43.8211 2.30393 45.5 4.375 45.5H41.875C43.9461 45.5 45.625 43.8211 45.625 41.75V15.5C45.625 13.4289 43.9461 11.75 41.875 11.75Z" fill="#7083EB"/>
<path d="M34.375 23H47.5C47.9973 23 48.4742 23.1975 48.8258 23.5492C49.1775 23.9008 49.375 24.3777 49.375 24.875V32.375C49.375 32.8723 49.1775 33.3492 48.8258 33.7008C48.4742 34.0525 47.9973 34.25 47.5 34.25H34.375C33.3804 34.25 32.4266 33.8549 31.7234 33.1516C31.0201 32.4484 30.625 31.4946 30.625 30.5V26.75C30.625 25.7554 31.0201 24.8016 31.7234 24.0984C32.4266 23.3951 33.3804 23 34.375 23Z" fill="#4C61E4"/>
</svg>
